<?xml version="1.0" standalone="no"?>
<!DOCTYPE svg PUBLIC "-//W3C//DTD SVG 1.1//EN" "http://www.w3.org/Graphics/SVG/1.1/DTD/svg11.dtd" >
<svg xmlns="http://www.w3.org/2000/svg" xmlns:xlink="http://www.w3.org/1999/xlink" version="1.1">
<metadata></metadata>
<defs>
<font id="ar_blancaregular" horiz-adv-x="1024" >
<font-face units-per-em="2048" ascent="1638" descent="-410" />
<missing-glyph horiz-adv-x="737" />
<glyph horiz-adv-x="0" />
<glyph horiz-adv-x="682" />
<glyph unicode=" "  horiz-adv-x="737" />
<glyph unicode="&#x09;" horiz-adv-x="737" />
<glyph unicode="&#xa0;" horiz-adv-x="737" />
<glyph unicode="!" horiz-adv-x="724" d="M8 63l19 7l-7 6l-4 6l19 6l8 33l-4 4l18 14l-4 15q14 12 51 73q29 49 62 55.5t57 12.5q14 0 25 -2q2 6 7 10t13 8l4 -10l7 -2l26 29q14 -6 29 0l2 -45l-12 -13l6 -12l-23 -6q4 -8 4 -21q0 -4 -4 -20h10q0 -12 -8 -25l-6 2l-6 7q-6 -18 -14 -21l4 -4l4 -6l8 10h10 q-2 -8 -9 -22.5t-13 -16.5l-6 4l14 -6l-37 -20v-17l6 -4l10 6l2 -14q-29 -14 -24 -45l-19 -6v-17l-14 -4l-12 4q-20 -6 -29.5 -7t-23.5 -1q-12 0 -21 2l-18 -30q-4 4 -8.5 6t-12.5 2q6 16 8 30q-23 -4 -32 -16l18 -6l-2 -19q-12 4 -47 0l-8 5l-6 -7h-17l-6 -2l-20 11l-2 10 q0 8 8 26.5t12 24.5zM154 399q0 12 26.5 67.5t36.5 65.5v9q14 31 20.5 43t22.5 34l21 46q2 8 4 11t6 -1q4 8 16 37.5t23 46.5l4 10q6 2 6 16l6 4l19 43q12 8 24 34t23 50q25 37 49 76l-10 2q66 131 77 154q43 88 68 160l-8 22l4 23l24 8l39 16l7 8h32l13 7l14 -2l14 12 l15 -2l10 10q25 6 45 4l26 -12q12 -23 18.5 -38t6.5 -24l-2 -16h-10l-2 -12h12q0 -8 -13.5 -11.5t-19.5 -7.5q8 -10 19 -20q-14 -6 -17 -4l-16 -8l4 -13h-16l-7 -24l33 14l-14 -25q-6 -4 -10 -6l-21 -4l-2 -20q10 -2 19 6l-15 -31h-12l4 -8q0 -4 -12 -4q-4 -4 1 -9.5t9 -0.5 l-35 -37q-4 -4 -7 -6t-7 -11q4 -2 6 0t4 6l-12 -28l-10 2l-31 -8v-9h8q0 8 4 9l6 -6h33q-23 -12 -45 -23l10 -12h17l4 8q2 -10 -9.5 -13t-13.5 -8l-20 5l-6 -5q-2 -4 10 -8l-23 -10q8 -4 8 -12l-18 2l-6 -6l4 -4l12 6l11 -19q-2 6 0 8t4 5l16 -15l-10 -2l-15 -33 q2 -2 5.5 -4t1.5 -4l-15 -4v12l-4 4q-10 -8 -18 -26l18 -6l-12 -13h-31l-10 -4v-8l10 -12l-8 -15q-8 6 -10 -3t-11 -5l21 -4l4 12h20l-8 -4q-4 0 -6 -16l-31 -2l-2 -25l-10 -8h14q8 -4 17 -8q0 -10 -19 -10q-10 -8 -16 -6l-4 -15l8 4h19l-19 -12l-4 4l-10 -8q0 -4 -4 -8 l4 -10l-4 -9h-8l-5 15q2 -16 -10 -39l4 6l11 2l12 -6q-8 -16 -27 -31l8 -16l-24 -13l-8 11l-17 -9q8 -12 8 -16l17 -4q-14 -23 -35 -31l10 -14l-37 -16l17 -2q4 0 4 -23l-6 8h-11l-16 -4l-6 -10q0 -4 6 -10.5t19 -12.5q-8 -8 -19 -6l-8 -8h-14l-5 -14h25l-16 -19l-25 2 q-2 4 2 7.5t8 7.5q-25 -6 -45 -4q-2 -6 -9 -5.5t-9 2.5l-19 -14l2 6l-10 2l-2 -14l-4 -16q-25 6 -35 -2l-12 6q-6 -4 -10 -6q0 -4 13 -4.5t17 -2.5v-16h-18h-25l-8 8l-10 -20l-14 4l-17 -6l-28 18v10zM360 428v8h11l6 -6l10 4l6 -10l8 -2l15 4l-15 -12q-25 6 -32 6l-13 -4 l-2 6z" />
<glyph unicode="&#x22;" horiz-adv-x="731" d="M254 913q6 31 25.5 64t31.5 53q72 123 123 199q98 143 168 143l6 -4l35 21l27 4l30 -41q0 -12 -8 -33t-10 -27l-23 -6v-8l-8 -2v-12q2 -8 -11 -24.5t-15 -20.5h-15q0 -20 -8 -35l4 -15l-4 -12l-14 -4l-13 -23l3 -10l-5 -8l-12 -2l-8 -6v-8l-10 -4l4 -21l-4 -18l-15 2 l-12 -15h-10l-4 -26l-6 -8l4 -15l-4 -12h-19l-10 -29q-8 -2 -12 -12l2 -12h-13v-8h-14v-11h-8l-6 4l-43 4l-21 -16l-4 6l-10 -14h-8l-2 -6l-9 12v-10l-14 2q-10 -12 -26 -12q-29 0 -37 28zM621 913q6 33 22 60.5t35 56.5q72 123 123 199q98 143 170 143l6 -4l33 21l26 4 l31 -41q0 -18 -16 -41l2 -15l-4 -4l-23 -6v-8l-8 -2l2 -12q0 -10 -10.5 -22.5t-18.5 -22.5h-12l-8 -35l4 -15l-4 -12l-17 -4l-12 -23l2 -10l-2 -8l-14 -2l2 -6h-10v-8l-11 -4l4 -21l-4 -18l-12 2l-14 -15h-11l-4 -26l-6 -8l4 -15l-4 -12h-18l-10 -29q-12 -8 -13 -12l2 -12 h-12v-8h-12l-2 -11h-9l-6 4l-43 4l-18 -16l-6 6l-10 -14h-9l-2 -6l-8 12v-10l-12 2q-10 -12 -29 -12q-29 0 -37 28z" />
<glyph unicode="#" horiz-adv-x="1142" d="M176 432h-43l-6 -8l-6 6l-21 -4l-14 16l-6 -12q-39 0 -62 23q12 29 62 71q20 18 43 37l-6 4q0 4 14 9.5t16 9.5l74 8l31 -2l47 8q20 37 59 96.5t60 89.5q-8 10 -6 13q-16 -20 -43 -21l-9 12q-6 2 -24.5 -1t-28.5 -3l-22 -2l-15 15q-14 -10 -22 -11q-31 0 -43 23 q10 12 63 68q33 35 39 41l-8 6q0 4 43 12t64 8h24q14 0 43 4t43 4q98 180 197 363q6 0 22.5 12t22.5 19l2 -7q20 8 27.5 10.5t7.5 -6.5l14 17q16 0 25.5 10t13.5 12l29 -6l14 -12q-6 -25 -19 -57q-18 -43 -34 -86l-21 -19l-6 6l-2 -8l6 -10l-8 -27l-4 -2l-17 -18v12l-10 -22 l6 -11l-26 -32v-11l-8 6q-6 0 -8.5 -13t3.5 -19h-22l-4 -9l16 -14l-8 -6l-12 -33l-13 2l-18 -35l16 -8q23 8 54 8q10 0 26 -4l8 7h146q96 176 192 354q20 12 36 19t32 7l12 2l23 23l8 -6q6 0 27 20q10 10 18 11l12 -7l6 -22q0 -23 -14 -55q-37 -82 -37 -86l-18 -19l-8 6 l-2 -8l6 -10q-6 -23 -27 -47v12l-12 -25q-23 8 -23 -20l8 6h13q4 8 6 11t4 -1l-29 -36v-11l-8 6q-6 0 -8 -13t4 -19h-23l-4 -9l17 -14l-6 -6l-15 -33l-10 2l-18 -30l55 2q55 0 98 -15q4 -6 10 -12l-16 -29l-10 -10l2 -6q-18 -23 -27 -35q-27 -39 -32 -59l-3 -8l-14 -3l-4 13 l-33 -4l-8 18q-25 -14 -37 -35q-8 -2 -24 8q-6 2 -19 13l-8 -21l-23 6l3 -10q-12 0 -13 21q-4 -12 0 -33l-8 -14q-4 10 -8 15t-8 1l-4 -27l8 2l8 -14v-6q-8 12 -16 10v-8h-15v-8l-12 -21q-6 -8 -8 -10q4 -6 10 -10v-8l-39 -9v-24q6 2 7 -2t1 -13q-6 2 -16 3q-12 -14 -10 -17 q47 6 94 6q49 0 90 -14q-4 -8 0 -11t8 -3q-4 -12 -10 -24.5t-16 -10.5l-3 -23q-23 -23 -35 -40t-20 -40l-4 -10h-12l-4 8h-33l-4 17l-19 -8q2 -20 -25.5 -25.5t-27.5 6.5q0 4 -4 6l-8 4q-6 -16 -10 -16l-21 6q-16 -8 -31 -12q-10 2 -18 4l-23 -18h15l8 -11l-16 -18h8 q4 -4 0 -9.5t-8 1.5l-19 -7q-12 -18 0 -26h12q0 -6 -16 -5t-35 5l-10 -19l2 -10l12 15l-4 -27l17 2l-6 -8l-3 -15q0 10 -12 11v-15l10 -4q0 -8 -18 -6l-14 -4l6 -20l-10 2l-23 -11l-14 -4l6 -14l10 4q8 2 12 -2t0 -12l-30 -19l-15 -2l-2 -6l21 -10l-17 -19l-8 23 q-6 -18 -4 -25l-18 -8l-7 2l-6 -22l17 -23v-8h-11q-4 -10 -5 -8t-3 10h-12q-6 0 -10 -12.5t-10 -16.5q6 -8 13 -18t3 -17l-33 5q4 12 7 19t3 13l-8 4l-8 -22q2 4 -1 7t-19 -1l-17 -14l-2 -11q-4 -6 -6 -8q-16 -18 -21 -20h-22q-4 -8 -6 -10t-4 -5l-21 15l-28 -19l-13 4 q6 51 70 152q172 276 180 295l-14 14q-20 6 -27 4l-6 -28h-8l6 20q-4 4 -7 0t-3 -6l-23 14l-18 -22l-6 2l-29 -2l14 6h-14q-4 4 10 18v11l-16 2l-17 -19l-2 17h-10l-18 -15h-8q-2 -2 -4.5 -10t-6.5 -10l-6 4l-8 -10l-23 8h-8q-14 -10 -14 -16h14l8 -11l-16 -18h8 q4 -4 -2 -10q-4 0 -6 2l-18 -7q-12 -16 0 -23t12 -9l-10 -2l-23 8h-20l-9 -19v-10l15 15l-4 -27l14 2l-4 -8q-2 -8 -2 -17q0 12 -12 13q-4 -2 -9 -4q2 -2 19 -15q0 -8 -21 -6l-14 -4l6 -20l-8 2l-23 -11l-16 -4l6 -14l12 4q6 2 12.5 -1t-1.5 -13l-31 -19l-12 -2l-4 -6 l20 -10l-14 -19l-10 23q-6 -16 -3 -25l-20 -8l-10 -20l14 -23v-8h-8q-4 -8 -6 -14q-4 0 -4 16h-13q-8 0 -17 -8t-17 -15l-7 -22q2 4 -1 6t-5 4l-14 -4l-19 -14l-2 -11l-24 -28h-25q-4 -8 -6 -10t-4 -5l-20 15l-29 -19q-14 2 -14 23q0 8 69 123q92 152 187 305q-3 0 -19 8z M496 602l26 -6q10 6 31 6q25 -2 35 -2l14 4h115q20 41 59 103q18 31 39 61q4 20 4 29l-12 -13l-14 -14h-9v14l-16 11l-6 -4l-4 -5q-2 10 -13 13l-8 -29l-2 21l-10 -7l-18 15q-20 -10 -31 -11l-23 7l9 4l2 8l-5 4h-18q-4 -14 -18 -16l4 12l-4 4l-15 -2l-8 -10l-10 -2l-6 -23 l-9 2l-2 -4l2 -8l-2 -14l-4 16h-14l-2 -27l6 2l10 -8l-16 -2v-8h-14q0 -20 -13 -29l-6 2v-10l-10 4v-8q4 -8 12 -12l6 4v-8l-39 -9v-24l9 -2v-10h-19l-2 -13l-6 -8q17 2 25 2z" />
<glyph unicode="$" horiz-adv-x="1087" d="M31 -231l10 4l106 196l-22 19l4 12l-31 -6q-14 6 -14 14t18 8v19l-10 -4l-12 -11q-12 8 -24.5 22.5t-24.5 33.5l16 16l4 25q-10 6 -37 -4l6 8h23v10l-16 2l-2 10q-8 2 -17 7q4 -2 10 -3l17 17l-27 16l-8 10l16 5l2 -7l21 7q-10 2 -16.5 3t-14.5 -1l12 20q2 6 -3 10t-13 6 q0 6 5 13.5t11 1.5l-10 22q4 6 8 13l13 45q20 16 22 18h-12q51 82 106 143q76 84 142 105l16 20q6 4 7 0t3 -10q4 0 13.5 11.5t13.5 19.5l29 10q-29 -37 -59.5 -80t-53.5 -88h-8q-6 -23 -12.5 -47t-20.5 -39v-8l14 -21l-18 -26q14 -6 18 -8q-2 -8 -4 -15q10 -35 15 -43 q12 -27 28 -37q53 74 115 203q49 104 100 211h-16q-20 14 -29 41q-20 -4 -20 12l16 7q8 -10 19 -11l6 13l-37 4q2 4 -9.5 15t-11.5 15l-14 7l-14 32q-6 4 -15 4l-4 19q-8 6 -12 6q-18 43 -31.5 81t-21.5 79l8 8q-10 25 -16 37q16 104 108 184q51 43 189 119l65 37 q23 14 37 22q31 18 37 19h18v8q51 10 60 10q10 0 71 -18l47 96q45 59 50 66q12 18 18 47l29 6l10 -19l-35 -77l-10 -27q-14 -8 -36.5 -52t-29.5 -67q4 -10 8.5 -15t8.5 -1l45 -80q2 -10 6 -19v-13t-2 -11l4 -21l20 -10l-8 -2l8 -39l-14 -4l6 -37q-12 -4 -22 -8l-8 -27l14 4 q-23 -35 -70 -67.5t-90 -50.5l-22 12l6 12l-29 76l-27 -59h-10q-27 -43 -53 -84q-33 -57 -33 -95q2 -8 6 -16l13 -4l32 -35v-20l17 6q16 0 16 -8q-10 -18 -10 -25q10 0 16 1t4 9l21 -14q6 -4 6 -20q0 -8 6 -8.5t12 1.5l-2 -6l-4 -12l9 -23q6 8 12 19q4 -4 6 -4 q16 -10 22 -10l19 -23l-12 -33l12 -4l31 -39q4 4 6 19h12v-9l-4 -4q4 -10 10 -12l-2 -12q0 -4 10.5 -4t12.5 -2v-45q0 -31 12 -31v-10q-6 -25 -10 -50.5t2 -29.5l-33 -62l-14 -22l-27 -15l6 -10l-26 -22q-4 4 -18.5 -5.5t-29.5 -21.5q-27 -20 -32 -25q-135 -96 -269 -192 q2 -4 -1 -7l-5 -5h-22l-15 -17q2 -6 -5 -9t-9 3l-145 -35q-2 12 -14.5 10.5t-14.5 -4.5l-33 13q-43 -45 -88 -133q-14 -27 -45 -86l-14 2q-6 0 -4 -11.5t6 -15.5l-27 2l6 -16q0 -4 -8 -10.5t-14 -6.5q-33 0 -39 21zM455 113l14 -4q2 0 54 8t59 6q51 20 98 55q61 47 61 88 l7 37q0 14 -9 37q-18 49 -18 63q-18 10 -23 27l-10 4l-12 19l-29 28l4 4l-8 11l-12 4l6 10v8h-25l-2 8l-6 2l2 15l-14 -4q-18 14 -27 20q-20 25 -41 27q-27 -55 -53 -109q-6 -25 -25 -35q0 -25 -32 -92q-45 -90 -49 -104l-7 -2l-8 -33l-10 -4l-8 -37l-6 -8 q27 -20 63.5 -34.5t65.5 -14.5zM608 885q68 131 137 264v14l7 4l-7 7l-4 6l-8 4q-12 41 -48 68.5t-79 27.5l-10 -8l-14 -4l-23 -23q-23 -23 -27 -24q0 -20 -18 -31l-14 -68l-6 -6q6 -10 10 -34.5t10 -37.5l-6 -6h-16l2 -8q20 -4 63 -88q22 -45 51 -57z" />
<glyph unicode="%" horiz-adv-x="1173" d="M645 1366v8l12 -4q66 0 102 -11t52 -59l-2 -16l12 -8v-14l-4 -19l12 -8l-10 -6l4 -10h-8l-6 4l2 -17l10 -4l-24 -55h-11q-8 -29 -38 -35v-16l-15 -15q-18 -16 -24 -26l-19 -6q-39 -29 -78 -56h-10q-23 -31 -97.5 -66.5t-111.5 -35.5q-25 0 -49 2q-29 16 -45 31 q-39 33 -39 80q0 74 45 139q39 57 109 102q35 27 116 72q95 51 115 49zM500 1106l-2 -49h8q12 -23 35 -35q18 20 30 41q27 43 27 84q0 31 -14.5 58.5t-42.5 27.5q-4 -16 -23 -35l2 -6l-8 -4l-4 -25h-12l2 -6l2 -31l-11 -14zM160 328h8q68 76 184 192q135 135 191 189 q143 139 190 188q182 195 365 391q47 16 58 19.5t30 3.5h14l21 12q6 8 10 6l18 -6q8 0 23.5 11.5t21.5 11.5q8 0 18.5 -7.5t6.5 -17.5q-4 -20 -8 -27q-12 -20 -25 -41l-33 -28q8 -16 -8 -21.5t-33 -5.5v-10l7 -4q0 -10 -11 -21q-2 -2 -4 -2l-20 -14v8l-15 -18h-12l-16 -17 q16 4 22 5t15 1l-35 -24l-8 -2l-15 -6l4 -21l-14 2l-18 -6l20 -12l-10 -6l-27 -27l-4 4l-31 -35l-16 2l-10 -8q0 -6 13 -3t13 -11l-18 -8v10q-6 -4 -11 -11.5t-12 3.5l-16 -21l18 -4l-20 -16v-8l-10 22h-13l-4 -14q-2 -8 5.5 -12.5t7.5 -14.5q-12 6 -23 12l-2 -16v-6 q-18 -10 -20 -12v-13q-10 8 -17 8q-6 0 -5 -11t3 -15h8q0 -8 -6 -8q-4 4 -8 10l-18 -2l-5 -19h13q8 -8 8 -12l-21 6l3 -8l-21 -4q6 -10 -3 -12t-15 -4q-20 0 -23 -9l19 -14l8 2l-49 -8v-23q4 -6 8 -10l-19 2q-6 -8 -8 -10q-8 -10 -4 -14h-28.5t-14.5 -7h8q12 -16 13 -26 q-8 2 -17 2l-26 -4v-23q0 -4 1 -13t-1 -15l-19 2l-18 -9q-23 -12 -27 -14l35 -12q0 -8 -14.5 -14.5t-14.5 -10.5l-26 8l-29 -4l16 -6l17 -4l-27 -16l10 -4l-8 -9q-10 -2 -20.5 -4t-10.5 -8q0 -10 10.5 -10t10.5 -6h-19l-45 10l-12 -25q4 2 9 8.5t12 2.5l-17 -23h25l-6 -6 l-2 -8q-6 6 -19 6l2 -12h6t2 -6h-20l-21 -3l11 -20l-11 2l-45 -4l-4 -4q0 -8 5 -9t18 1q8 -2 11 -4t-1 -7l-59 -16l6 -4h22q2 -4 -11 -11.5t-9 -17.5l-49 -16l-17 6l-6 -10l4 -4l27 6l26 -10q-8 -2 -18 -2l-6 -13l-23 -18l6 -21q-8 2 -14 6h-22l-7 -14l15 -10q-2 -6 -2 -12 l-8 6q-6 0 -8.5 -8.5t-13.5 -11.5t-19 -9l-9 4l-4 -8l25 -6l-19 -14l-12 18q-8 -4 -7 -11t1 -10h-8l-4 -4q-25 0 -27 -16l23 -18q-2 -6 -15 -13l-12 4l-16 4l-6 -6q-18 -18 -19 -20l19 -19v-8l-41 6l14 19v8l-4 4q-6 0 -9 -7t-6 -11v8l-28 -2l-19 -10q-2 -14 -6 -21 q-23 4 -41 -12q-10 6 -16 0t-12 -10l-11 10l-18 6l-49 -16l-29 14q39 55 115 129q64 60 127 119zM1010 393v-31l10 -22l-8 -8q2 2 3 -1t3 -5l-10 -11l8 -4l6 2l-21 -6q0 -23 -13 -56.5t-30 -43.5l3 -8q-16 -10 -23 -29l-29 -12l-8 -25q-2 2 -11 -3t-22 -11l6 -4l-8 -4l-6 4 l-8 -9l-29 -22l-20 -14l-21 4q-14 -16 -59 -37q-29 -12 -37 -23q-49 -14 -98 -26q-43 0 -82 22v8q-49 29 -49 84q0 94 106 181q66 53 191 112q41 23 82 47q6 2 34.5 3t32.5 1q72 0 98 -53h9zM788 231q0 31 -7 45.5t-33 24.5q-8 -8 -27 -13t-28 -32t-9 -53q0 -78 72 -86 q32 51 32 114z" />
<glyph unicode="&#x26;" horiz-adv-x="1441" d="M78 434l12 12q6 16 8 23q12 25 19 23q31 49 82 100q35 35 100 88l160 108l-8 9l8 6q-10 10 -15 10q-10 27 -4 37l-12 18l6 27l-10 4l-6 59l2 17l-6 29q0 78 47 143q35 49 110 102l2 6q94 49 189 101q125 59 205 59q82 0 129 -59l24 -43q6 -16 6 -25l-8 -14v-55l-12 -23 q-10 -16 -21.5 -30.5t-25.5 -14.5q-8 0 -7 -4t11 -17q-8 -10 -14 -18l-58 -35l10 -4l-28 -18l-27 -11l-8 -18l-23 2q8 -8 11 -6l-43 -16l-13 -23l-24 -12q-8 -14 -20.5 -21.5t-28.5 -11.5l4 -6l-35 -12l6 -7q-14 -12 -22 -16q-25 -16 -33 -16q4 -4 8 -7l-31 -12v-47 q12 -10 13 -41q4 -4 9 -14t5 -29q0 -6 20 -12l2 -6q8 0 9.5 8t1.5 16l6 -2q39 27 83 54.5t85 41.5q12 4 45 6.5t35 8.5h20l31 -4l41 -6q-2 -4 0 -7.5t4 -3.5q47 -10 86 -26q4 -16 88 -49q43 -16 51 -17q27 0 66 17.5t75 42.5l7 2q-14 -14 -21 -23q-14 -16 -14 -24l-25 -5 l-4 -6l-31 -32q-6 4 -9 0.5t-3 -5.5q-14 -4 -29 -8l-45 -26l-36 -23l-9 2q-20 -8 -42.5 -16t-37.5 -23l-22 2h-49q-92 -123 -182 -246q8 -20 51 -83q18 -25 30 -56q-4 0 -6 -6t-2 -8h8l21 6l10 -20l-10 -29q10 -2 14 6t10 4q8 -10 18.5 -18t24.5 -4l19 -13q33 0 69.5 31 t69.5 59q6 -4 12 -6l-12 -16q2 -6 -24 -33q-4 -4 -15 -14q-63 -72 -121 -113q-72 -51 -149 -65v8l-18 -4q-4 -2 -17.5 3t-30.5 11l-20 8l-59 56q4 0 4 10h-11l-26 26l2 7l-21 16v12h-12l-14 29q-150 -98 -156 -103q-86 -51 -170 -77l-6 -4l-4 -2l-31 2l-6 -7h-23l-6 -10 l-28 6h-15l-2 -8l-26 23h-11.5t-3.5 6q-18 2 -35 2l5 6q-27 8 -37 14q-23 12 -11 31l-28 14l10 7q-2 6 -4 8t-6 4q-33 53 -48.5 113.5t-15.5 132.5q4 4 11 30q14 68 16 74zM285 393h8l-8 -12l6 -19l-2 -12l2 -14h-8l8 -14q18 -37 37 -74q0 -31 8 -45l16 2l4 4h15l-6 -16 q0 -16 24 -17l27 8l18 -18l21 -6l4 10h33l-17 -6l23 -4l26 6l-4 10l25 8l4 -8l16 4l8 -6l9 4l-7 2l5 4l6 9l6 -3l37 13l26 18l35 15l-14 2l-10 8l4 35l-4 4l-17 4l-6 28l6 9l-8 8l-14 8v8l-13 23l9 8q-8 10 -13 16q-10 16 -13 23.5t-15.5 38t-14.5 37.5h8l-4 6l-22 41l10 10 l-14 8v10q-10 10 -25.5 50.5t-27.5 74.5l-11 -2l-8 -8l-4 8l-12 -10l4 -2l2 -8h-19l-8 -10l-8 -9l14 2l-8 -4l-4 -10l-10 10l-8 -6v-18l-17 2l-4 -8h-8v-11l-8 -4l2 -14l-6 6q-8 -14 -6 -22q-16 0 -23 -15h-25l-6 -14l15 2q-18 -63 -35 -127l4 -12h-10l-9 -2v-11zM631 1024 v-10l8 -8q8 -12 12 -34t8 -28l13 -2q117 63 176 135q51 61 51 119q0 47 -32.5 75.5t-80.5 28.5q-23 0 -48 -18t-41.5 -37.5t-28.5 -42.5q-18 -31 -25 -39q0 -20 -16 -33l8 -14l2 -26l-4 -11l4 -16l-2 -14l10 -25h-14zM780 584l2 -13l19 -4l8 -10l-8 -4q12 -16 18 -27l-6 -6 l4 -12l14 -4q4 -16 15 -23v-10l8 -4l4 -18l-6 -13l4 -10q53 45 76.5 68.5t34.5 52.5q10 6 27.5 33.5t33.5 40.5v10q-53 31 -106 61q-41 18 -74 19q-53 0 -72 -13l-10 7l-14 -31q10 -37 15 -50.5t21 -29.5z" />
<glyph unicode="'" horiz-adv-x="364" d="M254 913q6 31 25.5 64t31.5 53q72 123 123 199q98 143 168 143l6 -4l35 21l27 4l30 -41q0 -12 -8 -33t-10 -27l-23 -6v-8l-8 -2v-12q2 -8 -11 -24.5t-15 -20.5h-15q0 -20 -8 -35l4 -15l-4 -12l-14 -4l-13 -23l3 -10l-5 -8l-12 -2l-8 -6v-8l-10 -4l4 -21l-4 -18l-15 2 l-12 -15h-10l-4 -26l-6 -8l4 -15l-4 -12h-19l-10 -29q-8 -2 -12 -12l2 -12h-13v-8h-14v-11h-8l-6 4l-43 4l-21 -16l-4 6l-10 -14h-8l-2 -6l-9 12v-10l-14 2q-10 -12 -26 -12q-29 0 -37 28z" />
<glyph unicode="(" horiz-adv-x="923" d="M-35 -254q0 233 62 426q47 147 172 383q6 10 55 88q35 55 45 94h8l90 123l-2 6l19 13q33 45 56.5 73.5t33.5 40.5h8q27 39 66 80q51 49 75 74q145 123 293 248q25 20 37 28q25 18 39 27l18 12q119 86 156 109q90 55 174 80l16 -13l-10 -10q-27 -25 -33 -29l-178 -133 q-33 -27 -67 -49q4 -8 -12.5 -13t-18.5 -5l-25 -25q-29 -25 -22 -35l-31 -6q0 -33 -33 -33q-6 0 -15 -11t-9 -19q0 -18 -25 -19q-6 0 -14 -12t-12 -14l-17 2q2 -6 4 -13l-6 3l-12 4l10 -19l-12 -12q-4 -2 -23.5 -4t-23.5 -10q-6 -10 6 -27q-6 -8 -10 -12q-12 -12 -23 -13 q-18 0 -18 -8l12 -12q0 -6 -10 -11.5t-21 -5.5q-6 0 -4 -16q0 -23 -31 -22l-14 -15h12q-2 -10 -4 -15t-8 1l-37 -27v-28q8 4 19 10l-29 -23q-12 -4 -23 -8l5 -14q-6 -2 -11 -4q18 -6 19 -8q0 -4 -27 -15q-8 -2 -29 -10v10l21 25h-12q-2 -4 -4 -9.5t-11 -0.5l-22 -21 q6 -10 -4.5 -18.5t-10.5 -16.5l13 -2q4 0 6 14.5t6 14.5q37 0 37 -12l-2 -9l-23 -14l-8 -4l-14 -4l10 -25q-23 4 -33 4q2 -4 6 -6v-8h11q0 -6 -2 -12t-7 -15l-26 -2h-29l-8 -10l8 -4q14 0 27.5 -1t5.5 -17q-14 -4 -26.5 -12.5t-20.5 -14.5l-21 -2q4 -6 9 -12q4 2 22 18h8 q4 0 4 -29l-22 11l-2 -11l-43 -4l-19 -18l19 -14q20 0 30.5 12t18.5 12q0 -35 -10 -41q-10 -2 -17.5 -3t-9.5 -15l10 -6q0 -10 -7 -10.5t-13 1.5q-31 0 -31 -8l39 -16q4 -8 -2 -9t-25 -4q6 -2 12.5 -4t6.5 -10l-21 -10q-6 0 -6 15.5t-4 19.5l-43 -6v-9q0 -6 17.5 -6t17.5 -6 h-8l-49 -8q10 -2 18 -7t-2 -16l-23 -6l5 -16l36 10l17 31q8 2 16 -4t12 -15l-4 -16l9 -4h-25l-6 4v-14q8 0 8 -4q-14 -12 -27 -25l15 2l12 -12q0 -8 -16 -8q-27 0 -31 -5l-12 5q-6 0 -7 -25q4 4 9.5 8t11.5 4l10 -10l-10 -12h8l17 4l4 4h8q0 -16 -47 -16t-58 10l-8 -29 q10 8 21 17q10 -2 19 -4.5t13 -6.5l5 -18q20 12 28 12l6 -4q0 -6 -12 -14.5t-14 -12.5l-27 7l-35 -5v-10q0 -2 16.5 -1t16.5 -7q2 -2 7 2t20 2q-4 -6 -4 -8q-6 -12 -7 -16q6 -6 15 -13l-23 -16h-14q2 -29 2 -39q0 -6 -13.5 -6t-15.5 -4l6 -2q-4 -8 -6 -17q6 -2 15 -2 q10 -4 10 -20l-39 -4q-2 -4 -21 -4q-12 0 -12 -13h27q10 -4 20.5 -9t10.5 -9q-12 -2 -26.5 0t-27.5 4q-18 -12 -28 -10v-27q4 0 11 6t11 6q6 0 19.5 -6t13.5 -16q-12 -2 -25 -2l6 -19h-28l-8 17q-14 0 -15 -15q0 -10 15 -10q25 4 30 4q16 0 35 2l-35 -18l-4 -17l27 -6 q0 -23 -2 -34h-17q-2 8 -4 11t-6 -1l23 -21q-10 -8 -19 -14q0 -6 7.5 -6t11.5 -4l-6 -11q-8 -4 -17 -10l-33 -10l39 -2q-2 -2 -12 -8t-6 -17l22 -6l-34 -4v-8l20 -21h10l-22 -12v-26q16 -2 11 -12.5t-15 -24.5l18 -6q4 -4 0 -12.5t-5 -14.5t-1 -16q8 -31 11 -54.5t3 -25.5 q-6 -8 -14 -13.5t-6 -11.5q2 -8 10 -10t14 -4l-14 -13l6 -6q-16 -2 -32.5 -14t-32.5 -29q-10 6 -15 4q-16 -18 -56 -42.5t-58 -24.5l-13 6l-8 -6q-2 8 -2 14q0 8 -11 22.5t-13 16.5l8 4q-10 10 -18.5 41t-8.5 51z" />
<glyph unicode=")" horiz-adv-x="923" d="M-360 -438q43 33 100 100q86 104 90 109.5t23.5 29t44.5 58.5q4 6 7 9t7 5q18 18 29 31q23 27 18 33q182 193 324 374q170 219 272 412l8 8q0 4 2 17q0 10 15.5 23t19.5 20.5t10 17.5l-6 2l14 6l17 33q16 33 33 65q47 117 96 234q53 143 53 246q0 12 -13 33.5t-16 29.5 q16 41 103.5 91t134.5 50v-12q2 -10 6 -22.5t15 -30.5q0 2 2 4q-2 -14 -5 -29q20 -4 25.5 -10t5.5 -26q-4 -4 -12 -6.5t-8 -6.5q0 -39 39 -28l-15 -23l-18 2l-8 -18q0 -14 16 -9l14 -2q8 -10 9 -28q0 -8 -7 -11q-2 2 -2 7l-24 16q-20 -14 -21 -43h9l12 -12h-31 q-8 -10 -14 -21q18 4 33.5 -2t15.5 -20q0 -10 -20.5 -18.5t-24.5 -10.5q0 -8 2 -14q6 4 12 20l10 -22l9 8l10 4l6 2q0 -12 -10 -12t-12.5 -13.5t-3.5 -48.5t-17 -53q-14 4 -16 -6q4 -6 8 -10l-15 -33q-10 6 -12 -2t-6 -19h-14v-10q4 0 14 2l-10 -12l-4 -6q-16 4 -23 2 q-6 -2 -8 -6t-25 -4v-17h31q16 0 23 2l-11 -22l-18 4q-8 0 -25 -12q-4 -4 -16 -15l12 -2q-6 -8 -12 -14l29 -17l4 33q2 6 8 8l12 4l-28 -69q-6 -8 -9 -10q-12 -10 -20 -2l-8 24l-17 -6q0 -20 2 -41l25 8l10 -2q0 -4 -17.5 -17.5t-19.5 -15.5l-28 -4l-2 -28q12 16 24 16v-18 q-23 -23 -37 -23q-4 0 -11 4t-11 2l-17 -20q-8 0 -16 2q0 -8 18 -8q23 2 27 2l6 -4l-22 -15q2 -10 4 -18l-2 -13l-41 -4q8 -8 -3.5 -17t-13.5 -11l13 -11q2 -4 4 -4l4 2l4 -4l-31 -6q0 -6 -22.5 -18.5t-16.5 -28.5l-24 -12l16 2q0 -16 -8 -17q-14 6 -20 7q-8 0 -9 -21l-30 2 l-25 -4q-4 -16 -4 -25l14 -6q23 0 23 17l18 10q29 0 29 -29q0 -12 -38 -20t-38 -25l10 -4l-14 -31q-12 4 -18 -8q2 -8 6 -14q0 -12 -9.5 -19.5t-17.5 -5.5l-35 9l-2 -7q10 -16 17 -22q18 -23 28 -12l-35 -23l-47 4q-6 -4 -4 -13l4 -18h-20v-12q-16 -2 -23 -4l27 -14l8 4 l-6 -6q-18 -14 -27 -4h-32v-17l-11 2l23 -18q0 -14 -8 -13q-16 8 -31 19l-8 -2v-33l6 4l25 -16q0 -8 -8.5 -17.5t-14.5 -5.5v13q-16 0 -15 -6.5t-3.5 -8.5t-15.5 -4t-11 -6l20 -8q10 0 41 14q4 2 17 8l-2 -12l-19 -18q-23 -2 -35 -2t-14 6q-23 -6 -53 2v-10l14 -15v15l33 -9 l-8 -14l4 -10l33 8q-20 -6 -31.5 -10t-11.5 -21l-4 -8l-39 -12l-13 -19l-6 -4q8 -2 8 -6l-22 -2q-8 -2 -30.5 -6t-35.5 -4v-8l19 -9l8 7q4 -18 -16 -25l-27 -6l6 -4l-2 -8q2 -14 7 -13.5t18 17.5l6 -4q0 -18 -15 -19q-6 0 -15 5t-11 5l-12 -8l10 -4q16 -6 16 -16 q0 -6 -16.5 -14.5t-18.5 -14.5l-24 -4l-23 12l-2 -16l-31 -15l52 -6l-11 -8l-30 -10l-6 -10l-37 -13v-8l18 -4l25 12h12l-41 -24h-14q-4 0 -6 -9.5t-5 -19.5l-18 -4l-2 -6l-4 6q-8 0 -15.5 -7t-0.5 -11h16q-14 0 -29 -2l-4 -11l12 -4q0 -4 -12 -4t-12 -4q0 -12 8 -16l-2 -7 h-14q-6 8 -13 17l4 -8v-11h-14l-18 -22q0 -4 16 -6l-2 -10l-33 -11q6 -4 11 -10q0 -8 -34 -11t-36 -3q-8 0 -18.5 -19.5t-18.5 -19.5v8l6 6h-31q-12 -18 -26 -37l-21 -6l-75 -27v11z" />
<glyph unicode="*" horiz-adv-x="892" d="M254 997l20 11l-2 16l7 4h14q10 35 59 51q61 14 84 19l4 -4q10 2 39 5t39 11l-6 16l-12 13l4 12l-2 12l-6 2l-13 11h-10v12q2 6 -2 17.5t-8 21.5l-14 12l-13 -2q4 4 2 9t-8 3l6 17l6 14l21 6q4 8 6 11t4 -1l8 15l8 8q6 14 9 14l6 -2l8 8l4 17h8l15 4l4 6h14v-20l16 2 l7 -13q4 2 10 4l-2 -8q-8 -8 -15 -16l33 -19l-6 -14l21 -12l-3 -8q23 -55 58 -103l-6 -12l12 -10q23 6 37 20h-21l15 19l2 12l22 6l-8 14l21 6l10 17l-4 6l8 16l-4 4q6 6 15 16.5t16 8.5l-5 14l17 7q-6 8 -6 16l4 4h14l10 2l9 25l-5 8q18 12 25 28h10q18 18 29 46l16 4l4 8 l2 -17h15q-6 -20 -16.5 -43.5t-16.5 -35.5l-37 -91l-6 -2l-23 -61q16 8 27 6q16 23 28.5 33t22.5 10l6 8l21 6l2 15q68 39 135 80l17 -2l-3 14l13 -2q-4 -6 1 -8t9 -2l6 -21l-26 -16l2 -8l-15 -2l2 -7q0 -10 -14 -24t-25 -17q-18 -18 -30 -24q4 -8 -19 -19q-70 -31 -71 -32 l-9 -11q-12 -2 -27.5 -9t-27.5 -15q0 -4 -10 -8l-8 -15l6 -4h22l4 -8h25q29 0 62.5 -10t78.5 -27l4 -16q-12 -6 -22 -6l8 -31l-12 2q-10 -16 -17 -14l-16 -25l-14 -4q-8 -12 -15 -25q-25 -14 -30 -22l-21 10l-14 -2l-2 6l-13 -8l-22 23l-27 -9q-25 14 -43 9l-6 10h-18l-6 6 q-6 0 -17 -18q-2 -6 -10 -19q14 -2 22 -18q-4 0 -7 -4.5t-5 -6.5h10q12 -4 17.5 -8t9.5 -15t6 -24l12 -4l-6 -18h11l-2 -29q16 -16 16 -37q0 -8 -11.5 -24.5t-19.5 -28.5l2 -8l-10 -2l-4 -19q-4 -2 -7 -7t-9 -1l-7 -12h-8v-14l-8 2l-6 -11l-10 17q-4 -2 -6.5 -5t-5.5 -3 t-15 37.5t-23 68.5l5 4l-15 49q-12 23 -33 39l-4 -10q-27 -45 -56.5 -90t-68.5 -72l11 -2v-8l-27 -8l-4 -15l-12 -4l-6 -8q-8 6 -13 6l-10 -18q-12 -8 -20 -6l-15 -25l-10 8l6 23l6 12l13 2q2 2 -9 12l9 15l10 -4l-6 12q2 2 2 4t2 10l14 21l12 6v14q10 -4 12.5 8.5l4.5 22.5 l14 4l-2 14q2 -2 6 0t0 7l21 4l-13 12l9 12h20l-4 17q12 8 20 30l-4 17l25 10l6 12q6 18 8 25h15l4 12l-7 6q-117 -94 -231 -188q-6 2 -20.5 -8.5t-18.5 -8.5l17 56l20 4q12 20 29 26v11l22 10l2 10l35 29l10 4q4 16 19 20h14q4 8 9 14.5t12 4.5q20 35 45 39l2 10h-49v10 h-23l-20 -10q-2 6 -11.5 4t-7.5 -8h-18v8l-31 6v-14h-8l-15 -8l-22 12l-62 -6l-6 6l-14 2v14z" />
<glyph unicode="+" horiz-adv-x="1071" d="M209 721l-6 4q16 8 51 14t47 11l29 -2q45 0 125 5t96 5q70 123 141 248q23 2 36 11t24 15l16 6q12 -2 25 -2l20 23l8 -6q18 0 13 16l12 10q6 -8 10 -1t10 7l15 -8l6 -24q-25 -76 -28 -83t-25 -44v-23l-19 -18q-12 0 -12 4l-4 -12l6 -7l-6 -28l-6 4l-15 -23v13l-10 -25 h-10l-15 -10v-13l7 7h14q8 12 12 10l-31 -43q12 -2 24.5 -2h25.5q29 0 98.5 4t73.5 4q55 0 100 -14v-15h8q-6 -14 -12 -24t-12 -8q-6 -16 -11.5 -25.5t-9.5 -7.5q-8 -12 -18 -33q-16 -37 -19 -39l-4 -4q0 -4 -5 -6t-7 -2l-2 10h-33l-4 16q-16 -10 -20 -26q-16 -8 -25 -8 q-10 0 -13 2l-6 4l-6 14q-8 -6 -12 -20q-4 -2 -8 1t-6 5l-6 -6l-5 16h-8l-14 -14l-8 2l-4 -15h-11l5 13l-5 4l-30 -4l-6 14l-23 -18l-14 2q-2 -10 -12.5 -8.5t-4.5 10.5l-32 -13l8 27q-2 -2 -7.5 -4t-13.5 -8l-8 -15q-4 6 -4 13l-6 6l-8 -4v-17l16 -4l-14 -20l-2 -13l-11 27 h-10l-2 -31l12 -16l-8 4q-16 0 -20 -16v-21l-11 2l-14 -12l-6 2l-2 -8l18 -8l-16 -17l-6 21l-8 -21l6 -4l-12 -8l-15 2l-8 -20l18 -29l-16 -17l-2 15h-16q-4 -18 -17 -29l17 -26l-2 -9l-31 6l10 31l-8 6l-2 -22l-6 -2l-4 12l-13 -4l-16 -16l-10 4v-15l6 -10l-21 -4l-4 -12 l-24 -2q-4 -12 -15 -13q-12 12 -20 17l2 -8q-12 -10 -39 -15v8l-23 11q18 49 62 114q94 147 111 187l-5 20h-8l-10 -22l-8 2l-17 -6l-16 20l-14 -10l-6 14l-15 -4l-8 6l-14 -20l-4 6l-17 -19q-4 12 -8 27l-12 -2l-6 -16h-23l-14 10l-29 2l-12 -12v8l-21 -6l-12 14l-2 -8h-16 l-41 12q6 25 43 62q26 28 55 57z" />
<glyph unicode="," horiz-adv-x="518" d="M-221 -213q68 59 133 117q37 53 72 104l20 35q10 18 28.5 55t27 72t18.5 88l16 4l10 -6l7 6l2 12l32 17l17 -8l8 12l10 4l8 -4l11 -19v23l12 -33v47l8 -4q-4 -8 -4 -12l8 -6l4 10v8l4 -8h9l-2 25l4 -4h12v8q4 -2 10 -2l29 -13v-32l8 -15l-4 -20l-6 8l-8 -8l10 -10 q6 -20 -8 -41l-11 10l-2 -8l13 -11q-16 -23 -15 -32l-6 -2l2 -17q0 -10 -18.5 -38.5t-28.5 -39.5l2 -8l-16 -10l-2 -23q-18 -18 -35 -34l-8 2l-2 -19l-11 -2l-6 10l-4 -10l-14 -4l4 -4l-18 -14l4 -23l-27 -20l-20 6l-5 -15h13l-4 -10l-4 4h-13v11l-8 -13l12 -6l-10 -6 l-16 -6l2 -8l-10 2l4 -13l-13 -2l-4 6v9l-6 -19l-8 2l-6 -6l-2 -10h-21v-12l6 -4q-10 -4 -24 -5h-21l-6 -2v-8h-12l-4 6l-8 -12l-11 4q-20 -12 -49 -8v-8q-4 -2 -25.5 -7.5t-29.5 -15.5l-21 2l-8 -12l-35 -2q-16 -14 -38 -14q49 30 98 59z" />
<glyph unicode="-" horiz-adv-x="741" d="M57 555l9 6h8q8 10 36.5 14.5t45.5 6.5h6l8 4l8 2l4 -4q57 0 185.5 8t164.5 8l101 6l6 -2q43 0 57 -12v-10l9 -7v-8l-27 -39v-8l-10 -4q-12 -14 -19.5 -25.5t-13.5 -23.5q0 -18 -6 -27.5t-13 -19.5l-12 -2l-2 10l-29 -2l-28 6l-6 10l-17 -12q0 -14 -14 -22l-16 2l-7 10 l-12 -10l-4 12l-12 -12l-11 -4l-18 -7h-12q-4 6 -1 8.5t5 2.5l-6 36l-19 -22l-8 2l6 16h-12q-16 -12 -27 -14v-18l-4 -4h-8l-4 30h-8l-11 -22h-12l-8 -6q-4 -2 -8 -5l-17 21l-10 2l-6 -10l-12 4l4 12h-8l-9 -6l-14 6l-10 -18l-10 2l-17 -17v13l-12 10l-2 6l-6 -2l-8 -20h-23 l-8 12l-31 -6l-4 4l-10 -4l-8 -6h-17l-20 16l-6 -10h-19q-10 -2 -27.5 1t-17.5 19q14 25 37 49l70 74h-13z" />
<glyph unicode="." horiz-adv-x="518" d="M-88 16q6 33 23.5 60.5t33.5 56.5q51 76 80 107q61 63 113 55l4 4q8 4 29.5 10t23.5 8q8 -4 35 -34l-16 -66l-23 -4q-4 -8 -6 -13t-4 -5l4 -21l-4 -18l-12 2q-8 0 -13 -15h-12q-4 -25 -10 -34l4 -15l-4 -12h-19q-8 -10 -8 -27l-16 -18l4 -8h-13l-2 -11l-10 5l-8 -5l4 -8 l-8 4l-8 -4l-41 8l-21 -14l-4 4l-10 -14h-8l-2 -6l-8 12v-10h-11q-10 -10 -37 -10t-32 28z" />
<glyph unicode="/" horiz-adv-x="802" d="M524 805q39 68 107 184q121 205 172 314l4 4l6 2l14 6q14 6 26.5 12t31.5 6q4 0 9 7.5t19 7.5v10l11 -8v10l14 12l6 -4q4 0 12 10q0 2 2 4q12 -12 15 -10l6 -24q0 -14 -18.5 -56.5t-28.5 -56.5v-23l-17 -18l-14 -2l-4 -6l6 -6q0 -20 -6 -29l-6 2l-14 -20v10l-11 -25 l-10 2q-6 0 -8 -8t-4 -14l6 6l22 10l-26 -45l-4 4l-15 -14l7 -19l-27 -4l18 -16q-6 -10 -10 -8l-18 -35l-6 4l-25 -43l-6 4l-12 -10q0 -4 2 -8q8 4 14 4l4 -15l-10 -10l-4 8t-6 4l-15 -10l-8 -18q-2 -4 3 -8.5t13 -10.5q-8 -6 -10 -8q-10 -10 -6 -18l-10 26h-10l-3 -30 q6 -10 13 -19q-2 8 -8 6l-13 -8q-2 8 -4 17v-9l-8 -10l10 -2l-6 -22q-6 -4 -8 -6.5t-2 -8.5q0 4 -4 8l-10 -26l8 -4l-4 -19q-10 8 -21 19l-4 -25l16 -12q-6 -2 -10 1t-6 5q-8 -14 -12 -14l-4 -25q-4 -2 -15 2v-12l-10 6q6 -12 12 -23l4 5v-9l-36 -8v-24h8v-15q-8 2 -17 2 q-6 -8 -6 -12q-6 -14 -4 -18h-22q-12 -2 -12.5 -5.5t8.5 -3.5v-12q8 -4 10 -6v-14q-6 2 -13 2l-4 -11l-16 7v-29l-16 4q18 -25 18 -33q0 -6 -16 -4q-8 0 -17.5 -9t-15.5 -20l27 -16l-13 -6v-10q-6 -12 -15 -7t-15 9q-23 0 -23 -21q6 2 12 2l11 -10l-17 -20l6 2q2 -12 0 -15 q-18 6 -24 0q-14 -8 -2 -22q2 -4 14 -13l-8 -2q-4 2 -18.5 6.5t-24.5 4.5l-10 -29q14 16 18 14l-10 -26h16q0 -18 -4 -21l-8 10q-6 0 -8 -5t2 -11l8 -2q0 -4 -19 -6l-14 -4l6 -21l-39 -10l-8 -4q0 -12 8.5 -11t12.5 1q8 0 8 -13h-10l-37 -20l4 -4h18v-8l-12 -6l-4 -21 l-35 -23l-14 5l-4 -9q0 -2 26 -2q18 0 19 -12q-8 2 -17 2l-2 -16l-18 -23l6 -22q-6 2 -10 4q-27 0 -27 -8q16 -16 16 -25l-6 -10l-8 4l-6 -21l-23 -14q-4 -2 -8 -6q0 -2 6.5 -3t12.5 -3q-4 -12 -7.5 -14.5t-7.5 -4.5l-8 25q-4 -20 -4 -29h-8q-6 -6 -16 -4l-7 -20l17 -21 q-6 -10 -8 -14h-11l-16 4l-16 -31l16 -24v-9l-35 7l14 28l-8 8l-8 -26l-4 14q-10 0 -18.5 -8t-24.5 -8l-4 -10q0 -4 8 -17q-10 -6 -18 -14l-31 -6l-8 -11q-4 -2 -12.5 6.5l-10.5 10.5q6 -20 -26 -21h-31l-4 15q27 72 94 176q90 137 108 172q27 45 142 225q88 139 141 227 q74 119 135 232z" />
<glyph unicode="0" horiz-adv-x="1073" d="M66 489q4 2 6 4.5t2 12.5q0 12 24 69q16 39 31 68l10 -4q0 82 201 299q164 176 260 248q76 49 152 100q84 47 170 47q4 0 16 -10h12q45 -10 76 -33q23 -16 61 -59v-10q20 -27 27 -58q-2 -6 -2 -12l8 -12l4 -29l4 -4q0 -20 2.5 -41t4.5 -41q0 -43 -17.5 -110.5 t-40.5 -98.5l13 6l-21 -51l-6 -14l-10 -31h-17l-2 -23l4 -8q-23 -14 -14 -26l-10 -27l-4 -10l-15 -13h-8q-4 -4 4 -16h-10l-2 -12h-12q-6 -14 -9 -19q-8 -4 -16 -6v-18q-10 -2 -24.5 -14.5t-24.5 -34.5l-31 -45l-8 2l-27 -27q-18 -18 -30 -27l-4 -18l-19 -6q-8 -16 -46 -46 t-56 -36l-13 -21q-35 -12 -81 -46.5t-68 -65.5l-6 4q-6 -4 -10 -4l-2 -21h-13l-123 -108l-18 -4q4 -6 -8.5 -12.5t-26.5 -12.5l-6 6l-8 -14l-47 -12q-4 4 -17 -4q-10 0 -19 4t-22 -2q-49 16 -74.5 50t-50.5 68q-4 4 -9 11.5t1 11.5l-16 35l14 -2l-18 20l-6 82q0 31 20 125 q10 47 10 72q1 7 11 34zM301 367l-10 -25l10 -27q-6 -43 18.5 -93t67.5 -50q102 0 254 178q127 150 174 262q33 74 52.5 153t19.5 153q0 80 -35 145q-43 82 -115 82q-16 -2 -32 -2q-51 -43 -74 -96l-17 -9v-10l-16 -4l8 -4t4 -10l-16 6q2 -6 -4 -10.5t-12 -1.5l6 -23l-21 -6 l-8 -19l-4 -20l-12 -4l2 -12q-20 -23 -37 -48q-29 -43 -55 -86l-15 -12q-6 4 -24 -8l4 -12l12 -6l-31 -50l-6 4q-4 -16 -7 -29.5t-13 -29.5h-9v-14l-14 -13l10 -8q-10 -10 -16 -32.5t-8 -32.5q-6 4 -8 -3.5t4 -9.5l-6 -38q-4 0 -12.5 -8.5t-10.5 -12.5l14 -20 q-2 -8 -5 -23.5t-5 -32.5h-16v-16z" />
<glyph unicode="1" horiz-adv-x="780" d="M131 393q20 -4 21 8q-6 8 -11 11q100 113 232 303q115 166 205 321q0 18 -7 25h-22v-8l-23 -11l-10 7l-24 -7q4 -6 -6.5 -10t-16.5 0l-27 -16l-2 -8q-27 -8 -51 -17.5t-33 -23.5q-8 -4 -14 -9q-14 25 -18 54l16 37q55 63 263 172.5t292 124.5l47 -21l14 -29 q-2 -12 -10 -28q-14 -25 -26 -49l-15 -5q-4 -37 -33 -61l2 -6l-30 -57q-10 8 -23 -17l-6 -12l-12 2q-6 -2 -11.5 -6t-0.5 -10l28 -9q-16 -18 -41 -22l13 -21l-25 -12l-18 6l-17 -22l49 -6v-9l-30 -4l4 -18q-4 2 -19 -12q-6 -8 -10 -17l-33 -10l6 -23l13 -8l-4 -4l-27 -2 q-6 -14 2 -21.5t8 -13.5l-18 -8q-4 -4 -1 -6t7 -2q0 -25 -21 -21v9l-34 -23q23 2 34 2q8 0 9 -22q0 -14 -25 -22.5t-39 -2.5l-31 -35l27 8l23 -16q-8 -8 -22.5 -21.5t-14.5 -21.5q0 -6 -19.5 -10t-32.5 -4l-4 -5l31 -26l-12 -14l-6 4v-15q-14 -14 -15 -22l-16 -2q4 -6 8 -13 l-6 -18q-25 -8 -37 -27.5t-24 -38.5q6 -2 8 -7t4 -7l-17 4q-6 0 -8 -8t0 -14l-12 -17l2 -18l-10 -4l-12 -33q-23 -14 -23 -20q4 -8 4 -15q0 -2 -14 -10q0 -8 2 -14l-25 -21l2 -8q-14 -12 -26.5 -29.5t-18.5 -27.5l6 -7l-8 -20l-16 -6l4 -8q-2 -10 -12 -25q-33 -43 -33 -45 l6 -16l-14 -29l-7 4l5 10q-20 16 -41 23q-14 -6 -58 -37q-23 -16 -35 -21l2 -10l-10 4l-24 -8q-8 -4 -15 -8l-80 -18l-32 16l-13 27q45 139 125 247q0 2 33 54.5t41 68.5z" />
<glyph unicode="2" horiz-adv-x="1062" d="M-127 106q14 29 32.5 54.5t35.5 52.5l12 16q10 14 20 27l27 27l96 96q223 199 467 360l15 11q102 78 163 139q113 113 113 182q0 53 -31.5 84t-85.5 31q-47 0 -96 -21q-16 -6 -53 -28q-35 -27 -35 -29q2 -10 2 -21q0 -20 -7 -51.5t-16 -46.5l3 -8q-18 4 -21 6l-18 -12 l-7 2q-12 -20 -6 -37q-8 -8 -13 -2t-5 10q-6 0 -6 -6v-16l-13 -4l-36 -17q2 2 -2.5 6t-8.5 0l-24 -16q-12 4 -17 6q-18 8 -20 6l-16 33q113 156 276 270q188 131 354 131q14 0 43 -14t43 -14q8 0 19 6l28 -21l23 -18l-6 -14l20 -11l4 -18h9q4 -27 8 -51q0 -49 -4 -64.5 t-29 -77.5l-31 -8q4 -6 11 -10q-29 -47 -58 -92l-51 -27q-2 -4 4 -20q-31 -12 -37 -39q-8 4 -43 -31q-43 -43 -49 -47h-10q-18 -12 -37 -39l2 -18h-18q-8 -2 -17 -4l-10 -2l-29 -37h21q-2 -6 -15.5 -8.5t-23.5 -4.5l-27 -28l23 -8q-16 -4 -38 -8.5t-34 -6.5v-20h33 q4 -10 -21 -23q-16 -6 -18 -6q2 2 -2 6t-12 4t-14.5 -14t-4.5 -23q-33 0 -69 -20l2 -10l-60 -29q-14 -20 -28 -18l-35 -43l6 4h29l-21 -15q-2 4 -6 4q-2 -4 -4 -6l-29 4l-14 -26h18l13 4l-19 -14q-4 -2 -14 6q-4 -2 -8 -2l4 -19l-2 -10q-20 0 -39 -12q-2 0 -33 -27l4 -14 l-16 -8l-4 6h-21l-4 -4q0 -8 6 -12.5t12 -0.5l-26 -32q-25 0 -47 -13q16 -6 32 -10l312 53l18 -14l8 12q8 4 56.5 8t50.5 7h29q4 -6 20 2q10 0 37 -11l6 9h23l53 -13l16 -37h-10q-6 -23 -19 -22q-8 0 -8 -6v-17l-16 4l-29 -10q-20 -29 -22 -32t-8 -23l-13 4l4 -14 q-14 -2 -30.5 -13.5t-34.5 -23.5l-74 -17l-4 9l-21 -7l-8 -4q4 8 4 13q-6 -4 -14 -4l-100 -7l-4 -8q-6 -4 -11.5 6.5t-7.5 10.5l-18 -19q-8 4 -15.5 2t-5.5 -12l-28 8q-23 0 -51.5 -8t-36.5 -16q-4 4 -7 10q-2 0 -8 2l-16 -6l-33 -17l-20 8l-21 -12q0 -6 10 -18l4 -4h-32 q-8 8 -4 14l-13 -18h-14l-12 6l-37 -8l-8 -13h-48q-2 4 0.5 8.5t4.5 4.5h-19q-20 -20 -29 -21q-31 0 -67.5 27.5t-44.5 56.5q6 -2 6 7t-8 9z" />
<glyph unicode="3" horiz-adv-x="923" d="M242 629l16 18l68 41l4 -24q-16 -20 -37 -50t-39 -63q-16 -20 -43 -76.5t-18 -66.5l-17 -19l4 -18q-2 -29 -2 -43q0 -20 4 -37t19 -31l14 -33q41 -41 54.5 -49t35.5 -8q63 0 107 29q53 35 108 143q25 59 40 111.5t15 105.5q0 215 -213 215q20 37 134 98q96 53 96 132 q0 55 -36 88.5t-89 33.5q-49 0 -111 -36q-88 -53 -100 -58l-18 8l-9 21q25 53 215.5 144t257.5 91q57 0 106.5 -29.5t49.5 -84.5q0 -72 -44 -146.5t-103 -107.5l-6 -13q-29 -12 -43 -24l63 -37l16 -16q27 -25 25 -35q18 -12 22 -35q10 -12 17 -8q2 -18 13 -50t11 -42l-6 2 l-4 8l-6 -4l12 -17l6 -6l3 -12q2 -14 -5.5 -36.5t-13.5 -43.5l14 -4q-12 -25 -12 -31l4 -18l-24 -43l2 -10l-8 -2l-7 -25l-18 -14v-17q-31 4 -31 -33q-14 -10 -18 -10v-18l-4 4l-17 -2v-25q-4 2 -8 0t-6 -4h-31l8 -12l-8 -2l-4 -17q-14 -4 -29 -6q4 -4 5 -14l-2 -8l-27 -8 l-27 -7q-10 -12 -30.5 -25t-36.5 -20q-102 -72 -162 -112q-111 -76 -174 -76l-14 2l-41 8q-76 25 -117 86.5t-41 139.5q0 119 94 225q37 43 186 164z" />
<glyph unicode="4" horiz-adv-x="1011" d="M870 1331q6 -6 31 -1t31 5q37 0 72 -22l20 -33l-2 -33v-24q0 -10 -6 -21q6 -23 -19 -41l4 -16l-14 -8l2 -19h-8q-6 0 -6 -6v-14q0 -6 -13.5 -33t-15.5 -39l-18 -12q-2 -4 4 -8.5t4 -10.5l-41 -43q-2 -16 -2 -30q-27 -18 -37 -19q2 -6 10 -16q2 -2 4 -2l-14 -25l-16 4 l-15 -18q2 -2 10.5 -2t8.5 -15h-17l-8 -4h10q0 -8 -9 -10t-19 -4l-8 -4l10 -19q6 -6 10 1.5t6 7.5l2 -9l-10 -14l-23 -14l15 4l-10 -31h8q10 0 47 4t43 8l20 -6q4 2 50.5 8.5t60.5 6.5q33 0 68 -21l8 -14l-21 -23v-20h-16q-6 -18 -65.5 -62.5t-73.5 -38.5q-25 -14 -46.5 -20 t-35.5 -6q-25 2 -39 2t-37 -6q-2 -10 -25.5 -3t-42.5 13l4 -20q-27 -20 -45 -66h-24q-2 -6 8 -10t6 -13l-27 -20l3 -18l-29 -25q0 -8 12 -16q-14 -12 -26 -23l-17 -8l-2 -29q-12 -4 -17 -7t-22 -15v-11l25 -2l-6 -24q-6 -2 -9.5 1t-3.5 5q-8 0 -8 -16h-15t-7 -11l14 -4 q6 -4 9 1t9 3l-26 -16q8 -10 8 -25l-16 4l-9 -18l2 -10h-16l-8 -2l-4 -17l14 -8q-4 -16 -7 -20t-9 2q-10 -31 -24.5 -44.5t-49.5 -27.5l2 -16q0 -6 -10 -13q-2 0 -25 -2l-4 -8q-23 -6 -80 -32.5t-80 -26.5q-29 8 -39 10l25 76q10 29 23 53q41 80 43 88l10 -4v12q18 45 41 88 q10 23 49 88q4 0 8 3.5t0 7.5q23 37 27 47t35 76l-23 4l-86 -33l-12 -6v8l-17 2l-16 -27q-8 10 -2 17h-37v-13l-14 5h-25l-22 8l-33 -13q-6 -2 -9 3.5t1 9.5l-62 10q-14 14 -23.5 30.5t-19.5 41.5q37 82 180 227q117 117 283 258q135 115 246 197q61 51 90.5 73.5t62.5 36.5 zM264 670q66 0 151 11t117 15q84 133 130 213q84 147 83 207v10q-6 14 -8 19h-10l-8 -19q-33 -12 -61.5 -40.5l-55.5 -55.5h-14q-14 -37 -45 -37l-8 -18q-14 -16 -35 -33.5t-33 -21.5v-11q-6 -8 -25 -12q-4 -23 -24 -27l2 -10l-12 -8l-13 2v-8l-4 -8q-14 -10 -23.5 -17.5 t-15.5 -19.5q-14 -4 -36.5 -35t-41.5 -35l-4 -4v-8q0 -4 -6 -18.5t-6 -26.5z" />
<glyph unicode="5" horiz-adv-x="999" d="M377 645h8q25 0 27 -6q-6 -18 -60.5 -90t-70.5 -82q-2 -16 -11.5 -38.5t-11.5 -31.5h-10q-14 -16 -15 -51q2 -29 3 -43q0 -70 24 -119q33 -63 98 -63q12 0 28.5 3t25.5 5l6 -6q125 82 193.5 210t68.5 281q0 70 -27 123q-35 70 -98 70t-125 -31q-168 -84 -178 -86 q-27 6 -43 27q14 88 74 196q51 92 102 187q-6 -6 -23 -6v10l-12 14h-8l25 39l8 2q18 23 47 52.5t55 58.5l4 4q55 16 130 26.5t116 16.5l4 -4q29 10 133.5 19t157.5 9q16 0 60 -4t48 -4q10 -2 19.5 -4t26.5 -12q-8 -16 -35 -33l-8 -16h-13l-12 -21q-10 -6 -21 -12 q-8 0 -29.5 -15.5t-33.5 -25.5t-27.5 -21.5t-29.5 -19.5l-25 2q-68 0 -184.5 -14.5t-153.5 -34.5h12q0 -8 -8 -6t-10 4q-4 -12 -17.5 -42t-13.5 -46l-12 -6l2 -19l-12 -4l-4 6l-9 -2v-20q-10 -4 -8 -14.5t11 -4.5l6 -22l-29 -33q-6 -2 -10 -4v-6l6 -4q53 25 108 51 q61 25 119 24q53 0 70 -18q2 4 14 -2h4q31 -23 43 -37q20 -23 27 -51l10 -6l4 -29q2 -14 4 -38.5t4 -39.5l-8 -2v-39h-10l8 -53q-4 -4 -12 -20.5t0 -18.5l-6 -20l-19 4l15 -33l-4 -4q-6 -2 -7 -21h-12l2 -20q-6 -4 -10 -6q-2 -12 -4 -23q-4 -4 -10.5 0t-14.5 11v-21h13 l-25 -43h-8q-6 -8 4 -12l-33 -64l-14 -16q-10 -12 -72 -68q-31 -31 -39 -37q-80 -74 -157 -135q-53 -41 -166 -123l-50 -18l-63 -16q-2 6 -8 8t-8 2q-6 0 -27 -10q2 8 -13.5 10t-25.5 4q-39 25 -69.5 67.5t-30.5 85.5q0 12 2 19l-8 8q29 158 122 289q87 119 230 223z M553 1014v10l-6 6l-8 -6l2 -8z" />
<glyph unicode="6" horiz-adv-x="954" d="M205 799q14 18 43 57q20 29 22 33l47 55q123 123 263 227q184 137 297 156q80 2 136 -40t56 -142l2 -25l-29 -57h-10l-8 -16l-16 -13l-4 -14l-35 -29h-8q-29 -16 -50 -39h-8q-10 -12 -30.5 -30.5t-34.5 -24.5l-11 8q49 45 50 103q0 59 -44.5 99t-107.5 40 q-55 0 -149.5 -82t-98.5 -131q-4 14 -8 14l-10 -18l2 -10q4 -2 8 2l6 6v-8q-16 -12 -8 -29l-18 8q2 -10 6 -20l-29 -39l14 -6l-12 -11l-4 8l-12 -4l6 -30l-4 -6l-15 8l-14 -4l6 -25l15 -6q0 -6 -21 -8q-2 -6 -4 -8.5t-6 -4.5l-8 -26l16 -6l84 61q10 6 8 10l19 4q14 6 16 9 l8 6q29 18 66 31.5t67 13.5l47 -4l9 -21q4 6 8 13h22q14 -4 10 -10.5t-12 -12.5l4 -14l23 10q-2 -4 4 -10v22l20 -20l7 -6q-4 0 -5 -5h9l12 9q14 -20 10 -35l19 10l-2 -18q0 -14 2 -17q4 4 8 11q12 -12 14 -34t4 -42l10 4q-8 -31 -4 -47l-18 -11v-8l18 -4l7 4l-7 -10 l-12 -22l-24 -84v-13l-7 -16l-14 -16q-6 -4 -8 0t-2 6v-17q-27 -27 -42.5 -42t-31.5 -42q-12 -12 -25.5 -24.5t-23.5 -16.5l-4 -6q-2 -2 -17.5 -18.5t-25.5 -26.5t-23 -22l-16 -31q-12 0 -12 -8l-13 -4q-37 -41 -108 -99q-59 -47 -117 -92l-10 4q-33 -16 -55.5 -20t-61.5 -4 h-10q-14 6 -19 8q-68 49 -100.5 141t-32.5 182q0 96 28 212t75 190q6 10 30 43q4 6 13 16zM313 332h11l2 -8l6 -7h-21l6 -16h11l12 -8l-6 -8v-11l-8 -6q6 -10 15 -17t19 -13v-17l5 -6l10 -2l6 -12l25 -4l4 -4l22 6l8 -9q4 20 29 27l6 -4l8 8q72 41 116 125t44 172 q0 76 -43 128t-119 52q-41 0 -90 -26q-33 -16 -37 -35l-12 -29v13h-8v-19h12l-4 -10h-8l-2 -12l8 -13l-6 -12l-8 4l-7 -14l3 -10l12 -11l-8 -12l2 -12l-15 -2l4 -23q0 -8 -2 -14q-8 -25 -8 -29h12l-10 -14q-2 -18 4 -43l-10 -4l-2 -21z" />
<glyph unicode="7" horiz-adv-x="937" d="M102 254q8 16 9 35l22 6q4 2 2 11t-2 16q4 -4 8 -9l6 19q12 -4 12.5 3t-1.5 17l14 -2l29 49l10 4q12 25 27 52h18l20 28l31 54l10 -5l5 19q4 -2 12 9t8 20q14 0 16 2q0 27 26 52t50 48l23 23l20 32q6 -2 13.5 2t3.5 11l14 14q4 6 8 4l8 18q23 6 24 13.5t1 9.5q0 8 10 12 l8 -4l19 31l12 10q2 2 3 7t3 14l6 -5q49 47 111.5 116t99.5 124l-35 2q-27 0 -40 -4t-19 -6l-2 -6l-6 10l-8 -8l-37 -4q-8 -2 -15 -2l-61 -17l-16 6q-23 0 -70 -4t-74 -4l-6 4q-12 -8 -53 -11t-82 -3q-14 0 -34.5 8t-33.5 12q31 41 78 93q74 80 82 90l94 -4q68 0 150 8 t127 12l8 -6l25 10l12 -4l20 8l15 -4l51 17l6 -15l2 17l12 2l7 -8q8 -2 17 1t3 11q14 0 45 6t49 6l23 2h12l20 4l58 -4v-10h14l23 -21h10l10 -26l-24 -35l-4 -8q-12 -4 -17 0l-8 -35q4 -2 10 2v2l-33 -49q-8 4 -16 4l-6 -6l6 -23l-23 -18q-10 -29 -32 -47q-63 -53 -68 -60 q-8 2 -10 -10q-68 -57 -133 -112l4 -23l-23 -4q-12 -10 -22 -23.5t-23 -33.5l-47 6v-13l8 -6l27 2l-14 -14q-12 -16 -9 -20l-26 -17l-12 -31h-19l-6 -24h-14l-9 -43l-34 -10l8 -17l-17 -16l-32 -10q6 -16 6 -25h-25h-18q4 -6 14 -11t8 -9q-33 -18 -37 -62q-14 -8 -20 -4v-29 q-4 4 -11 -2t-1 -10q-20 -12 -31.5 -39t-22.5 -51q-25 -25 -38 -39t-46 -70q-14 -25 -32 -45q-8 -16 -13 -24q-12 -25 -16 -31l-29 -14l-2 -25l-14 -4l-23 29q-27 -18 -49 -52l-18 3l-8 -17q-59 -33 -119 -63l-49 -4q-10 0 -21.5 7t-19.5 17q0 37 57 129q49 80 86 121z" />
<glyph unicode="8" horiz-adv-x="917" d="M-2 281l4 4q0 41 35 106.5t72 85.5q10 41 127 137q20 18 161 123q-6 6 -53 47q-35 31 -45 50q-14 16 -24.5 45.5t-10.5 50.5v47q2 4 14.5 31.5t22.5 56.5l8 4q12 23 39 49q16 16 47 41q47 37 97 58q16 8 16 12q31 10 80 47t65.5 42t40.5 13q51 0 75 -3t60 -15l5 -8h18 l22 -29q6 8 13 4q10 -18 20.5 -42t10.5 -36q0 -70 -33 -123q-49 -61 -74 -100h-12q-14 -18 -23 -27q-16 -18 -22 -14q-10 -20 -31 -27q-8 -14 -16 -26l-29 -13l-16 -32q63 -55 73 -66q29 -29 35 -45q10 8 22.5 -17.5t12.5 -56.5l14 -4l10 -33l-10 -20l12 4q6 0 4.5 -10 t-12.5 -6l-2 -21l19 -10q-23 -61 -27 -72q-14 -35 -41 -69l6 -4h-10q-16 -35 -45 -52l-6 -16l-21 -16q4 4 0 9t-10 3q-4 -25 -49 -59q-35 -27 -68 -52l-4 4q-29 -47 -119 -110q-68 -47 -135 -94h-8q-29 -20 -57.5 -32.5t-55.5 -12.5q-53 0 -77.5 3t-53.5 21q0 2 -4 11.5 t-12 2.5l-18 35l-25 39q10 -4 14 -4l-10 27l-8 -6l-6 8l2 24q0 2 -2 7q10 8 10 12q-4 6 -4 10h-16q6 47 8 62.5t10 46.5zM221 270l-8 -28l16 -15q0 -20 16.5 -38.5t24.5 -30.5q33 -8 49 -8q100 0 190.5 113.5t90.5 219.5q0 63 -37 127t-94 76l-12 -22q-2 -2 -18.5 -4.5 t-24.5 -18.5l4 -4q-8 0 -23 -8q-25 -16 -49 -31v-20q-20 -4 -34.5 -22.5t-14.5 -41.5h-8q-8 -20 -19 -31l-6 6h-14l6 -24l-4 -16l-21 -3q-12 -25 -12 -53l10 31l7 4h12l-17 -16v-29h-12l2 -12q0 -18 -3 -42t-5 -36q4 -13 8 -23zM588 891q68 63 88 103t20 85q0 37 -11 61.5 t-40 39.5q-12 6 -23.5 10t-15.5 4q-35 0 -43 2q-27 -29 -44 -63.5t-17 -69.5q0 -41 5 -59.5t15 -47.5q16 -18 33 -36.5t33 -28.5z" />
<glyph unicode="9" horiz-adv-x="935" d="M279 481l6 -16q-39 -59 -54 -84q-27 -43 -26 -100q0 -49 28.5 -91.5t77.5 -42.5q53 0 119 68q49 49 86 115q57 106 97 208.5t67 215.5q-74 -61 -148 -123h-12q-37 -33 -88 -68t-94 -51l-8 6q-2 0 -26.5 -10t-39.5 -10q-55 0 -83.5 41t-24.5 96l-13 18v60h11l-7 28l15 19 v14q0 80 102 205q94 115 174 162q25 14 129 86q139 96 234 96q20 0 39 -8q2 -2 34 -21q29 -29 34 -37t12 -14q8 -33 14 -59.5t2 -38.5h20q-14 -43 -14 -53q8 -18 8 -58q-12 -10 -14 -8v-22q10 6 12 -5q-6 -4 -12 -6l-10 11l-15 -3l31 -22l-4 -45q-6 2 -9 -5t-3 -9l24 -15 l-14 -4l-6 8q-8 0 -5 -7t7 -5q-4 -16 -6 -29.5t-11 -29.5l11 -25q-23 -16 -33 -43l6 -10l19 -19l-27 -20l-19 -53l-10 -2v-25l-10 -4l12 -23q-29 -25 -45 -61l-8 -2v-31l-16 2q2 -4 2 -10l-6 -25q-10 4 -11.5 1t-1.5 -19t-9 -30.5t-21 -10.5l-13 -20h-12l2 -23l-33 -20 l4 -19q-6 -2 -12 0t-8 4l2 -10q-20 -18 -39 -47q-10 6 -18 6v-14q-16 -10 -31 -22.5t-19 -16.5h-10q-6 4 -4 10l-16 -37q-35 -16 -195 -139q-115 -88 -227 -88q-47 0 -86 59.5t-39 108.5q0 80 76 157q27 27 141 117q2 8 7 14.5t11 0.5q17 16 50 32zM367 803l12 -8l-8 -15 q0 -10 4 -34.5t8 -34.5l6 -11q8 -2 23.5 -19t36.5 -17q33 0 105.5 43t104.5 75l5 4q27 20 35 80t8 127q0 66 -17 117q-25 80 -76 80q-10 0 -32 -16q-12 -8 -31 -25l-6 -2l-72 -76q-10 -18 -20 -22l-4 -7q-8 -20 -25.5 -50.5t-32.5 -53.5l2 -23l-8 -20l-18 -4v-12l14 -2 l2 -31h-12l-9 -6l-2 -6q11 -19 7 -31z" />
<glyph unicode=":" horiz-adv-x="518" d="M-88 16q6 33 23.5 60.5t33.5 56.5q51 76 80 107q61 63 113 55l4 4q8 4 29.5 10t23.5 8q8 -4 35 -34l-16 -66l-23 -4q-4 -8 -6 -13t-4 -5l4 -21l-4 -18l-12 2q-8 0 -13 -15h-12q-4 -25 -10 -34l4 -15l-4 -12h-19q-8 -10 -8 -27l-16 -18l4 -8h-13l-2 -11l-10 5l-8 -5l4 -8 l-8 4l-8 -4l-41 8l-21 -14l-4 4l-10 -14h-8l-2 -6l-8 12v-10h-11q-10 -10 -37 -10t-32 28zM287 702q2 12 49 78t51 70q39 53 57 70q37 35 82 38l11 -6q4 6 16 13q27 12 39 12q10 0 17 -10.5t16 -20.5v-8q0 -25 -13 -43l-4 -21q-23 0 -25.5 -9t-2.5 -38l-2 -14l-13 4l-12 -14 l-14 -2q0 -10 -1 -19.5t-8 -13.5l5 -14q0 -18 -25 -15l-8 -24l-15 -19l5 -8l-15 -8h-10l-4 -6l-6 -6l-6 4q-14 2 -28.5 3t-19.5 3l-6 -6l-6 -4l-4 -6l-6 6l-12 -17l-9 -4l-8 10v-10l-10 2l-8 -8l-27 -2q-33 0 -33 29q9 7 13 34z" />
<glyph unicode=";" horiz-adv-x="653" d="M356 678l-2 16q0 14 75 121t91 113q31 14 46.5 20t29.5 10l6 -6l4 9l35 12l4 -4l17 8q6 0 18 -13.5t16 -17.5v-8q0 -27 -14 -43v-8l-2 -13l-8 3q-16 0 -19.5 -15.5t-3.5 -36.5l-2 -12l-14 4q-8 -12 -25 -18l-6 -31l2 -10l-4 -19h-20l-9 -26l-14 -11l4 -14l-12 -6l-12 -2 l-7 -4l5 -8h-9l-8 4q-8 0 -24.5 2t-20.5 2l-6 -4l-6 -4l-4 -6l-6 6l-13 -17h-8l-2 -6l-2 10l-6 -10l-12 4q-6 -10 -23 -10q-41 0 -41 29zM-154 -213q68 59 134 117q37 53 71 104l21 35q10 18 28.5 55t26.5 72t18 88l17 4l10 -6l6 6l2 12l33 17l16 -8l9 12l10 4l8 -4l10 -19 v23l13 -33v47l8 -4q-4 -8 -4 -12l8 -6l4 10v8l4 -8h8l-2 25l4 -4h13v8q4 -2 10 -2l28 -13v-32l9 -15l-4 -20l-7 8l-8 -8l10 -10q6 -20 -8 -41l-10 10l-2 -8l12 -11q-16 -23 -14 -32l-6 -2l2 -17q0 -10 -18.5 -38.5t-28.5 -39.5l2 -8l-17 -10l-2 -23l-34 -34l-9 2l-2 -19 l-10 -2l-6 10l-4 -10l-15 -4l5 -4l-19 -14l4 -23l-26 -20l-21 6l-4 -15h12l-4 -10l-4 4h-12v11l-8 -13l12 -6l-10 -6l-17 -6l2 -8l-10 2l4 -13l-12 -2l-4 6v9l-6 -19l-9 2l-6 -6l-2 -10h-20v-12l6 -4q-10 -4 -25 -5h-20l-6 -2v-8h-13l-4 6l-8 -12l-10 4q-20 -12 -49 -8v-8 q-4 -2 -25.5 -7.5t-30.5 -15.5l-20 2l-8 -12l-35 -2q-16 -14 -39 -14q49 30 98 59z" />
<glyph unicode="&#x3c;" horiz-adv-x="1101" d="M80 764q4 4 10 4t14 2q96 39 195 78q10 4 31.5 17.5t31.5 15.5q20 4 31 8q2 6 4 10l47 25q41 20 117 59q39 20 49 31q63 43 76 49q31 23 74 45l2 -8l16 2q2 -12 8.5 -11t6.5 -6l22 -12q6 0 8 -8l6 -6q6 -6 7 -2l14 -8q10 -18 14 -35l6 -4q-6 -8 -15 -30t-13 -28 q-18 -20 -66.5 -62t-62.5 -59l-41 -22l-10 -14q-70 -39 -80 -47l-4 8l-13 -13l-18 -16l-4 2l-8 -10q-2 8 -11 10l-12 -18q-4 -6 -10 -7.5t-13 -3.5l-6 7q-2 0 -2 -7.5v-9.5l-6 10l-12 -20q-8 6 -10 2l-9 4l-6 -12h-6t-4 6l-29 -18l4 -7q106 -31 179 -51q35 -10 180 -61 q51 -25 90 -41q74 -31 78 -23q23 -27 43 -43q27 -25 43 -35q6 -4 6 -8q12 -18 14 -26t3 -25.5t3 -26.5l-8 -12q2 -4 1 -8t-3 -8q-8 -6 -28.5 -4t-24.5 -2l-6 8q-8 8 -15 14l-18 8l-8 -4h-2l-15 19l-12 -4v8q-2 2 -8 5t-6 -1q-4 12 -14.5 18t-18.5 6q-2 -4 -4 -3t-4 10 q-4 8 -23.5 15t-23.5 5l-4 10l-13 -6l-10 17q-4 -6 -15 1t-14 3l-14 14q0 -8 -4 -12v10q-2 6 -31 16q-10 4 -34 15l-7 -9l-28 17l-4 12q-2 -12 -5 -10l-14 6q-6 -4 -10 -4t-2 12h-14v4q-8 4 -9 6q-10 -6 -21 -7t-20 9q0 -8 -4 -6t-4 6q-16 2 -24 9q-2 -6 -4.5 -5t-2.5 7 l-20 2l-4 6l-10 -10l-6 18v-12q-10 6 -15.5 4t-11.5 11t-10 3l4 -18l-13 4l-10 22l-10 -10q-6 4 -10 4q0 4 -4 6l-17 -2q-10 6 -12 0q-14 2 -27 21l-4 -6l6 -15l-4 2l-2 7h-11t-13 8l-29 10l-5 5q-5 5 -7 -1q2 -8 6 -16q-4 2 -31 26l-4 -14q-10 8 -24.5 8t-24.5 -6 q2 10 -2 10h-8q-2 2 0 19l-9 10h-12l-6 12l-23 6l3 23q-2 0 -3.5 9t-5.5 9l-6 -8l-2 12l-8 -2l-10 21q0 10 -4 20q-2 0 -4 2l-3 27q-4 2 -6 9t-2 12q13 0 25 16z" />
<glyph unicode="=" horiz-adv-x="1071" d="M121 565q0 6 34.5 13.5t61.5 13.5l25 -2q37 0 63 2q135 10 139 10q33 0 45 -6q16 6 37 6q16 0 31 -2l8 6q12 -2 37 -2q29 0 57.5 2t57.5 4q31 -2 50 -3t24 1l6 -4l98 6q43 0 51 -2t37 -12v-14h8l-14 -31l-12 -4l-2 -21q-16 -12 -32 -39.5t-22 -42.5l-6 -10h-10l-2 8h-33 v15l-4 4q-14 -8 -20 -29l-17 -8l-8 2l-10 10l-8 -6q2 4 -2.5 9t-10.5 3l-8 -16l-16 4l-4 -6l2 10l-13 6l-12 -14l-8 2l-8 -16l-9 4l5 14l-35 -4l-8 14l-23 -18l-16 2l-2 -10h-11v12h-16l-14 -12l6 26l-35 -28l2 12l-14 14l-11 -8l-2 10l-10 2l-6 -28l-2 18q-6 -2 -12 -2 l-17 12l-18 -24l-27 -2l8 8l-12 4v8l12 8v13h-16l-14 -19v17h-19l-10 -15l-10 -4v-10q-4 -4 -8 -6l-5 29l-12 2l-6 -25l-12 2l-15 -8l-18 22l-8 -10h-8v14l-17 -6l-8 6l-12 -18l-10 6l-11 -18v10l-10 6v10h-10l-8 -18h-23l-4 8h-39l-4 -4q-4 -2 -6 2l-23 -4l-12 18l-6 -14 q-35 0 -53 21q12 23 45 57l53 53zM190 766q10 20 43 55l56 56l-4 4l14 4q12 6 35.5 11t46.5 9l20 -2q39 0 119 6t119 6l12 -6q10 6 31 6q25 -2 39 -2l6 7l225 4l13 -4l135 6l47 -15l-2 -10l8 -6l-14 -23v-8l-13 -10l2 -12q-20 -12 -34.5 -36t-26.5 -56l-12 -2l-4 10l-27 -2 l-4 16l-23 -12q0 -12 -14 -21h-12l-6 11l-13 -7v13l-10 2l-10 -19l-12 4l-7 -6l2 11l-8 8l-6 -11l-20 -4l-4 -12l-11 2l4 12l-36 -2l-7 13l-22 -19l-14 2l-7 -8h-8l-4 12q-20 -4 -31 -14l9 29l-27 -27l-6 14l-12 11l-7 -4l-6 4l-10 4l-6 -29h-8l6 19l-6 6l-6 -11l-17 17 l-16 -27q-8 2 -33 -2l8 6l-8 6l-2 9l10 4l4 12l-18 2l-4 -8l-8 -8h-9l4 14l-24 -12h-10l-13 -23v31h-10l-8 -25l-10 4l-17 -10l-18 27l-10 -15l-9 5l2 10l-4 4l-12 -6l-12 4l-8 -17l-9 3l-10 -15l-14 25l-19 -19l-18 -2q-14 12 -39 13l-12 -11l-8 4l-21 -2l-8 17l-8 -13 q-29 0 -54 13v8z" />
<glyph unicode="&#x3e;" horiz-adv-x="1138" d="M1018 764q12 -16 24 -16q0 -4 -2 -11.5t-6 -9.5l-2 -27q-2 -2 -4 -2q-4 -10 -4 -20l-10 -21l-8 2l-2 -12l-7 8q-4 0 -5 -9t-3 -9l2 -23l-22 -6l-6 -12h-13l-8 -10q2 -16 0 -19h-8t-2 -10q-10 6 -24.5 6t-24.5 -8l-4 14q-27 -25 -31 -26q4 8 6 16q-2 6 -7 1l-5 -5l-29 -10 q-2 -8 -13 -8h-12l-2 -7l-4 -2l6 15l-4 6q-12 -18 -26 -21q-2 6 -13 0l-16 2q-4 -2 -4 -6q-4 0 -10 -4l-10 10l-11 -22l-12 -4l4 18q-4 10 -10 -3t-11.5 -11t-15.5 -4v12l-6 -18l-10 10l-4 -6l-21 -2q0 -6 -2 -7t-4 5q-8 -6 -24 -9q0 -4 -4.5 -6t-4.5 6q-8 -10 -19 -9t-22 7 q0 -2 -8 -6v-4h-14q2 -12 -2 -12t-10 4l-15 -6q-2 -2 -4 10l-4 -12l-29 -17l-6 9q-25 -10 -35 -15q-29 -10 -30 -16v-10q-4 4 -4 12l-15 -14q-2 4 -13 -3.5t-15 -0.5l-11 -17l-12 6l-4 -10q-4 2 -23.5 -5t-23.5 -15q-2 -8 -4 -9.5t-4 2.5q-8 0 -18.5 -6t-14.5 -18q0 4 -6 1 t-8 -5v-8l-13 4l-14 -19h-2l-8 4l-19 -8l-14 -14l-6 -8q-4 4 -24.5 2t-28.5 4q-2 4 -3.5 8t0.5 8l-8 12q2 8 3 25.5t3 26.5q2 8 15 26q0 4 6 8q16 10 43 35q20 16 43 43q4 -8 78 23q39 16 90 41q145 51 180 61q72 20 178 51l4 7l-28 18q0 -6 -4 -6h-7l-6 12l-8 -4 q-2 4 -10 -2l-12 20l-7 -10v9.5t-2 7.5l-6 -7q-6 2 -12 3.5t-10 7.5l-13 18q-8 -2 -10 -10l-8 10l-4 -2l-19 16l-12 13l-4 -8q-10 8 -80 47l-10 14l-41 22q-14 16 -62.5 58.5t-66.5 62.5q-4 6 -13.5 27.5t-15.5 30.5l6 4q4 16 15 35l14 8q0 -4 6 2l6 6q2 8 9 8l22 12 q0 6 6 5.5t8 11.5l17 -2l2 8q43 -23 74 -45q12 -6 75 -49q10 -10 50 -31q76 -39 116 -59l47 -25l5 -10q10 -4 30 -8q10 -2 31.5 -15.5t32.5 -17.5q98 -39 194 -78q8 -2 14.5 -2t10.5 -4z" />
<glyph unicode="?" horiz-adv-x="1021" d="M303 293l14 2l11 -2q14 2 56 24.5t75 22.5q25 0 24 -39q-20 -12 -20 -25q0 -4 4 -20q-20 -12 -21 -31q-16 -10 -21 -19t-5 -32q-12 -2 -19 -16l2 -8l-10 -11l33 2l-20 -12v-8l-17 -6l-16 -4l-6 -5l10 -6l-21 -10l6 -16l-10 -11l-6 5h-8l-10 -19q-14 -6 -31.5 -14 t-22.5 -19h-10l-14 7l-17 -13l-8 6q-12 -4 -24 -2l-2 -8l-25 -14v-8q-14 -4 -45 -4l-6 -7l-6 4l-13 -4l-6 7q-10 8 -12 10q0 37 12.5 67.5t61.5 112.5q41 68 69.5 88.5t69.5 26.5zM891 1446q74 25 158 41q41 0 41 -8l10 10q18 -4 33 -12q39 -23 53 -45l-4 -23q2 -20 4 -31 q-8 -6 -17 -10l11 -12l4 -6l-13 -4l-10 -21l2 -6l23 4l-15 -41q2 8 -8 8q-8 0 -14 -8t-2 -14h16l-10 -29l-10 6l-13 -12q4 -6 17 0q8 -4 11 -6t-1 -6l-16 6l-27 -17q4 -2 8 -18l-15 -12t-11 -11h8l6 -18l-12 -25h-35l-2 -20q0 -6 6 -6t6 -4q-10 -10 -8 -13l-27 13 q-25 -8 -37 -27h17q0 4 2 10h8l4 -6h10q-29 -16 -51 -33l17 -4l-9 -14l-30 -2l-8 -12l-9 -13l39 6l13 -6l-11 -10v8q-2 0 -12 2l-31 -14l-22 2l4 -12l12 6q-4 -6 0 -8t6 -2l-4 -15h-20q-6 -4 -11 -8q-25 -10 -30 -31l26 2l9 -8q-37 -14 -49.5 -20t-41.5 -23q-4 -4 -8 -6 l-12 -33l14 -10l-6 -10q-41 0 -72 -31l23 8v-10q-18 -18 -37 -20v-11l-12 -10l4 -6l-33 6v-14l-8 -15l-29 -6l-8 -34l-10 4q-18 -10 -24.5 -17.5t5.5 -11.5l-22 -31l-10 -2q-18 -41 -35 -52t-66 -22l-2 -12l-20 -6l-10 -16q-25 2 -37 2q-16 0 -23 -2v4q-4 0 -6 2l-18 -15 l-21 5l6 10l-10 2l-6 -6h-17l-8 -11q-16 16 -22 39q8 41 52 101.5t81 91.5q10 8 6 12l467 420q-2 2 0 4l4 4q23 23 45.5 56.5t22.5 60.5q0 23 -15.5 34t-40.5 11q-92 0 -221 -64q-117 -57 -196 -131l4 -41q0 -14 -9 -34l-14 2q-16 -20 -32.5 -36t-20.5 -13q-10 -23 -8 -29 h-23v-31l-8 -2l2 -16q-8 -2 -20 6q-16 -2 -21 -4l-6 -21h-12l-19 13l-4 -7l-18 11l-6 22q10 35 45 78q18 23 36 45q119 135 242 223q133 97 289 154z" />
<glyph unicode="@" horiz-adv-x="2021" d="M117 88l-15 21l11 49l-7 6l9 26q-8 37 16 52q0 197 289 483q119 117 242 233q43 37 94 70t182 107q106 51 197 90q111 47 189.5 67.5t139 32.5t109.5 12q20 0 42.5 -1t43.5 -1q25 0 39 2q53 -23 82.5 -37t58.5 -36q6 -2 14 -9q12 -20 26.5 -45.5t14.5 -46.5l19 -6v-31 l-12 -16l30 4l4 -12q-20 -23 -22 -35l-31 2q-2 -2 -3 -8t-5 -12l47 -7l-12 15l14 6l12 -2q-6 -16 -10 -12v-41q-31 -10 -41 -13l31 -14l-17 -29q-2 -14 7.5 -18t23.5 -6q0 -10 -10 -8t-18 2l14 -11q0 -10 -19 -8l11 -20q-6 -29 4 -49l-15 -29l13 -35q-23 0 -23 -10 q12 -8 21 -8l-45 -15l4 -14l-27 -37l2 -16h-12l-12 -13q12 -2 20 -6t0 -16l-29 -8l-10 -21l-14 -2l-23 -51q-4 -23 -75 -90q-59 -63 -99 -88l2 -10l-69 -66q-4 -6 -9 -10l-28 -31q-27 -27 -75 -73t-71 -66h-10l-51 -56q-18 0 -88 -28.5t-98 -32.5q-16 27 -21.5 55.5 t-5.5 67.5v47.5t2 48.5l-47 -37v-16l-37 -31l-8 8q-6 -10 -8 -12q-8 -14 -19 -10q-6 -18 -27.5 -37.5t-39.5 -28.5l-45 -22l-3 -15l-83 -43q-12 4 -23.5 -4t-15.5 -8q-16 0 -38 12.5t-42 24.5l-25 61q2 2 6 9q-8 20 -18 47q12 27 14 39l-2 18q-12 66 47 189q39 84 99 182 l30 39q68 100 271 256q213 162 309 162q16 0 31.5 -4.5t23.5 -8.5q68 -37 88 -123l-10 -41q4 0 8 -12t10 -27l35 -2q-4 -16 -57 -96q-68 -96 -72 -104l2 -6q-23 -35 -33 -72h-12l6 -16q-2 -4 -34 -93q-18 -35 -31 -49v-33l-8 -2q0 -14 -5.5 -46.5t-5.5 -49.5q0 -31 23 -29 q102 43 190 175q117 184 146 210l-2 27q0 41 18 100q53 154 53 199q0 129 -53 201q-59 82 -182 82h-105l-59 -15q-43 -6 -83 -13t-85 -26q-98 -37 -278 -157q-201 -135 -238 -213q-90 -72 -180 -239t-103 -285q-6 -14 -15 -39t-9 -43q0 -39 18.5 -108t18.5 -103 q29 -20 39 -64l4 -4q45 -35 92 -65.5t104 -30.5l8 -19l3 7l8 -17q12 2 33 2q25 0 68.5 -7t49.5 -7q156 0 357 96q70 31 333 180v9q139 92 285 182l-8 -15q-12 -2 -28.5 -16t-35.5 -45v-14q-14 -10 -67 -52.5t-57 -56.5q-27 -14 -77 -54t-67 -63q-4 4 -7 -1t-3 -7 q-20 -8 -37.5 -19.5t-36.5 -23.5h-14l-35 -35q2 -10 -94 -55q-49 -25 -68 -29q-14 -27 -61 -51q-12 -4 -17.5 -9t-3.5 -7l-45 -4v-15q-45 0 -211 -45q-82 -23 -139 -22q-174 0 -289 72q-98 59 -204 210q-12 4 -15 7q-12 10 -6 20l25 14l-39 13l-15 69l29 25v14h-23v13l-8 47 zM856 217l23 -57q49 0 137 67q66 49 74 56q18 66 71 159q96 186 96 281q0 94 -79 125q-45 -18 -66 -55q-23 -23 -45 -48q-12 -14 -39 -47h-10l-6 -22q-8 -8 -59.5 -110.5t-55.5 -119.5l-8 -2q-10 -33 -17 -69l-10 -10l4 -7h11l-17 -16v-59l-8 -7v-12l4 -4v-43z" />
<glyph unicode="A" horiz-adv-x="1146" d="M-59 199q8 18 26.5 43.5t26.5 38.5q18 23 26 34q16 23 25 39q6 6 12 13l101 135q8 8 18 16q16 27 37 53q29 39 41 41q20 35 53 75t66 79l39 49l14 4l18 33q8 4 19 10q20 43 49 76l2 8q29 23 54.5 52.5t52.5 60.5q84 84 143 158q20 20 37 40q31 35 55 76l6 -6 q25 18 64 29.5t57 19.5l18 8h15l4 9l49 4l18 -6q2 -18 -10 -43q4 2 7 -1.5t6 -5.5l-11 2q-14 -70 -28 -139q-25 -113 -37 -129q4 -2 9 -4t1 -10l-20 -37l10 -27q-4 -16 -9.5 -47.5t-9.5 -58.5l-16 -21v-53h-8l6 -24q-6 -12 -9 -36t-5 -32l6 -33l-15 -18q2 -8 5.5 -20.5 t3.5 -16.5q0 -12 -9 -14v8l-4 -4q0 -18 17 -15q-2 -10 -9.5 -75.5t-7.5 -67.5q0 -14 2 -20l-24 -17l-2 -22l18 4q14 -4 8 -18.5t-10 -18.5l19 -19q4 -8 -7.5 -10t-11.5 -6v-8q12 -8 12 -13.5t-12 -3.5l2 -18q2 -20 4 -41q-12 -14 -12 -25q0 -8 11 -10t11 -12l-6 -2 q6 -25 -3 -61.5t-23 -65.5l-27 4q-2 0 -8 -11.5t-17 -6.5l-10 -25q-61 -33 -123 -66q-37 12 -54 61.5t-17 106.5q0 27 4 56.5t6 40t7 26t-3 19.5v30l12 9q-8 10 -12 8v88l-29 4l-24 -8q-6 6 -10.5 6t-8.5 -10h-20l-8 8q-8 -12 -24.5 -16.5t-27.5 -6.5q2 10 2.5 13.5t2.5 7.5 h-11q-4 0 -14 -8q-31 -23 -68 -23q-6 0 -28 -16q-6 -4 -23 -17l-37 21q-10 -18 -12 -29l-31 -6h-14l-33 -16l-12 -25l-14 4l-17 -6l-4 -31q-10 -14 -25.5 -28.5t-29.5 -20.5l-4 -16h14q-4 -10 -8 -15.5t-8 0.5q-29 -25 -29 -59q-23 -4 -51.5 -24.5t-32.5 -38.5l-35 -31 q-4 -2 -8 4t-2 8l-96 -49l-43 -27l-17 2l-14 27q10 55 55 123q25 35 49 72zM700 668l11 4q18 115 39 231l18 76q-12 -14 -31 -18q-10 -16 -37.5 -51.5t-33.5 -57.5q-20 -10 -35 -29q-43 -57 -49 -61q-20 -45 -60 -82q-10 -25 -18 -47q35 0 71 8q119 27 125 27z" />
<glyph unicode="B" horiz-adv-x="1220" d="M53 303q6 12 51 98q23 43 29 60q104 172 209 344q127 213 190 354h-8q-16 0 -60 -14.5t-52 -16.5l-35 11q6 41 47 92q35 43 76 76q14 10 22 18q20 18 19 25q57 12 114 26q63 12 119 13q129 0 199 -13q115 -20 178 -80q14 -10 10 -18l23 -8q16 -25 33 -47l8 -19l8 -26 l-8 -19l6 -22l-10 -19q2 -2 0 -11t-9 -5l-4 -23q-14 -18 -27.5 -36.5t-33.5 -26.5l14 6l-4 4l23 2l2 -6q-37 -18 -78 -45t-60 -37l-8 2q-4 0 -2 -7t0 -9q-14 0 -33 -8q-31 -16 -61 -33q-12 -12 -24.5 -19.5t-32.5 -13.5q-6 -6 -4 -10q63 -25 67 -27q29 -18 43.5 -25.5 t7.5 -15.5q74 -37 93 -98q12 -82 22 -133l-10 -21q-6 -4 -8 -14t-2 -19q-14 -2 -10.5 -12t3.5 -12l-12 2l-22 -21q4 0 16 -4q0 -16 -6 -16q-14 4 -23 4q-6 0 -10 -7t-4 -9q12 -2 20 -2l-22 -27h16l-43 -10l-20 -33l2 -8l-21 -4l-4 -6h13q0 -6 -6.5 -7.5t-14.5 -1.5 q-2 -12 -4 -22q-31 -20 -47 -33q-33 -23 -45 -35h-8l-39 -35l-6 5l-21 -27h-20q-20 -20 -47 -25v-12l-19 -16l-35 4l-4 -17h-24v-16l-25 -10q-6 4 -10 8l4 -8q-10 -10 -41 -19l-8 -12l-43 -16q-72 -27 -132.5 -40.5t-127.5 -13.5q-33 0 -72 11q-96 25 -121 24q-27 27 -53 56 l-4 18h-8q-14 53 -15 92l13 25q57 49 71 102zM297 188l2 -12q29 -8 65.5 -12t73.5 -4q166 0 287 90q135 100 135 262q0 86 -71.5 134t-157.5 48l-15 -6q-18 0 -38.5 -2t-40.5 -4q-12 -16 -29 -16l6 -7l2 -8l-4 -18l-14 -4l14 -4q-18 -10 -37 -9l-4 -16l25 2 q-12 -18 -21.5 -28.5t-15.5 -10.5q0 -6 -4 -20.5t-6 -22.5q-6 -2 -17 -16l23 -4l-21 -25l-20 -10l4 -6h10q-23 -16 -37 -53q-12 -4 -35 0l-4 -5v-8l29 -6q2 -4 6 -6l4 8l-4 -16l-25 -2l-4 -15h23v-10l-12 -2v-12l-19 -8l12 -7l-2 -10l-22 -8l-23 -12v-8l4 -7l-8 -22l4 -4h9 l-5 -23l-18 -2l-16 -33h12zM629 834q14 0 35.5 9t42.5 19l84 35q76 35 120 70q72 55 72 108q0 47 -56.5 74t-109.5 27q-25 0 -53 -46q-12 -18 -35 -71l-8 -10h10q-8 -12 -31 -25l2 -6q2 -12 -14 -25q0 -18 -8 -32l-16 -11l22 -4l2 -14q-33 0 -35 -21h-12l-4 -12l4 -10 l-8 -15l-4 5l-4 -17l-4 -28h8z" />
<glyph unicode="C" horiz-adv-x="1142" d="M92 348q0 4 -16 8l-2 52l12 16l-10 16q10 45 20 92q18 23 60.5 117t56.5 119q104 170 315 338q219 174 404 223q33 20 82 41t73 21q86 0 156 -82q6 -6 8 -4q10 -20 13 -29q12 -31 12 -51l10 -2l2 -27l10 -10v-12q-12 -14 -14 -25l-20 4q4 -6 1 -10t-5 -6l26 -7l-6 13h16 l-6 -10q-2 -16 -4 -33l-29 -13l21 -8l-12 -22q-6 -12 16 -19v-8h-20l4 -14l-29 2l-2 -19l6 2q2 2 6 7q0 -4 2 -9q0 -8 -6 -9t-10 -1l16 -8l-26 -16l10 -9l-25 -34v-39l-22 -6q-20 -16 -66.5 -66.5t-83.5 -75.5l-14 4q-43 -20 -86 -39q-25 -25 -58.5 -45t-62.5 -24l-10 20 q8 14 100 150q104 154 105 280q0 55 -15 90q-20 51 -67 52q-35 -23 -60 -41q-2 -2 -57 -47l-12 -7q-49 -51 -97 -102q-117 -123 -188 -217q-109 -139 -133 -223q-18 0 -19 -11q6 -16 7 -22q0 -25 -7 -59q-14 -82 -14 -107q0 -68 51.5 -139.5t112.5 -71.5l119 4q8 4 16 10 l31 7v8l65 24q33 10 69 36t69 50q6 12 12 9q16 18 85 72.5t85 58.5q-12 -10 -22.5 -24.5t-22.5 -39.5v-8q-45 -29 -117 -100l-113 -113h-8q-8 -8 -15 -20.5t-26 -12.5q-18 0 -44.5 -26.5t-43.5 -28.5l-12 -25q-14 -6 -27.5 -13t-9.5 -13l-27 -4l-4 -9l-92 -43 q-221 45 -239 54q-109 47 -144 194q-14 6 -14 15q0 6 10 16q2 2 6 4l-20 10l-6 56z" />
<glyph unicode="D" horiz-adv-x="1259" d="M61 313l17 13v12q18 31 26 45q29 49 31 51q18 33 37 68h10l8 35l15 4l16 41q8 2 19 26q33 80 104 189q199 301 205 313l6 8l-4 4l-23 -2l-32 4l-27 23q8 29 40 74t54 61q4 10 7 13t5 1q35 47 151 71t230 24q16 0 32 -1t41.5 -3.5t58 -5.5t49.5 -11l10 -12q2 -2 8 0v4 q25 -4 49 -16q14 -6 45 -27v-10h11q8 0 16 -12.5t16 -2.5l13 -22q4 2 6 -1t4 -5q0 -12 15.5 -27.5t17.5 -24.5l-19 -10l14 -16q4 -2 9 -4q-4 -16 -17 -23l33 -2v-8l-8 2q-4 0 -6 -18l6 -2l6 4q2 -4 -16 -17q0 -6 2 -10l-17 -18h35q-6 -4 -6 -17.5t-4 -13.5h-23v-10l9 -4 q12 6 26 12q-8 -31 -35 -35q8 -8 -2 -18.5t-10 -14.5h10l41 23l-14 -8l2 -7l-23 -18l-12 2l-14 -35l-23 -18v-15l21 5l6 -35l-21 2q2 -4 -4 -10.5t-12 -2.5l18 -16v-14q0 -27 -28 -27l4 -18q-35 -14 -53 -4q-4 -6 -1 -12.5t5 -8.5l-2 -18l-25 -8l-12 -5l20 -2l15 -4 q6 6 14 15l10 -11l-22 -22l-43 -4q-10 -14 -11 -27h9l14 8v-10q-18 -4 -31 -2l-24 -22v-15l24 -2l-43 -14l-14 -25q4 -6 -6 -10l-31 -6v-12l39 -7l18 15l7 10l-23 -41l-16 4q-12 -18 -25.5 -26.5t-44.5 -16.5q2 -4 5 -6t13 -4l-26 -10l-15 -23l-18 -6q-16 -23 -14 -25 l-21 -2q8 -14 -2 -15t-24 -1l-33 -6v-8q2 -2 10 2q4 -2 8 -2q-12 -4 -12 -23l-21 -6q-4 -4 -6 -8q-4 0 -14 -2l-4 -13q-8 -6 -15.5 -8t-11.5 -2l-4 8l-12 -28h-35q-2 -18 -33 -31q8 -8 17 -14q-12 2 -23 4l-22 -13v-8h12t2 -6l-16 -4q-12 -12 -15.5 -15t-23.5 -3 q-6 -10 -6 -15q-18 -4 -34 -11t-20 -22l-8 5q-20 0 -31 -25l-20 2q-18 -18 -95 -59t-106 -43q-25 -29 -94 -58q-53 -23 -109 -32q-6 4 -24 4q-47 0 -62.5 3t-58.5 19q-18 20 -29.5 42t-15.5 44q2 31 57 123q27 45 27 66q0 2 12 12t8 20zM340 244v-15l14 -6l41 4l19 17h14 q8 6 52 23.5t55 31.5h16q4 0 4 16q31 6 55 19l15 12l4 12q6 -2 30 11l7 -2q14 23 41 43q18 12 53 30v15q37 23 76 59q29 27 67 74q29 33 53.5 68.5t53.5 84.5h10q-2 18 12.5 55.5t28.5 51.5l-2 10l10 6q-4 14 1 45t11 70q0 84 -60 134t-147 50l-47 -6q8 -8 9 -16 q-12 2 -19.5 -21.5t-5.5 -36.5q-20 -16 -14 -41l-15 -4l-4 -12q-2 2 -7 -1t-1 -9l-16 -29l2 -12l-21 -8l-2 -19l-20 -4l-4 -16l10 -17l-4 -4l-31 -4l-2 -8l6 -12l21 4q-10 -6 -22.5 -21.5t-14.5 -27.5l-13 -21h-8l-6 -12h-8l-4 -17l8 -2l18 7q-16 -18 -32 -17v-24h-9 q-2 2 0.5 7t-6.5 5l-4 -8l10 -11l5 -10l-21 -30l-6 -7l-21 -6l-14 -30l12 -31h-36l-2 -6l16 -9h10q-8 -10 -22.5 -15t-30.5 -7l-6 -14l4 -11l10 9h16v-11q-4 -6 -8 -10l-20 -2v-8l-19 -4q4 -8 6.5 -10.5l4.5 -4.5l-21 -10l-2 8q-25 -23 -33 -53l-16 -4v-18q29 14 43 14l4 -4 l-18 -8q-12 -29 -35 -35l4 -8l-23 -15l-4 -16h15l8 10l4 -6q-8 -10 -6 -16l-19 4q-27 -12 -32 -27l2 -12l6 6l4 4l20 4l9 6l-19 -28l-16 -2l8 -3v-14l-12 -22l-19 4l-14 -4v-27l-6 -4l-4 -12q4 0 9 1t7 3z" />
<glyph unicode="E" horiz-adv-x="1021" d="M-14 147l4 21q12 -2 12 25l51 96v12q8 12 16.5 33.5t12.5 40.5q6 2 31 53q10 20 28 66l13 4v24q2 4 10 4q4 4 2 19l24 28q-4 -2 -8 7h15l-11 12l17 8l-2 8q2 10 6 21h8q12 -2 16 14q0 10 15.5 31.5t15.5 27.5q10 12 8 21l29 10q-4 8 -8 19h-8q0 6 8 8t18 4l-2 6l-4 12 q14 14 27.5 41l25.5 51q37 55 76 113h12q0 20 27 63.5t27 45.5l-15 6q-31 -10 -69 -10l-4 18q0 70 87 153t152 72q6 4 15.5 8.5t21.5 8.5l29 4l8 -8l16 20l17 -16h12l6 14l8 -2q4 8 7.5 14t9.5 2q4 -6 10 -12q0 12 14 12q4 0 8.5 -1t8.5 -3h8q23 23 49 23q2 0 18 4 q2 -2 5 -4l-21 -13l31 15l-2 8l14 -8q6 -2 17.5 4t17.5 6l14 -12v8l25 14l8 -2l8 -20h10l-2 8l2 12h11v-6q25 -2 69.5 10.5t53.5 12.5q10 0 9 -5.5t-1 -11.5l12 -12l-2 12q2 4 8 9.5t19 9.5l41 -6l30 6q29 8 39 12q12 -6 27.5 -13t15.5 -14l-47 -49q4 -4 -2 -8t-8 -4l-6 -19 l-33 -18q0 -16 -29 -45q-4 -6 -47 -43l-6 2q-12 -6 -10 -10q-119 -16 -236 -31q-156 -31 -188 -94l-27 -39l-8 -2q-2 -12 -6 -19q-10 -14 -21 -28l5 -15h-13l-16 -18q2 -6 4 -10q-4 -8 -8 -15l-43 -61h-27l-4 -8q0 -6 8 -6h17l-5 -17h35q20 6 38 10.5t36 4.5q6 -4 10 0t2 10 q25 2 51.5 7t47.5 15q12 -4 26.5 -1t14.5 -3l18 4l35 9l8 -11q10 6 26.5 11.5t18.5 -4.5l29 8l39 -8l4 -27q-8 -12 -33 -34.5t-29 -33.5q-31 -16 -59.5 -50t-54.5 -64l-70 -17v8q-6 -4 -10 -6l-66 -6v6q-2 0 -12 -8h-23l-4 6l-22 -12q-10 -4 -14.5 0t-4.5 6l-18 -12 q-18 -4 -29 -4l-127 -47v-9l-12 -16q-8 -6 -14 -10h-25v-8l25 -7q0 -18 -11 -18q-23 8 -30 8v-16l24 -15l-12 3q-8 0 -20.5 -10.5t-12.5 -20.5l15 16q2 2 18 4l-2 -6l-2 -8l-8 -6l-19 -27q-2 -4 1 -6t10 -2l-7 -6l-4 -14l-10 -3q-6 -27 -16 -22l-7 -23h9q-8 -18 -13 -28 q-10 -23 -16 -27q-8 4 -16 10l-19 -12l6 -10l19 10v-35l-17 -10l-2 -29q-14 2 -14 -22q8 -6 12 -8q16 -10 23 -11l-4 13q6 -2 14 -4q6 12 12 12q14 -6 29 -12l-8 12q8 10 6 12q18 -2 34.5 5t18.5 7l13 -4l22 9h16q18 6 27 8q41 -4 57 -4l-6 6q16 12 29 12q10 0 10 -14l4 10 l27 12l12 -24l4 16l23 4q-2 6 5 8t23 2q23 -2 27 -2l4 4q31 6 40 7.5t32 1.5q6 0 17.5 -7.5t13.5 -9.5l-2 -37l-19 -8q0 -2 6 -4t6 -8l-6 -4l-2 -23q-33 -4 -51 -24l2 -8q-10 -12 -20 -23q-18 -18 -27 -16l-21 -31q-84 -39 -260 -74q-219 -43 -266 -57q-18 -8 -57 -20.5 t-41 -12.5q-57 0 -86 72q-10 29 -19 67l15 33z" />
<glyph unicode="F" horiz-adv-x="1046" d="M-37 16l-6 17l10 14q0 23 15.5 59.5t27.5 71.5q6 6 8 4q10 41 39 92q51 88 52 91q4 14 0 18q16 23 32 51q45 80 54 90h-9q0 10 9.5 23.5t17.5 9.5l92 154q4 2 10 6v18h11l36 68q10 -10 25.5 13.5t7.5 33.5q16 27 35 56.5t29 58.5q27 2 26 32q0 4 17 17q4 8 8 18l20 12 l5 23l22 18q0 8 -19.5 5t-41.5 -5l-33 15q53 186 231 223q106 20 213 41l8 -6q10 0 17.5 4t19.5 -2q20 10 34.5 12t37.5 2q18 0 40.5 -2t25.5 -2q16 12 16 16q23 -6 49 9q-6 -4 1 -11.5t15 -3.5l-8 9q0 10 21.5 6t19.5 -13q14 16 35 17q25 -2 39 -2h51q37 0 59.5 -2 t49.5 -15q4 -4 10 -8l-18 -10l-5 8l-20 -18l-4 -27h-23q-8 -10 -8 -29l-22 -10l-15 -20l-8 -2l-18 -25q-8 -4 -15 -8q-23 -23 -45 -43l-71 -2l-19 -12q-111 0 -184.5 -10.5t-151.5 -45.5q-10 -16 -16 -26.5t-6 -20.5l-25 -4l-12 -33h14q-27 -18 -40 -28.5t-13 -36.5l-14 2 q-25 -16 -25 -41h10l29 18l-8 -12l-25 -25v-8q-20 -8 -36.5 -26.5t-22.5 -22.5l14 -23q-12 -4 -2 -16t21 -8l16 16l12 -4q23 8 41.5 11.5t36.5 -1.5q0 2 8 1t19 -3l4 9l80 12q-2 -4 7 -6t23 -2q8 0 17.5 1t7.5 7h29l10 6q29 0 29 -18h14q-4 6 -5 11t7 5q14 -4 31 -8v8 l22 -10l-6 -8l-16 -19l-7 10q-76 -102 -106 -137q-49 -55 -162 -55q-49 0 -170 -27.5t-151 -54.5l-4 -8l8 -15l-33 4q-2 -6 6 -14q2 -2 6 -4q-4 -4 -7 -5t-11 5l-10 -18l20 -2v-15q0 -6 -8 -14q-20 -18 -16 -25l-15 -14v-14q-10 -10 -17 -24.5t-16 -31.5q-8 6 -18 -10t2 -20 l-8 -23l2 -12l-17 -25l-2 -24q-6 2 -12 -7.5t-10 -15.5q4 2 8 -6q0 -10 -17.5 -36.5t-25.5 -35.5l4 -20q-6 -20 -37 -21q-4 0 -6 -16l-10 -14l-21 6l-20 -6q-2 -6 -20.5 -18.5t-20.5 -10.5q-16 -6 -28.5 -18.5l-22.5 -22.5l-6 6q-35 -18 -52 -26q-33 -16 -53 -17l2 12l-8 21 q-4 -2 -6 2l-4 8z" />
<glyph unicode="G" horiz-adv-x="1218" d="M676 1155l41 27q0 4 15.5 12t29.5 16q88 55 178 111q119 68 197 68q63 0 96 -39t33 -101l-6 -35l-15 -8q4 -14 1 -31.5t-9 -37.5q-8 -4 -12 -14.5t-8 -18.5l-25 -53q-8 -8 -14 -9q-10 6 -19 7l-2 -13q12 -4 19 -8l-7 -12l7 -6l-54 -25l-8 2q-6 0 -3 -10t7 -23 q0 -4 -20 -6l-2 8l-4 -12q-25 -12 -42.5 -24.5t-29.5 -28.5q-27 -23 -68 -49q-10 -6 -69 -43l-4 4q-18 -14 -62 -41q-33 -20 -63 -39l-25 2q82 78 121 119t63 76l9 8q25 47 40 94t15 94q0 18 -4 33.5t-6 24.5l-23 22l-57 -12l2 -10q-2 0 -12.5 -12.5t-18.5 -4.5l-18 -14 l-15 -10q-31 -16 -51 -41q-4 4 -9 -0.5t-1 -6.5l-29 -22h-8l-4 -27l-31 -26q-6 -6 -11 -9.5t-1 -17.5h-16q-12 -18 -20.5 -27.5t-20.5 -9.5q-4 -10 -10.5 -26.5t-26.5 -16.5q-4 -8 -4 -10q-6 -12 -4 -16l-17 -21l-18 4v-33q-8 -14 -19 -14q-18 10 -24 10l12 -32 q0 -12 -8 -26.5t-27 -10.5l-8 -29q-6 -14 -27 -4l9 -31l-2 -6h-23l-6 4l-6 -10q0 -6 6 -8t16 -4q4 0 6 -19l-18 -6l6 -39q-4 -16 -22 -43q-6 2 -13.5 -4t-5.5 -12h8v-25q-6 2 -11 -12t-5 -37l-19 -12q-4 -14 -6 -19q-6 -6 0 -13t11 -1l-17 -35q10 -23 10 -85t33 -107 q16 0 32.5 -1t20.5 -8q86 39 220 152q145 125 178 201l-10 22l-58 -10l-4 10q12 4 76 37q23 12 47 23q0 23 86 45q57 14 111 22q2 -4 6 -6q8 2 12 4l25 -26l2 -27l8 -2q0 -10 -11.5 -40t-19.5 -42l-6 -4q-29 -78 -74 -164q-31 -57 -94 -156l-18 -24q0 -14 -5.5 -26.5 t-15.5 -33.5l-4 -8q-6 -6 -6 -16q0 -8 -17 -33q-23 -33 -45 -66l2 -18l-18 -20q-6 -12 10 -21q-8 -2 -14 -4l-10 -18l12 -19l-8 -16q-12 -16 -21 -10l-12 -56l4 6l12 -10l-22 -22q-12 -16 -16 -23q2 -4 6 -10l-11 -35q16 14 25 14v-12l-8 -4v-16l-15 14q-12 -12 -22 -27 l6 -18l10 6l6 -23l58 31l4 -4l-33 -47l-8 4q-23 0 -23 -22l-20 -13q-6 -12 -12 -19t-15 -18l-4 9q-18 0 -35.5 -9.5t-33.5 -25.5l-19 4l-18 -25q-20 -6 -31 -8q-80 -25 -86 -27l-35 21l-10 43l14 78l8 22q2 10 8.5 22.5t14.5 24.5l35 86q43 111 55 136q35 78 72 127 q25 61 43 96q76 152 78 158h-11q-4 -12 -8 -17.5t-8 -1.5l-14 -20l-27 -9q-4 -6 -4 -8q-8 -12 -8 -14q-14 -4 -94 -71.5t-97 -88.5l-10 6l-88 -53q-45 -18 -81 -28.5t-71 -10.5q-45 0 -105 45t-60 92q0 18 12 37l-17 -4q-6 37 -10 62.5t-4 44.5q0 170 158 409 q145 219 309 340q2 10 68.5 58.5t93.5 64.5z" />
<glyph unicode="H" horiz-adv-x="1261" d="M154 539q2 0 4 2t2 4l35 61q2 6 6 12l12 19q10 25 27 53q10 16 20 31l41 67l10 11l64 104l121 187h8l31 53q31 31 51 56.5t43 53.5q4 8 10 4l53 52q16 -2 84 28q43 20 51 25l11 -4l20 8l23 16q6 -4 15 1.5t17 2.5q0 -51 -77 -182q-86 -139 -170 -278q-10 -14 -18.5 -27.5 t-10.5 -28.5l-53 -65q199 23 389 74l39 49l4 8q135 190 272 383h8l31 6l8 8q72 25 114 38t54 13q27 -16 31 -45q-4 -31 -14 -55l-25 -18q-6 -25 -19.5 -48.5t-25.5 -43.5l-20 -37l-5 -11q0 -18 -15 -35.5t-30 -33.5l-39 -47l11 -15q-8 4 -21 4v-4q12 -8 10 -14q-10 0 -19 -2 t-9 -18l10 6q-4 0 -8 -17.5t-8 -23.5l-15 -4q-27 -39 -50 -83t-42 -94q-8 2 -16 -2t-10 -4q-6 -8 -11 -16q12 2 19 2q0 -20 -23 -29l8 -20l-6 -8l-31 6q-2 -4 0.5 -8t12.5 -15l6 4l-4 -16l-23 -12l8 -6l-4 -15l-28 -20q8 -10 8 -13l-8 -2l-15 -12q2 -4 4.5 -5t10.5 -1l-2 -6 l-21 -12v-9h-10v-14l-14 -10l2 -19v-10l-19 -33q-12 4 -25.5 -12t-13.5 -25q8 2 21 3l2 -17l-21 -12q0 -41 -34 -76l2 -10l-11 -21h-22v-12l14 2l4 -14q-14 -2 -26 -4l4 -19q0 -16 -2 -24q-8 -25 -15 -47l-30 -15q-10 -14 -16.5 -30.5t-6.5 -32.5q-10 4 -19.5 7t-13.5 -3 l-30 8l-21 -14q8 -16 2 -19.5t-6 -9.5l10 -6q4 -8 -1 -9t-11 -1l-4 6q-18 4 -14 16l-29 -33l4 -10q-10 -2 -46 -14t-42 -12l4 8v22h-14l-15 -20q-27 14 -45 35q29 135 119 313q76 150 154 301q-18 4 -40 -1t-32 -7v10q-82 0 -197.5 -40t-171.5 -95l2 -21q0 -10 -8 -22 t-10 -17h12l-39 -61h-14l-14 -23q10 -2 20 -2l-12 -30q-14 8 -23 8l-2 -14h23l-37 -56v-10l-12 -18v-11q0 -2 -13 -20l-28 -29l10 -12l-37 -25l8 -4v-8l-12 -12l-45 -13l-4 -20l-41 -20q0 4 -17 4q-4 -6 -8 -7l-22 -43q-18 8 -27 9l-10 -13h-49l-27 -14l-8 10l-37 -14l-6 35 q0 78 113 282q70 121 90 156z" />
<glyph unicode="I" horiz-adv-x="681" d="M242 707q25 45 69 116q61 96 72 115l25 35l51 76l53 88q86 115 101.5 125t168.5 69l13 -4q12 10 19 14.5t9 -2.5q6 2 21.5 7.5t17.5 9.5q23 -6 35 -29q-10 -39 -14 -51q-16 -45 -33 -88l-12 2l6 -12q0 -6 -9.5 -6.5t-19.5 -0.5l-6 -10l2 -12l27 4l-4 -12l-31 -11 q0 -2 3 -2t11 -2l-16 -22q-4 -2 -11.5 3t-11.5 5l23 -16l-27 -37l-35 6v-23h9q6 -16 14 -10q-25 -18 -38 -46t-28 -58q-10 -2 -8 -9.5t4 -9.5l-35 -24l-8 -27v-31q-8 -4 -11 -6t-5 -6l-19 -6v-10q-20 -29 -32 -45q-18 -27 -31 -52l-19 -20q-20 6 -20 -10l8 -23l4 4h19 l-31 -16l-10 -16v-11h-8l-9 -8l-6 -4q6 -6 6 -10l-16 -6l-8 -33l-45 -19v-10h20q0 -27 -16 -47l-27 -10q0 -4 13 -8l-19 -11q2 -4 -6 -10t-14 -4l8 -33l-15 2l-8 -2l-8 -18l-25 6l-10 -8l-22 2l-15 -10l7 -9q16 6 41.5 8.5t29.5 2.5l-10 -19l-21 4v-14h19q-10 -16 -21 -37 q-20 -37 -24 -67q-25 0 -37 -19q4 -6 8 -10l-12 -25l-16 2l-13 -10q0 -10 7.5 -8t13.5 4v-12l-8 -8q-2 2 -5 6l-20 -33q-6 0 -9 -7t-3 -9l-68 -17q-14 -6 -25.5 -12t-13.5 -14l-41 8l-26 -25h-25l-14 -20l-11 -15l-18 11l-8 -11l-6 4l-31 -4q2 90 115 301q72 125 92 162 q33 49 65 113q21 39 58 117z" />
<glyph unicode="J" horiz-adv-x="1060" d="M285 774l20 -4l6 18q12 4 30.5 12.5t41.5 18.5q23 0 27 -2q0 -6 2 -10q-16 -35 -93 -162t-106 -170l6 -14l-6 -60q-4 0 -20 -2l-7 -8h11q8 4 14 4q0 -68 16 -114q25 -74 80 -74q39 0 129 90q106 106 207 246l43 63q27 0 27 35l10 6l4 19q16 -4 16 14q16 29 25.5 46 t24.5 42q6 8 12 4l8 33q59 98 111 205q72 150 71 211q0 43 13 57h10q10 16 24.5 25.5t40.5 15.5q37 14 58 22q39 16 49 31l67 12l33 -32q-8 -98 -95 -307t-155 -310h-18l4 -22q-12 -10 -22.5 -37t-22.5 -35q2 -8 -28.5 -54t-51.5 -52l-14 -43q-14 10 -43 -23 q-18 -20 -27.5 -24.5t-5.5 -20.5l-16 -8l-13 -23l-16 -12l-16 -12q-31 -31 -66 -37l12 -23q-10 6 -20 -6t-2 -16q-20 -8 -41 -17q-14 -10 0 -18l-19 -14q-6 4 -10 10l-22 -25l12 -2l-12 -6l-37 -10q-6 -14 -6 -23l-17 -2q-10 -8 -14 -2l-31 -24q-10 -4 -14 -4q-6 -6 -10 -13 h14h-37q-10 0 -16 -4t-2 -14h-23l-10 -25l-14 6q-12 -6 -31 -15t-29 -17.5t-16 -16.5q-6 6 -13.5 -2t-5.5 -16q-12 2 -67 -21q-37 -14 -72 -30l-18 8q-23 -14 -66 16.5t-43 54.5h-12q-18 47 -39 95q-12 37 -12 106q6 10 5 13.5t-3 7.5q0 137 104.5 284.5t237.5 206.5z" />
<glyph unicode="K" horiz-adv-x="1161" d="M489 1141l58 104q29 35 99.5 71t113.5 36l43 22h22l9 -24q0 -37 -29 -97q-12 -25 -53 -92l-11 -2l4 -18l-8 -2l-32 -82l-23 -8q2 -2 5 -3.5t13 -1.5q-23 -27 -24 -38l6 -5l-20 -16h14l-35 -49q-4 4 -12 -2t-8 -14l2 -11q109 41 295 172q156 111 316.5 220.5t235.5 109.5 l19 14l29 5l10 -27q-14 -51 -75.5 -124t-111.5 -83v-14q-23 -6 -44 -22.5t-42 -31.5l-4 -16l-24 -12q-4 2 -20.5 -5.5t-18.5 -7.5l-8 -18l-25 -4q-20 -14 -12 -27q-47 -27 -77 -42t-36 -15l-6 -18q-23 0 -55.5 -19.5t-50.5 -19.5l-7 -15q-27 -14 -57 -14q-20 -8 -48 -23.5 t-52 -27.5q-4 -20 22 -94q10 -27 23 -54l-6 -14l2 -16l10 2q12 -25 19 -41.5t7 -30.5v-16h9q8 -29 8 -64l18 -14l19 -47q-6 -2 -9.5 -7.5t-3.5 -7.5l25 -37l-14 -14q0 -4 6 -7t12 -1q6 -23 10 -51.5t7 -42.5l10 -13l-4 -26q8 -6 10 -10q14 -16 -2 -23l14 -16l-8 -21 q-18 0 -14 -16l-23 4l-2 -35l-20 -31l-37 -10l-4 -22l-23 -9l-18 -8q-16 -39 -56 -55l-12 4l-29 -29l-26 17q-37 180 -72 348q-70 336 -106 350q-8 -14 -16.5 -30.5t-22.5 -22.5l-2 -29l-25 -6q2 -2 7 -4t5 -6q0 -6 -11 -8t-11 -7q-2 -8 -1 -14t5 -12q0 -6 -13.5 -14.5 t-11.5 -12.5l13 -10l-25 -16h-10l-31 -19l2 -12l35 8v-22q-6 2 -11 -10.5t-24 -16.5l10 -27l-51 -12q14 -12 31 -25q0 -8 -19 -8l-4 -12l-30 2l-4 -10l24 2l10 -8q0 -6 -16 -17q-4 -2 -18 -8l2 -27q0 -27 -25 -73.5t-29 -67.5l-16 2l-27 -16v-8q-16 -10 -31.5 -24.5 t-21.5 -29.5q-29 -10 -45 -2q-27 -23 -46 -33t-87 -32l-31 16q-6 18 -12 39q0 37 76 190q96 188 192 377q41 90 111 203q178 289 198 328z" />
<glyph unicode="L" horiz-adv-x="993" d="M-29 125l-10 29l-12 -7l12 54h14l-2 20q0 8 13.5 35t29.5 57q6 18 13 17l28 73q6 6 13 15l53 112q6 12 20.5 35t17.5 31t10 25.5t24 50.5q29 55 63 104q49 82 74 125q72 123 88 156q6 -4 7 1t1 13q2 2 6 4q2 -2 6 -10l6 4l-8 8l2 10h21q0 2 -4 3.5t-11 3.5l7 16l14 -2 l-2 18l33 23l-6 12q10 23 14 31t24 37l11 2q14 25 33.5 51.5t39.5 52.5q41 16 82 33q23 8 46.5 10t36 2t14.5 4h38l3 -20q0 -10 -18.5 -46t-49.5 -83l-14 -6l4 -6l16 4v-13q-8 -4 -16 -7t-11 -1l-14 -12q-4 -8 4 -16q2 -2 6 -2q-8 -4 -16 -7l-8 -26q-12 -2 -11 -8.5t5 -16.5 q0 -10 -6.5 -22.5t-8.5 -18.5l-41 -12v-8q0 -4 11.5 -8.5t11.5 -10.5q0 -4 -8 -7t-13 -1q-12 -33 -12 -47l-8 -2l-4 -12l-15 2q-6 -14 -8 -21l-14 -14l-21 -14v-33l15 -2l-10 -17l-13 11l-8 -27h8v-12l-20 -2l-4 -27h-11q-10 -20 -21 -44t-15 -42l2 -8h-11l-20 -17 q25 4 18 -18l-22 -6l-6 -33l8 -4q-23 -4 -25 -2l-12 -41l2 -18q0 -6 -2 -15.5t-2 -13.5l-18 -23l-19 9q-4 2 -10 -20.5t-6 -27.5l-15 5l-4 -5l23 -8l2 -22l-45 -25l16 -26l-4 -15h-20l-7 -10l7 -43q-6 0 -3 -7t1 -9h-23v-13l-14 -14q0 -8 12 -12q0 -4 2 -6h-20v-19 q-16 -6 -9 -16q12 2 29.5 8t26.5 8l18 -4q14 0 45 9t49 20h35l-6 12l33 -4l12 6h31l18 6l19 4q20 4 19 8.5t-1 8.5l18 -7l39 11l7 8h18q14 6 27.5 10t15.5 -4q18 0 55 6t58 6q14 0 30.5 -5t28.5 -7l8 -22l-10 -15q-20 -4 -31 -12q8 -16 8 -37q-10 -10 -14 -16 q-35 -37 -41 -41v-19l-29 2l-4 -4l2 -20l-18 -13l-41 3q-6 -4 -23.5 -15.5t-25.5 -13.5l-8 6l-15 -4l-8 -19q-6 -4 -11 4.5t3 12.5l-41 -10l-14 -21q-4 10 -2 12l-19 9l8 -19l-28 -6l4 14h-15l-22 -2l-16 -16q-29 0 -45 -23h-19q-6 2 -10 3t-14 -1q-8 10 -13 7 q-4 -16 -4 -23l-18 -6l-11 12q2 -4 -6 -8t-23.5 -10t-21.5 -8l-10 18q-4 2 -8 -2t-4 -8q-20 -16 -41 -17v-18q-16 6 -10 14q-14 0 -40 -9t-38 -9l-6 -8q-33 -2 -52 -2q-10 4 -12 8t4 6h8l-2 10h-28l-27 8l-14 27l-15 -2q-8 0 -16 16.5t-10 20.5l-6 -2l-17 8l15 8v8 q0 4 -10.5 6.5t-10.5 6.5l-18 6z" />
<glyph unicode="M" horiz-adv-x="1554" d="M-90 47q18 31 135 211q55 86 82 129l4 4l82 141l66 123q158 309 317 621l4 4q33 23 57.5 33t40.5 10q12 20 47 31.5t66 11.5l51 -25q31 -49 44.5 -96t13.5 -102q0 -57 -15.5 -167t-15.5 -153l-10 -12q0 -20 -6.5 -57t-6.5 -54l-8 -2l2 -14l-16 -31h10l-4 -26q10 10 14 8 q127 145 195 219q125 137 254 264q143 141 207 176q16 -2 57 23q29 16 57 35l11 2l32 16l11 -8l20 18l25 6q4 -4 6 -2q6 -12 9 -31.5l7 -45.5q-4 -10 -13 -12.5t-11 -4.5q10 -6 10 -10q-4 -10 -17.5 -30.5t-13.5 -41.5l-8 -12l6 -4l-35 -37q-4 -6 1 -7t14 -1l-33 -19l10 -14 l-31 -29l15 -4l-29 -10l2 -18l6 -2q-8 -10 -14 -19l-17 -18v-19q-14 -12 -20 -18q-20 -23 -21 -41q0 -18 -3 -24.5t-9 -0.5l-24 -32q14 -2 14 -7q0 -18 -17.5 -25t-35.5 -7q-4 -6 -8 -11l12 -2l-12 -6v-10l20 4q-4 -29 -29 -47h-14v-25q10 -4 14 -4l-9 -18t-9 -19l-23 -6 l15 -8l-2 -10l-29 -8l18 -21l-20 -37l-12 -6l-7 -14q12 -6 19 -10l-27 -25l-4 -22l-20 4l-2 -13l32 -22q0 -6 -16 -6l-10 -19l-8 8l2 7q-16 -27 -33 -54v-26l-16 2l-21 -23l21 8q-4 -35 -18.5 -62.5t-18.5 -37.5q-10 -27 -11 -43q0 -10 7 -16l-21 -60q-10 0 -9 -8t5 -16 l-37 -8q-4 -2 -10 -23t-14 -23l-37 2l-6 7v-25h-9v-8l-16 -8v10q-8 0 -25.5 -18.5t-31.5 -32.5v-13l-54 -16q-18 8 -34 29h-9l-4 32q0 47 39 188.5t60 190.5l10 2l-2 13q0 14 12 33.5t9 34t3 13.5t17 -6l-13 17q10 14 15 22q14 27 14 39q0 8 14.5 41t32.5 70h-4l-90 -86 q-10 -25 -34.5 -42.5t-26.5 -21.5t-2 -8t-3 -16l-24 -8v-15q-8 -6 -49 -51t-41 -51l-8 -6q-31 -41 -35 -47q-20 -31 -27 -52q-18 -6 -33.5 -35.5t-15.5 -50.5l-16 -8q-8 -16 -4 -19t20 -3l-2 -11l-31 -2q2 -8 4 -12t9 -12h-9l-18 -8l4 -23q-29 -20 -43 -29q-27 -18 -37 -36 h-31l-24 -19h-35l4 -12l-12 6q-6 4 -10.5 3t-15.5 -10t-21.5 -14.5t-22.5 -5.5q-12 2 -17 6.5t-11 12.5l-19 28q43 125 87 264.5t71.5 274.5t27.5 250l-12 -27q-18 -2 -19 -10t-1 -18q0 -8 -19.5 -25.5t-11.5 -30.5q-35 -25 -31 -59l-26 -8q-2 -6 14 -17l-31 -30l6 -19 q-27 -27 -31.5 -38t-4.5 -38h-9l-22 -16l14 -4v-16l-12 -2q-12 -20 -35 -54q-35 -47 -39 -53l2 -12q-12 -8 -17 -15.5t-9 -17.5q-16 -37 -48 -61q-4 -25 -63 -109q-41 -57 -82 -106l-8 2l-8 -11h-27q-12 0 -18 -4v-10l-33 -43l-8 -14l-19 12l10 10l-8 2q-6 0 -14 -16.5 t-12 -16.5q-33 0 -51.5 7.5t-36.5 31.5z" />
<glyph unicode="N" horiz-adv-x="1335" d="M-14 240l10 -2q43 111 135 254q84 123 168 247q102 154 150 254l8 2q45 96 57 123q37 76 57 125q6 -4 8.5 0t2.5 6q16 16 49 31q80 43 162 86q29 -49 39 -113.5t10 -144.5v-49h10l10 -45l-8 -19l8 -20l-8 -12q8 -25 8 -37q0 -25 8 -39q-6 -12 -6 -29v-18q4 -8 4 -11 l-10 -10q8 -2 14.5 -7t-0.5 -15q-8 -2 -10 -4q-12 -10 -12 -27q0 -12 9 -10t22 8l-9 -37q2 -8 7 -14l4 -27q0 -16 -4.5 -18t-6.5 -4l15 -29l8 2q33 61 92 141q51 68 105 137q33 49 67 99q115 156 144 188q86 98 180 146q20 0 41 10q31 16 61 33l23 -11v-12q-25 -59 -72 -133 q-29 -45 -86 -125v-12q-16 -8 -27.5 -31t-11.5 -45q-4 -2 -15.5 -16.5t-19.5 -18.5l2 -16q-12 -10 -8 -17l-24 -24l-15 -19l10 -10q0 -10 -18 -6q0 -10 2 -21l-8 -16l-39 -6q-4 -12 4 -33q2 -2 5 -4t1 -4t-20.5 -11t-22.5 -14v-10l-2 -18q-8 6 -12 4q-8 -8 -16.5 -22.5 t-12.5 -20.5l-10 -8v-35l-37 -17q6 -14 6 -22q0 -10 -13 -21.5t-28 -13.5l-10 -27l6 -10q-10 -8 -16 -13t-6 -26l-13 2q-20 0 -24 -15t10 -15v-23l-25 4l-18 -39q2 -4 4 -6l-24 -22l-5 -27l-8 -6l2 -25l-12 2q-6 0 -5 -9t3 -13l-33 -25l-8 -28q10 -10 8 -13 q-25 -20 -37 -43.5t-24 -64.5l-23 -15q-4 -20 -11 -34.5t-22 -24.5l-14 2l-4 -14q-4 0 -13.5 -2t-0.5 -19l-29 8q0 -16 -29.5 -25t-46.5 -9q-2 -10 -4 -13q-8 -12 -14 -6v-26l-31 -5l-14 7q-10 18 -19.5 37.5t-9.5 37.5q0 6 4 19l-8 22l10 23l-12 27q8 0 8 18v53q6 6 0 11.5 t-8 9.5l4 16l2 23l8 16q-6 39 -8 100.5t-2 69.5v90t2 92q0 76 -3 117t-15 96q-20 -14 -80 -123q-37 -68 -72 -133q-12 -16 -20 -26q-16 -23 -13 -29q-8 -10 -20 -34.5t-25 -31.5q-4 -14 -7 -24t-11 -10l-19 -11q12 -10 11 -16q-14 -6 -25.5 -28.5t-15.5 -43.5l-17 -4l-2 -31 l-16 -16l6 -25q-14 4 -19.5 -11t-9.5 -13l-12 -35l4 -12l-24 -15l-5 -20h-8q-20 -29 -49 -49v-12l-39 -23q2 -8 -10 -16q-2 0 -6 -2q-29 -23 -58.5 -43.5t-64.5 -32.5l-45 22l-14 25q0 25 9 48.5t13 37.5q27 55 37.5 72.5t30.5 42.5z" />
<glyph unicode="O" horiz-adv-x="1093" d="M223 840l10 2q35 72 138 178q88 92 168 156l6 2q45 39 88 72.5t90 68.5q2 2 4 5t6 5q18 14 38 24.5t49.5 23t49.5 20.5q41 14 91 14l6 6l12 -6l20 -6q29 10 41 10q18 0 19 -26q8 -4 10 -2t-2 10l37 -4l41 -27q-2 -4 3 -9t9 -3l17 -17l-11 -14l13 -23q10 14 14 15l14 -25 h-8q-8 -10 -15 -22.5t-3 -18.5l28 -6q6 14 -2 31l21 -25l-4 -24l-15 2q6 -8 9.5 -15.5t-3.5 -11.5l29 -14l-4 -6h-23l3 -17q2 -2 7 -1t13 5l16 -22l-4 -4l-24 -2l-2 12q-6 0 -8.5 -8t-0.5 -15h41l-38 -12l8 -18l30 -8l-10 -23l-22 16v9l-15 -17q0 -4 21 -10l16 -12l-20 -9 l2 -20h12q-8 -4 -16.5 -6t-12.5 2l-8 -23q4 -6 10 -4l13 17l2 -23q-4 4 -7 0t1 -8l-13 -18q0 8 2 18l-4 10l-4 -4l-6 -49l18 -12l-14 -21l2 -8l-20 2l-4 -14l14 -2l-29 -37q-4 -4 1 -10.5t10 -2.5l-19 -24l2 -16l-24 -11l-7 -6l23 4l-16 -24l-23 -6q6 -10 12 -19l-18 -6 l-4 -10l14 2l-16 -17l-6 -20q-8 -2 -5 -12l-4 -9l-26 -6q14 -6 10 -14l-31 -14v-19h8l-16 -26l-8 4l-35 -4q2 -2 17.5 -2.5t15.5 -12.5l-12 -8q-4 -10 -11 -20q-12 -18 -22 -35l-33 -17l12 -4l-16 -22q-8 6 -17.5 -2.5t-0.5 -14.5l-21 -12q-4 -8 6 -14l-12 -4l-29 -48l-8 -8 q-31 -18 -59 -35v-12q0 -10 -15 -14q-18 -20 -37.5 -40t-40.5 -34v-8q-18 -20 -33.5 -32.5t-33.5 -20.5l-14 -6q-14 -8 -15 -27l-39 -19q-6 -8 -62 -44.5t-70.5 -43t-22.5 -12.5l-6 2l-3 6l-12 -28l-24 -4l2 -11h-15v-20h-18l-6 12l-17 -10l-2 18l-22 -8l4 -8l-19 -6v8v8 l-18 6l-23 2q-4 -2 -8 -6l-8 15l43 10l-22 8l-48 -18l-51 49q-29 49 -55 100q-43 84 -43 180q0 76 6 118t29 146q33 66 71 136q31 53 76 129zM369 317v-30q-6 0 -13 -15l17 -4q6 -31 21.5 -53t41.5 -22q49 0 96 26q61 35 130 117q39 53 80.5 109.5t68.5 107.5q18 35 37 80 q47 119 55 145.5t21 67.5q4 14 6 36.5t4 51.5l10 18h-8q0 106 -14 170q-27 121 -97 121q-78 0 -120 -43q-43 -49 -84 -96l-13 -4l-4 -21l-8 -22l-21 -4q-4 -12 11 -17q-27 -27 -51 -53q8 -8 6 -12q-14 -2 -25.5 -16.5t-23.5 -36.5l16 6v-11l-27 -28l-12 -2q2 -18 6 -19 q-10 -20 -18 -35q-14 -23 -17 -36l-16 -17h10q-18 -37 -29.5 -72.5t-22.5 -75.5t-13 -50q4 -12 8 -23q-14 -16 -15 -43l9 -2q-18 -59 -19 -66q0 -18 2 -32q-4 -4 -6 -9l12 -41l-6 -16l-6 -6l12 -18q5 -7 9 -5zM868 1389l4 6l-10 -2z" />
<glyph unicode="P" horiz-adv-x="1173" d="M184 557q4 -4 6.5 0t2.5 6q78 127 90 150q61 104 88 151l32 51q4 4 26 34t28 32q6 29 37 51l-5 4q8 12 13 11l35 53q4 -2 13 7t5 13l25 33q-14 -6 -35 -8t-39 -2v8q-8 4 -18.5 5t-10.5 20q4 6 10 12l76 90q51 51 105.5 75.5t126.5 30.5q0 4 7 6.5t9 -4.5q86 10 160 11 l2 -8l33 -3q6 8 24 9q35 0 91.5 -20.5t78.5 -37.5q6 -2 8 0l4 4l19 -4l31 -14q6 -4 14 -8q4 -10 8 -15.5t8 -1.5l25 -20l-2 -14l6 -15l10 17l12 -4q-2 -2 -18 -15q0 -6 10.5 -7t24.5 -1l8 -8l-8 -21h14l-6 -28l16 -4q0 -4 -4 -17q6 -2 11.5 -2h11.5l-8 -39q12 -18 1.5 -22 t-14.5 4l-20 -17q6 -4 12 -5t21 3l-19 -28q4 -6 10 -11l-12 -2l-10 -22q-2 -6 4 -16q0 -2 6 -9l-4 -8l-20 -6q12 -16 12 -29q-12 2 -23 4q-12 0 -12 -28l-12 -4q-10 -4 -17.5 -7.5t-13.5 -3.5l10 -10q0 -4 -7 -10t-9 -10l-39 -19q4 4 8 0t0 -8l-28 -2l-23 -23l-25 -6 q-8 -12 -1.5 -14t10.5 -2q-37 -14 -56 -23v-8q-20 -18 -27 -21t-24 -3q-14 -4 -29 -6q-14 -8 -25 -20.5t-9 -16.5l-33 8l-14 -21q-29 -6 -44.5 -9t-15.5 -11v-8l-20 -4q2 -4 -7.5 -8.5t-19.5 -8.5q-31 0 -39 -2l-16 -22l-21 6l-10 -2l-10 -29l-25 -6l-18 10l-8 -14q4 0 8 -1 t0 -5q-10 -2 -25.5 -2t-29.5 2q-33 0 -39 -17l-23 8l4 -10h-18q-31 -12 -62 -22q-20 0 -49 -15.5t-45 -19.5l-4 -25l10 -8q-6 -16 -6 -20l-24 -4l-5 -23l11 2l4 -4l-35 -27l2 -24h4q0 -4 2 -6l-18 -7q-2 8 -2 11h-7l-12 -23l8 -8l-4 -6l19 4l-11 -6l-22 -12l-4 -25l14 -4 l-8 -2l-12 -12l-19 -19v-14l23 -2l4 4l-10 -25l-19 2q4 -12 8 -22h-16q-16 -14 -16 -19h28q0 -12 -2 -14h-18q-4 -6 -6 -12l12 2q0 -4 -11.5 -19.5t-11.5 -34.5h-8l-20 -4l-12 -28l28 4l-2 -8l-31 -13l-6 -24q8 4 14.5 2t6.5 -8q-10 -4 -21 -7q-2 4 -2 9 q-104 -61 -157.5 -88t-102.5 -41l-24 14l-13 39q27 96 72 203q61 129 90 196q16 45 33 78q61 121 63 127zM555 651q12 0 31.5 7.5t38.5 13.5l4 4q25 4 46 12t27 14l15 -4v11q4 -2 14 1t14 7h3l18 12q27 2 70 27q63 35 67 37l12 4v8q70 25 113 72q37 45 53 65q29 37 41 74 l-4 4v24q0 82 -88 117q-33 14 -162 35l-8 -6l12 -8l-2 -13q-25 -6 -43 -4l-6 -10q20 -6 27 -8l-6 -6h-17l-6 -4l-18 10l-10 -12l14 -13l10 -4v-6h-27l-10 -16l8 -2l-4 -9l-14 -12l-16 4v-8l16 -12l4 -8l-10 -7l-17 2q12 -10 9 -14h-9q-8 -25 -32 -20l-6 -4l-7 -23l17 8h8 l4 -12q-2 -10 -13 -14t-22 -9v-8q27 -6 29 -6l2 -10q-25 0 -39 14l-4 -16l-18 -2v-8l4 4h14l-6 -21l6 -12l-14 -17l-21 7l-12 -7v-10l6 -4l8 -18h-14l-8 -2l2 -19h-11l-8 4v-18q-4 4 -6 0t-2 -6l-6 -6v-9l-4 -12l14 14h8l-6 -10l4 -4h11l-29 -8q-6 -18 -27 -18v-11l19 4v-8 h-19l-2 -8l10 -4q-6 -8 -17 -21.5t-19 -19.5q2 -2 4 -2h6l-14 -25z" />
<glyph unicode="Q" horiz-adv-x="1249" d="M53 334l-10 4q0 8 9 6t11 0l-12 25q-4 12 6.5 64t18.5 61l10 -5v11h-10v8h10q10 41 18 67q12 27 17 39l16 39h10q0 43 115 187q82 100 162 184l22 18q23 20 68 58q23 18 70 55q131 111 196 154q131 86 226 86q76 0 160.5 -52.5t84.5 -121.5q0 -6 12.5 -11.5t14.5 -9.5 l14 -45l-8 -29l19 2v-51q0 -4 5 -4t5 -6l-13 -8l7 -35l-19 -23q-4 -14 10 -26q2 -2 9 -4q0 -4 -11 -4l-6 -6q2 -6 8 -5l-24 -34q-8 -6 -14 -11q0 -10 7 -12t15 -2v-8l-20 -15q6 -2 6 -16v-20l-13 -7q-4 -4 -5 -21t-13 -17l-6 -27q-10 -16 -21 -2l-10 -23h25q10 16 20 35v-12 l-10 -21l-2 -18q-2 -6 -10.5 -6t-14.5 2q-2 -14 -2 -22.5t2 -16.5q0 -4 -11 -3t-15 1l-21 -4l23 -25v11l18 -7l-41 -14l-24 -47l6 -6q0 -4 -8.5 -11.5t-18.5 -15.5l-31 -45l-28 -10l-6 4l-9 -8l-2 -45l-28 -23l-2 -20l-41 -29h-27l-4 -25l-23 -14q-6 -16 -14 -18l-16 -4v-13 l-58 -20l2 -19l-12 -16l-2 -35q-12 -4 -12 -16q10 -16 10 -27q-6 -8 -8 -10q-8 -12 6 -14q-4 -18 -7 -37t-13 -27l12 -4l-15 -23q2 -6 9.5 -7t7.5 -5q-14 -31 -14 -43q0 -4 5 -6t15 0l-8 -49q14 2 16 -8l-8 -8l-2 -23l6 8q6 0 7 -6t1 -14l13 -11l-9 -10q0 -12 13 -24 q4 -6 8 -15l41 -24q78 16 168 82q76 57 151 114q-10 -33 -182 -176q-158 -131 -215 -166l-27 -12l-14 -18q-10 2 -31.5 -4.5t-27.5 -6.5q-35 0 -66 22.5t-47 57.5l-4 29l-19 14q-14 47 -20 109.5t-6 124.5q0 74 6 139l-4 4q-20 -12 -31.5 -24.5t-11.5 -24.5q-16 -6 -23 -8 q-6 -6 -10 -13h19q-53 -12 -74 -45h-10q2 -6 2 -10l-13 -2q-2 4 -2 8l-4 -14l-57 -12l-6 -11h-23q-2 -4 -11 -6t-11 4l-27 -8l-27 10l-12 -4q-2 2 -4 11q-63 39 -68 41q-27 18 -38 32v21l-15 22q-12 -4 -12 13v13t2 7q0 6 -6 14.5t-12 4.5q0 20 -9.5 57t-9.5 49q0 20 8 43 q-6 4 -8 4t-6 2zM649 571q53 0 87 -37.5t42 -93.5h13l8 11l10 16q84 133 130 262t46 272q-2 27 -2 54q-8 12 -31 78q-31 90 -100 90q-45 0 -102 -47q-39 -31 -82 -86q-43 -33 -66 -72l-14 -6q-10 -23 -34 -53.5t-48 -59.5v-14l-10 -2q-8 -25 -32 -74t-26 -55l-10 -2l4 -19 l-6 -16q-25 -78 -38 -119t-18 -62.5t-8.5 -62.5t-7.5 -59l4 -6q66 51 134 104q85 59 157 59zM477 426q-27 0 -78 -35q-27 -18 -32 -28.5t-5 -32.5q0 -45 27 -87t70 -42t90 20q2 33 2 55q0 63 -12 99q-19 51 -62 51z" />
<glyph unicode="R" horiz-adv-x="1153" d="M254 702l4 7q33 45 49 69q35 49 41 74q6 -2 13.5 8t0.5 14l82 111q23 41 52.5 83t60.5 83l6 16h-18q-4 0 -12.5 -4t-10.5 -5t-32.5 -10t-34.5 -9q-14 0 -31 8q6 18 20.5 35.5t36.5 36.5q78 100 194 140t259 40q14 0 33.5 -1t21.5 -5h25l-37 -29l10 -6q4 16 6 18 q10 10 32 13.5t32 5.5v-11q-2 -2 -12.5 -4t-20.5 -6l12 -6l21 8l8 4l-4 -14q0 -4 12 -6t12 4h21l6 -4q-6 -6 -6 -10l8 -9h21l4 -8l20 2l4 8l23 -14l14 2q-4 -8 -8 -14l8 -19q12 -4 24.5 3.5t14.5 5.5v-33l25 2q0 -4 2 -8q-2 -2 -9 -11q0 -10 7.5 -10t11.5 -2v-8l-19 -8 q2 -2 13 -2l6 -4h24l7 -56l-9 -8l-10 8q2 -4 2 -12l15 -2l-2 -43q2 -12 -1.5 -28.5t-9.5 -32.5q-23 -6 -26.5 -9.5t-5.5 -7.5l24 2q0 -18 -10 -33.5t-27 -27.5l-6 -29q-18 -18 -27 -26q-16 -16 -30 -19v-10q-23 -10 -35 -29h-12l-13 -35l-14 4q-8 -4 -14 -8q2 -2 12 -10 l-10 -8l-31 2q-16 -8 -41 -29q-10 -8 -39 -35l-18 4l-8 -16l-31 -18q-8 -4 -15 -9l-90 -38l-53 -21q0 -12 -8 -10t-16 2l-7 -12h-16q-10 -4 -21.5 -9.5t-17.5 -15.5q-4 -10 8 -16q2 0 8 -2q8 -12 2 -16.5t-16 -6.5l23 -10l8 2l10 -19l-4 -10h-29l-2 -6l31 -10q0 2 2 4t6 2 l12 -8l-12 -17l23 -6l6 -10q-8 -4 -12.5 -1t-6.5 5q0 -8 9.5 -9t9.5 -18l12 -14l-6 -12l14 -14l-4 -17q0 -6 27 -6q4 0 4 -18l6 -7q4 -6 12 -34l9 -9l8 -43q-23 -12 -23 -24h15l24 12v-12l21 -25q0 -4 -2 -6t-5 -2l13 -35q6 2 12 -5t6 -15l-6 -4q-10 -61 -10 -64 q-6 -2 -12 -2l-13 -18l-12 -2q-25 -23 -49 -43q-43 -35 -90 -58v-8q-2 0 -13 -2q-35 0 -41 6t-6 31q0 45 -24.5 118.5t-53.5 123.5l13 8q0 6 -6.5 6h-16.5q6 14 4 22l-22 29q6 -6 12 4q0 2 2 8l-6 -2l-12 -4l-29 56l2 16l-27 43l-8 2q-8 27 -16 53q-14 41 -29 41l-39 -28 q-10 2 -11 -1.5t1 -15.5q-4 -10 -4 -14t2 -6q-6 -12 -8 -23.5t4 -11.5l4 -10l-14 2l-2 -9h8q2 -4 -4 -8t-8 -6q-10 -20 -19 -39l-8 -6v-18l-10 -7l-33 -16h22v-20q-6 2 -16 -10.5t-4 -20.5q10 2 10 -4l-10 -2q-2 -6 -2 -9.5t2 -7.5q-4 -6 -18 2l-7 -2l-6 -32q8 -4 12.5 0 t6.5 6l8 -8l-25 -13q-4 -16 -2 -20l-24 -4v-8q14 -8 14 -13l-14 -6l-11 -31l-18 -2v8l-16 -4l6 -6l-10 -20q-25 0 -29 -19l-35 -6l-20 -28q-23 -4 -68 -30t-78 -26q-6 0 -15 5t-14 8l-8 14q4 51 17 94q2 8 53 148zM643 700l4 7q16 4 32.5 11t30 12t15.5 11h8 q27 14 53.5 28.5t47.5 23.5q88 37 149 104q72 78 72 160q0 57 -48.5 101t-109.5 44l-78 -2q-2 -2 -20 -31q-8 -14 -31 -26l-6 -27l-23 -41l-14 -6l6 -4l-18 -23v-14h-8l-23 12l-12 -10l14 -10l4 4l6 -4h13l-19 -27l-16 4v-14l-13 -6l-16 4l-4 -8l6 -6h27v-9q-4 -6 -6 -8 q-8 -10 -13 -12l-6 8l-20 -10v-8h16l-20 -17l4 -12l8 -2l-6 -6l-19 -2l6 -12h9l8 -5v-8l-19 -4v-8l-26 2q2 -10 6 -14t6 -4l-4 -7l-10 -8l-19 2l6 -6l7 -10q-10 -6 -24.5 -12.5t-27.5 -10.5l-8 4l-4 -6l6 -6h43v-10l-6 -6h-10l-14 -15l4 -4q-8 -14 -15.5 -32.5t-11.5 -40.5 l4 -6q12 0 63.5 17t63.5 21z" />
<glyph unicode="S" horiz-adv-x="1097" d="M18 272q0 150 109 230q53 39 240 110l4 -24l-23 -39q-2 0 -9 -2t1 -15l-21 -14l5 -10l-17 -10q10 -10 10 -15q0 -6 -8 -12l-18 2q-8 -4 0 -13t8 -14h-10l-6 -16l-4 -16l-17 -58q6 0 5 -5t-11 -17l12 -6q8 -39 9.5 -45.5t11.5 -22.5l-2 -14q20 -25 62 -47.5t81 -40.5 q14 4 25 -2l34 -6q70 -8 128.5 47t58.5 125q0 47 -39 112q-14 25 -72 101l-4 6l-55 55l2 10q-10 8 -22.5 20.5t-20.5 22.5l2 6q-45 12 -97.5 113.5t-52.5 157.5q0 170 281 307q238 117 412 117q6 0 17 -9.5t17 -9.5l23 15l25 -7l-2 -14h18q6 -6 13 -10t26 -8l4 -21 q4 -4 10 0t4 8v-20h23v-10l-10 4l-19 -23h21l18 6v-16l-18 -12v-29q8 0 14 11.5t12 11.5q6 -14 6 -23q0 -14 -8 -29q8 -4 17 -8l-15 -27l6 -18l15 14l-4 -28l6 -8l-10 -21l8 -8q-2 -2 -13 6q-4 -2 -6 -2q6 -10 17 -12l-8 -15l-9 -2l4 -4q0 -6 -12 -6l-8 -8l14 -4v-23l-14 4 l-8 -20h10l-27 -27l4 -4l-8 -26l-41 -9l8 -12q-8 -8 -20 -26.5t-16 -28.5q-12 0 -23.5 -4t-36.5 -15l6 -2q-27 -10 -82 -30.5t-82.5 -27.5t-31.5 -11l-41 6q-6 0 -12.5 -2t-12.5 -6l-22 -5l-4 19l133 162l-6 4q18 12 31.5 39.5t17.5 56.5q8 23 18 45q-6 59 -10 101t-47 53 l-21 -6l-14 4q-14 -12 -63.5 -37t-65.5 -49h-8l-23 -21l-45 -43l-6 -4q-16 -31 -31.5 -61.5t-15.5 -71.5q0 -80 55 -152q12 -16 117 -120l-14 -5q0 -4 14 -6q10 -6 18.5 -11t14.5 -11l-15 -8v-15l13 -8q0 16 3 21.5t7 -0.5q14 -14 18 -19.5t19 -32.5q2 -2 -4 -8l-8 -8l8 -6 l2 -10l16 8l25 -51l8 -5v-32l18 -2q0 -12 4.5 -26.5t10.5 -29.5q-6 -4 -6 -20q0 -18 2 -28.5t8 -28.5q-6 -12 -8 -29t-7 -25l-18 -12q-4 0 -8 2q0 -6 6 -37h-8v-8l-15 4l-8 -14l15 -15q-20 0 -21 5l-31 -9v-20l-20 -4l-14 4l-5 -14q-4 -4 -12 -3.5t-12 0.5l-2 -10l-39 -8 l4 -12q-18 0 -40.5 -9.5t-31.5 -21.5l-22 2l-25 -10l-51 -17v-12l-31 -2q-4 -8 -8 -8l-12 8l-14 -10q-8 2 -19.5 4t-13.5 -4l6 -8q-14 -2 -20.5 -5.5t-10.5 -7.5l-31 7q-10 -8 -20 -15l-25 2q-2 -4 -18 -10l-21 10l-8 -4l-37 -6v12q-25 -6 -30 -6q-14 0 -15 17l-12 -7l-6 15 l-21 -8q-4 18 -4 28q-14 8 -10 21q-12 -6 -25.5 -9.5t-25.5 0.5q-2 6 -4 8.5t-6 4.5l14 24q-6 4 -18 4t-19 -2l-18 9q6 8 12 18q0 4 -9 6t-9 17h-9q-10 4 -14 4l-16 37q8 4 18 10l-24 8q10 18 -5 41l5 10q3 8 -5 10z" />
<glyph unicode="T" horiz-adv-x="1015" d="M131 123l33 8l-17 6v15h9l4 4l14 47q20 4 29 4v10h-13l13 25h28l-26 12q6 18 20.5 35.5t14.5 25.5q6 12 8 21l8 10l33 64q2 8 4 11t6 -1l4 31h10q20 27 27 57q6 -2 11 5t-3 9l166 293q100 145 150.5 222t76.5 130q-10 4 -33.5 -2t-29.5 -8v14q-20 -8 -39 -14 q-51 -20 -70 -20q-12 0 -18 2v-9h-23l-26 -6l-4 -4l-156 -18l-2 8l-21 -2q20 45 62.5 91t83.5 89q4 -4 13 6.5t14 10.5l268 51v-13q23 10 33 15l6 -4l22 6v-8h21q10 14 14 16q23 8 27 0l26 -10q2 6 6 14q18 -6 23 -6l20 10q16 -6 43 -6q20 0 43 3t52 7l34 -8l21 8l4 -4 q12 0 32.5 -4t29.5 -4q12 0 18 8l16 -10q23 -2 35 -2q16 0 14 10h23l14 -6q2 -6 13 -6q25 0 61.5 -8t46.5 -8v-17q-35 4 -55 -6l4 -6v-23q-6 4 -11 -1t-1 -9q-20 0 -36 -14.5t-30 -36.5l-10 6l-2 -10l6 -4l-31 -15q-25 -12 -46 -17t-48 -5q-18 0 -55 4t-60 4q-20 0 -33.5 -1 t-58.5 -7q-27 -35 -37 -50.5t-10 -27.5q0 -20 -16.5 -39.5t-32.5 -38.5h-8l4 -8q-20 -18 -21 -35q0 -4 -28 -4v-10l18 -10l-8 -2l-6 -9q-8 -10 -15 -6l5 -28l-15 -5l-16 -20q-10 -8 -19 -14l13 -19l-21 -16l-8 -33l-18 2q-4 -2 -7 -4q8 -10 17 -20l-29 -13l-8 -18l-23 -15 l17 -16l6 6l-14 -10l-29 -14l12 -21l6 2l9 -10l-27 -10q-6 -4 -10 -8v-17l14 -2l-10 -2l-27 -4q0 -6 16.5 -12t16.5 -13q0 -12 -9 -11t-22 7l-8 -8l-14 -4l24 -25l11 2l-5 -16l-18 4l-12 -22q2 -4 7 -4t5 -7l-16 -2l-9 7q-23 -47 -22 -54l-4 -10h-25l-6 -4l31 -6l18 -8 q-8 -2 -17 -3t-13 -4q-8 0 -17.5 -11t-15.5 -9v-20h12l8 4q-16 -23 -22 -48l-21 7l-4 -15l19 -4l-21 -8v-10l31 -10l2 -11h-19q-8 6 -12 6t-6 -20l-16 -14h-15l4 -25l25 -8l-10 -12l-25 14q-12 -14 -10 -19l29 -6l-29 -4q0 -8 6 -8h16l-14 -12q-20 -16 -35 -15l-12 -18 l23 -4q0 -6 -11.5 -11t-13.5 -8l10 -32q-10 -8 -17 -12.5t-3 -10.5q4 -8 8 -14l-12 -2q-2 -20 -9 -21q-12 14 -24 15q-10 0 -10 -19h-9q-4 10 -8 8l-35 -16q-33 -16 -82 -35q-74 -27 -83 -31l-46 33q-6 6 -12 15q14 10 21.5 35.5t11.5 40t6 22.5zM559 362l-4 -6l-12 -4 q0 10 16 10z" />
<glyph unicode="U" horiz-adv-x="1189" d="M61 166q12 -2 11.5 8t-0.5 16q-4 -2 -11 -2l27 13v10h-18l20 27l-2 10h-22l14 55q-6 4 -6 16.5t8 30.5q6 -6 14 -12v18l-12 6l8 33l-4 11l21 4l-5 12l23 2q-18 8 -31 4q6 14 10.5 27.5t4.5 17.5h20l-6 4l-8 10l10 33l16 -6q-4 12 -7 19.5t-3 13.5q8 25 13.5 30t13.5 9 l6 39q4 2 8 16t2 21l37 8q-2 8 -9 6l-14 -4q4 6 9.5 13t-0.5 15q4 12 10 25h16v12h-12v11h14l-4 20h13l-3 6l-4 6q18 10 23.5 15.5t-6.5 11.5l20 22q-8 10 8 27h15l-4 8q0 14 32 60q16 23 15 30l37 52l6 -5l10 19l-8 -4l2 14q10 4 47 53.5t41 61.5q63 70 116.5 121t90.5 47 l49 22l12 2q12 0 23 2q31 8 41 11l-4 4h39l6 -6q-6 -20 -4 -39l-23 -17l6 -12l-22 -14q-4 -10 8 -19q-20 -18 -37 -43q-8 2 -8 -6l12 2l-10 -8q-20 -29 -33 -37l10 -12l-32 -21q-6 -16 -13 -30q0 -6 -8 -7.5t-18 -1.5l8 -12l-49 -55q6 -6 -10.5 -20.5t-16.5 -16.5l8 -12 q-8 -8 -10 -13q-8 -14 -2 -24l-35 -17l8 -8v-12q0 -4 -16 -10q-2 0 -8 -2l6 -11l-16 -10q-4 -2 -9 -16q-10 -31 -20 -31q-4 0 -14 6l-13 -22l8 -13l5 4v11l14 -13v-8q-23 -4 -27 -9t6 -15q-8 -12 -10 -17q-8 -14 -6 -18l-35 -21l-8 2l-2 -8l37 -2l-17 -14v-10l-22 -15 l10 -14q0 -8 -9 -21.5t-9 -19.5l-27 -8l2 -21l-24 -12q18 6 30 2v-22h-8q-10 0 -9 -9.5t-16 -9.5l-10 -12l27 -19l-21 -4l-8 -35q2 -2 4 -7t6 -13q-4 -10 -9 -21.5t1 -19.5l-20 -25l12 -18l-27 -12q4 -8 6.5 -15.5t2.5 -13.5l-17 -4l-16 -16q4 -4 15 2t16 6l16 -6l-16 -35 l20 -25q35 0 115 68q45 41 55 49l23 29q6 4 31.5 31.5t29.5 25.5l43 59l84 97q14 -2 21.5 14t13.5 33h10q6 14 25 45q39 61 36 67l5 13l16 8q0 14 12.5 34.5t12.5 32.5q10 0 10 15q0 39 131 239q123 188 174 240l20 6l5 6q86 31 172 64q4 -6 18 -6q29 0 35 -9 q-74 -109 -115 -170q-47 -70 -47 -79h-12l6 -11l-14 -14l-7 -31h-8l-18 -35l2 -10l-10 -10h-11l9 -4v-8l-27 -23q-2 4 -6 0t0 -8t7 0t7 10q-8 -12 -16 -26q0 -2 -4 -7.5t-7 -9.5q-8 -12 -2 -16l-10 -23l-12 -28l-19 -4l17 -13l-4 -4l-19 -8l-8 -27q-12 0 -12 -16 q0 -12 4 -21q-4 2 -10 -5t-9 -13l-22 -4q-14 -12 -14 -37q2 0 5 1t9 9l4 -10l8 -8h-24v-8q4 -2 12 0q2 -6 4 -13q0 -4 -11 -8t-11 -8q0 -6 10 -6t10 -8h-12q-2 0 -17 -13q-4 -2 -12 -10q6 -2 14 -2l11 -8l-17 -14l-10 6l-14 -15l2 -8l8 4l8 -12q0 -6 -7 -5t-11 1l-2 -23l6 2 l4 -6q0 2 3 3t7 1l-2 -6l-20 -18l-15 -8l13 -9h-13q-6 -10 -3 -12t1 -6l-18 -20v-17q0 -4 16 -4l-24 -33l2 -18l-17 -2q-6 -20 -9 -34.5t-5 -27.5q-4 -8 -8 -14l10 -2q0 -10 -5 -13t-5 -26h-8q-10 -29 -15 -39l8 -8q-10 -14 -19 -51t-9 -56q-14 -12 -17 -10l4 10h-20v-12 q2 -8 -3 -12t-11 4q-10 -25 -33 -36t-41 -11q-4 -18 -2 -21l-25 -8l-12 -24l-12 -7l-25 3l-6 -3v9l-31 10l-14 24q8 -2 16 -2q-4 14 -8 29l-4 21q10 55 23 112q0 12 2 27q8 10 6 18l12 19l6 -2v8l-8 4l18 14l-16 17l6 4q10 23 8 37q-12 -12 -32 -25q-39 -25 -39 -39l-17 -2 l2 -8l-24 -6l-4 -15q-29 -10 -47 -32q-4 -16 -5 -25l-18 -8l2 -14q-8 6 -16 14l-13 -27q-23 -6 -28 -8v-14q-16 -10 -35 -32t-45 -30l-4 -14l-21 -8q6 -4 0 -9.5t-14 -0.5l-37 -37l2 6v8q-14 0 -26.5 -10t-24.5 -21l-4 -14q-23 -8 -37 0l-16 -18q-6 2 -10.5 -1.5t-6.5 -5.5 l-2 7l-24 2h-15q-14 10 -28 18q-6 23 -25 41l20 12l5 4l-21 4q-8 2 -8 8.5v14.5l-6 2q0 10 20 6l6 12l-20 11q0 4 -17 10z" />
<glyph unicode="V" horiz-adv-x="1058" d="M88 16q0 8 6 19.5t12 23.5q63 184 130 371q8 20 17 62.5t17 68.5q16 35 21 51q-2 8 -2 17l26 92q23 78 35 119q23 78 23 100q27 133 30 152q16 70 39 151h9l16 29q10 -4 15 6t12 8l34 35q6 8 15 8q8 4 10 6q12 8 10 13l21 18q29 6 47 6l8 8q0 -16 10 -42.5t10 -34.5 q0 -43 -11 -147.5t-11 -137.5l-23 -82l2 -25q-4 -27 -6 -51l-14 -2v-29l-4 -38l-6 -7v-22q-8 2 -17 -6l2 -31q0 -12 -5 -23.5t-9 -21.5l-12 -8q-2 -4 4 -7t6 -8l-12 -4l4 -30q-12 -10 -10 -15l-15 -14l6 -16q-2 -4 -5 -9.5t-9 -3.5l-14 -57h8q133 166 227 278q43 51 234 275 q74 76 127 131q104 109 102 121q43 23 80 49q47 33 74 59q8 4 12 4q29 10 37 11q10 0 27.5 -7.5t25.5 -9.5l2 -20q6 4 8 -2t4 -8q-4 -18 -26.5 -53.5t-22.5 -41.5l-14 -8q-12 -8 -25 -16l-26 -27l-4 -16q-2 -4 -4 -6l-29 -13l-8 -22l-9 2q-4 0 -12 -8.5t-6 -12.5 q-14 -2 -30.5 -15t-26.5 -30q2 -6 0 -7t-13 -1q-8 0 -34.5 -30.5t-28.5 -39.5l-14 -2l-7 -22l-24 -8q0 -12 -17.5 -28.5t-15.5 -20.5l-27 -17q6 -4 7 -12l-11 2q-6 0 -43 -41q-14 -16 -49 -55l2 -13l-43 -39l-14 -2q8 -8 4 -12l-20 -22q-2 -10 -6.5 -17.5t-12.5 0.5l-16 -24 l-6 4q-10 -10 -15 -10q-4 -20 -14 -40t-27 -28q6 -6 0 -11t-10 -5q-16 -25 -31 -37q4 -4 0 -8.5t-8 -2.5l-22 -32l-9 -2l-2 -23l-24 -4l12 -6q-14 -12 -18 -21.5t-21.5 -13.5t-13.5 -16h22l-18 -21l-31 -8v-23q-10 -8 -12 -12q-6 -2 -10 -4l-17 -33q-16 -14 -12 -20 q-16 -23 -45 -33l2 -10l18 2l-4 -4h-8q-2 -2 -13 -21.5t-20 -17.5l-36 -43q-2 -2 -11.5 -7t-3.5 -10q8 -2 17 -2q-2 -2 -52 -36l9 -13q-18 -16 -33 -39.5t-19 -44.5q-8 6 -12 0l-8 -12q-4 -2 -17 8l-16 -6l-12 -22l-17 -3l-30 -36l-17 16q-2 -4 -11 -2t-13 -2v-16l-13 2 l-6 -15l-28 -8q-10 4 -21 6q-4 -6 -6 -6l-25 10q-6 -8 -14 -7t-12 3q10 22 10 51z" />
<glyph unicode="W" horiz-adv-x="1480" d="M90 23l6 20q43 104 66 170q33 92 53 176l61 184q8 -2 9.5 11.5t1.5 17.5q0 78 98 375q113 336 190 350l-6 6q10 12 82 37t78 21l2 -31q0 -92 -43 -248q-53 -193 -61 -248q-12 -6 -13 -28q0 -4 -13 -31t-3 -35q-12 -18 -25 -35l-2 -28q-10 2 -12 -5l8 -4l-30 -106h8 q35 0 59.5 45t48.5 88q55 68 150 178q45 53 92 107q84 150 154.5 197.5t158.5 47.5l25 -4l2 -18q0 -37 -23 -76q-33 -47 -45 -70l-8 -4q-4 -20 -11 -35.5t-22 -27.5q-2 -4 0 -7t4 -3q-29 -80 -43 -123q-29 -84 -28 -123q0 -20 -12.5 -53t-12.5 -49q0 -10 -20 -44 q-10 -16 -10 -26l4 -12l16 4q68 90 188 243q94 119 195 240l6 2l182 221q18 23 39 47q31 35 37 29q20 27 55 49q45 29 68 23l6 10l27 6l12 -27l8 -8q25 -4 29 -4q10 -16 16 -12l-20 -27q2 -4 -4 -15t-13 -18l-20 -18q-6 -2 -10 -4v-6q-31 -29 -45.5 -43.5t-14.5 -22.5 l-59 -57v-8q-25 -39 -76 -49l8 -7h25l-10 -6q-8 0 -13 -4q-18 -18 -36 -35l10 -4l-17 -24q-10 0 -42.5 -35t-32.5 -57h-15q-20 -8 -26 -9q4 -8 10 -14l-10 -8q-29 -6 -29 -21h8l2 7q8 -4 10.5 -6.5l4.5 -4.5l-27 -10q-16 -23 -33 -45l-24 -8l6 -13q0 -8 -14.5 -20t-14.5 -20 q0 -4 -18 -7l-15 -16l4 -6l-28 -29l-13 -4q-12 -29 -36 -35q-8 -16 -17.5 -33.5t-23.5 -35.5q-4 -4 -6 -9l-17 -16l2 -8l-28 -17l-25 -47q-8 4 -13.5 -7t-9.5 -25h-10q-2 -2 -13 -18.5t-13 -18.5l-9 -19q-25 -27 -47 -63l6 -10l-22 -13l-17 -28l-10 -7l-2 -8h-20l4 -6l16 -6 q0 -2 -10 -8t-10 -31l-15 -12l-16 -41l-14 -6v-27q-10 -6 -16.5 -11t-2.5 -9q-8 -12 -24.5 -33t-24.5 -17q-33 -37 -64.5 -56t-72.5 -19l-31 6l-2 45l4 115v18q6 20 14.5 40.5t16.5 37.5l-10 16q8 23 13 47.5t7 38.5l10 2q6 33 12.5 65t16.5 60q2 4 2 8q-6 20 -2 23l12 20 q-6 6 1.5 20.5t7.5 20.5q0 25 15 74t15 51q-33 -33 -112 -137q-158 -205 -174 -207q2 -4 -11.5 -21.5t-17.5 -15.5q-6 -8 -49 -59q-33 -37 -37 -70l-33 -20q-6 -6 5 -12.5t9 -12.5q-6 -12 -15 -23.5t-21 -23.5l10 -8q0 -4 -21 -6l-4 -33l-20 -16q-12 2 -13.5 -7.5 t-1.5 -19.5l-16 -12q-4 -2 -6 7t-4 9l-21 -45l-14 2q-4 0 -12.5 -2t-12.5 -2l-12 -22q-10 -8 -21.5 -6.5t-13.5 1.5l-16 -16l-16 4q-16 -27 -48 -31q-14 6 -39 2q2 20 12.5 47.5t14.5 41.5z" />
<glyph unicode="X" horiz-adv-x="1054" d="M526 717l-24 6l-6 8q0 29 16 29l4 10q-23 10 -35 37l2 16l23 4q-23 12 -31 23.5t-4 21.5l21 21l-11 18l-14 -6q-6 0 -8 8l-15 45l7 7l-15 28l2 31q-8 8 -16 23.5t-14 29.5q4 6 8 13l-23 38q-4 18 -4 31q12 4 17 4l-7 41l11 4l4 47h18l14 37l23 6q-2 6 10.5 23.5 t14.5 21.5l20 11l6 4l29 47h22l60 -76q-4 -14 10 -39l-10 6l8 -26h14q2 -10 3 -31.5t3 -38.5q0 -4 11.5 -6t11.5 -6l-8 -8l-2 -9l2 -6l-19 -10l19 -4l16 -45q8 -4 8 -16q-6 -4 -10 -9l-4 -24h8l-2 -21q2 -4 14.5 -4t16.5 -2l-23 -18v-8l17 -5l-4 -45l22 -8q10 0 36 23.5 t42 23.5l-8 6l6 2q25 23 45 46q43 45 53 55q-2 4 5.5 10t11.5 4q12 25 45 53q41 35 51 52l10 2l10 18q18 -6 37 23q27 41 33 45q-2 6 12.5 11t22.5 10t16 10.5t19 15.5l41 35q12 2 14 4l22 -2q0 8 3 18h22q6 -4 12 -6l10.5 -17.5t12.5 -19.5q0 -4 -10.5 -17.5t-1.5 -19.5 l-25 -10l4 -14l-16 -2q-2 -4 -9.5 -20.5t-25.5 -31.5q6 -6 4 -8l-41 -26l6 -17l-6 -6l-8 2q-10 0 -23 -16v-8q-12 -23 -26 -23q-8 -14 -17.5 -23.5t-46.5 -35.5q-6 -6 -12 -11l4 -6l-23 -24q-6 4 -16 -9q-2 -4 -10 -14q-27 -12 -43 -22l-12 4q-8 0 -9 -11l11 -4l22 6 q-2 -6 -16 -14q-4 -2 -17 -8l-14 -18l-10 8l-8 -13q0 -4 10 -4q2 -4 4 -6l-43 -10l2 -12l10 6l8 -4q0 -4 -16 -12.5t-23 -10.5l11 -6q-8 -2 -16.5 -6t-12.5 -12l-20 6l2 -8l-4 -17l-27 -8q-25 -31 -49 -59l2 -21l-10 -24q2 -6 4 -11q10 6 12 6l8 -16q0 -14 -3 -24.5 t-13 -8.5l20 -35l-6 -14h-8l14 -22q2 2 9.5 -4.5t7.5 -10.5q-8 -2 -15 -2l11 -8q0 -39 -17 -39l4 -12q16 -4 18.5 -10.5t2.5 -18.5q-2 -12 -2 -20q-4 -33 -4 -49q0 -27 14 -32t14 -24q0 -16 -10 -20q10 -47 10 -111h-4q2 -6 4 -10l2 -111l2 -10l-18 -25l-14 -8 q-4 -2 -4.5 -11t-2.5 -11l-34 -19q-14 -25 -37 -40t-53 -27q-4 -12 -39 -25q-12 33 -17.5 58.5t-5.5 48.5q0 12 4 24l-10 8l-6 33q14 -2 16 4q-8 4 -14 9l8 4l-16 32v27q0 16 2 25q-6 4 -9 14q2 4 7 8q-2 8 6 28.5t2 24.5h-23l-6 41q4 2 17.5 4t13.5 7q0 4 -19 4 q-16 0 -16 12q0 4 9 6t14 -2l-25 27q-10 31 -10 59h12l-10 31l-10 -2v10l-5 4l3 33l-17 -23l-4 6q-10 0 -35 -34q-16 -25 -33 -47l-8 -17l-28 -6q-2 -23 -2 -33q-16 2 -21 2l-18 -8q8 -23 -11 -41l-28 2q2 -4 6 -8q12 -4 6 -14l-35 -19q4 -2 0 -20q-8 2 -17 -3l-18 -10 l-18 -34q-18 -23 -36.5 -47.5t-41.5 -38.5q-4 -14 -6 -29q-37 -20 -72 -46t-69 -56q-25 -10 -49 -21q-20 -16 -27 -20q-23 -14 -33 -11l-14 17l-17 -4l-8 24q14 55 148 211q106 125 266 285q145 145 205 190q-4 10 6 19.5t20 3.5zM504 928v16l-15 -2l-16 4l-16 -10 q22 -4 47 -8z" />
<glyph unicode="Y" horiz-adv-x="1001" d="M53 41q29 55 58 111h8q10 29 18 46t25 40q78 113 157 227q6 -4 8.5 1t4.5 13q0 12 6 43t6 47v33q2 33 3 65.5t5 43.5l-6 2l4 8q-8 0 -8 4q6 20 10 34.5t4 31.5q0 12 -6 22q8 2 2 18.5t-4 18.5v-8q12 14 12 47q0 25 -6 47l8 4l-4 33q0 172 54 254q61 94 221 133 q8 -23 8 -55q0 -8 -4 -25l8 -18l-6 -31l-23 10q-20 0 -20 -22l16 -2l19 8l6 -2l2 -21q-6 -4 -10 -1t-6 5q-33 0 -33 -12l4 -4h22q-4 -14 -4 -23l21 -8l4 -16l-10 -4v-23l-21 -4l21 -4v-57h-25l4 -11l23 -2v-14q-8 -6 -8 -8q-6 -12 6 -15q-6 -16 -8.5 -39.5t-2.5 -46.5v-28 l-12 -17h14l-6 -18l-14 -10l6 -31q12 0 12 -12q0 -14 -14 -19q18 -23 6 -45l-10 -45l6 4q14 4 14 15q29 23 59 56.5t54 65.5q14 10 23 19q18 16 16 20q16 31 64 82q68 76 71 80l41 43q-6 4 0 9.5t12 -1.5q6 14 31 43q16 16 19 15l6 22q4 2 10 4v7q14 14 59 86q29 45 74 63 l19 6l22 19l4 -9l64 37l10 -2l31 12l14 -4l4 4l14 -2l-12 -12l4 -6h21q-6 -31 -23 -51q-31 -35 -61 -70l-21 -4q6 -4 6 -12h-10l-16 -15q10 -8 18 -6l-26 -18l-9 -31q-10 -2 -15 9.5t-7 11.5q-12 0 -11 -8.5t-1 -12.5l-13 -2l-8 -24l35 6v-11q-6 -2 -27.5 -4t-21.5 -12 q0 -20 26 -16q-16 -6 -18 -13l-27 7l-4 -23q-8 8 -23.5 -2t-15.5 -23q14 6 19 7q12 0 28 10l7 -6l-19 -11q-4 4 -8 2t-2 -8l-31 -16l17 -4q-12 -2 -23 -2v-8q-27 0 -33 -10.5t-4 -32.5l-33 -15l31 2q-14 -10 -19 -13t-5 -15q-10 -6 -9 -11l-10 -18l-27 4l-10 -25h-8l-27 -26 l13 4l-27 -27h-12l-4 -4l26 -8l2 4l4 -8l-10 -2l-18 6v-14q-23 -16 -31 -11l-27 -12l9 -14q0 -14 -7.5 -13t-13.5 1l-4 -11l4 -4l19 -6l-25 -2q-8 0 -20.5 -6t-18.5 -12q2 -4 14 -7l15 -2l-35 -22l-37 2l10 -21l-6 -6q0 -8 2 -16q-4 -8 -18 -8v22l-21 -4l9 -27l-9 -2 q-16 0 -23 -11t-14 -19l-6 -4q-41 -68 -63 -107q-29 -47 -29 -51l-18 -6l-4 -27l-9 4l-8 -20l8 -10q0 -18 -16 -11l-2 8l-4 -10q-4 -6 -8 -10l-15 -16l-12 -7q0 -10 5 -9t11 5l5 -10l-7 -8l-18 6l-14 -20l-11 -2l-12 -37l-22 -21l20 -2l19 33l-5 -21l9 -2l-33 -43l-21 -6 l2 -8q0 -4 -14 -4l-10 -10q2 -6 6 -10q12 6 18 4q-12 -20 -14 -35l-22 -10q-10 4 -15 4l-6 -33l-65 -37l-15 2l-8 -16h-23l-4 4l-20 -23q-10 10 -31 10q-8 -6 -16 -10l-23 -24l-30 4l-23 8l-14 -8l-4 18l-7 -8v-18l-14 30zM1044 991h33q-8 -18 -26 -22v10h-9z" />
<glyph unicode="Z" horiz-adv-x="1052" d="M78 373l55 53q12 12 36 33.5t40 40.5l12 12q76 68 96 88q35 33 93 92h12l37 33l4 6l39 39q4 -2 9 3t9 3l8 19q43 39 88 77q27 23 54 43q8 8 16 19q45 33 117 96q109 98 112 100.5t4 3.5t3 5q10 6 20 14t10 18q-27 4 -32 -12q-31 -16 -60 -33l2 7l4 10l-12 8l10 10l-4 6 l-59 -26l-21 6q-6 0 -20.5 -6t-38.5 -19l-6 -4q0 2 1 5t9 10l-6 8l-37 -15l-4 4q-20 -6 -39 -12h-6l-23 10q-8 -18 -10 -18l-72 -12l-16 6l-18 -10l-7 4l-61 -6l-27 8l13 24l4 11l28 43l41 47l-2 8l4 12q72 29 168.5 46.5t188.5 33.5q25 6 57 6q25 0 49 -4q4 6 13.5 6 t17.5 -2q0 8 27 8q29 0 41 -6q0 10 12 7t14 3h39q6 0 14 3h9h32v-9l25 -4l10 13h25l4 -11l27 8l18 -12l-6 -6l8 -18l8 4l27 -21l-12 -16q8 -4 4 -10.5t-13 -3.5l2 -29q-8 -23 -12 -27l-12 4q-16 -20 -39 -26q-4 -14 6 -19l-49 -18l24 -15l-10 -4q-27 -12 -51 -22l4 -29 q-10 2 -15 4t-9 2v-26q-8 4 -11.5 5t-11.5 5l-8 -2q-20 -16 -25 -25l13 -16l-13 -16l-37 -2l-2 -7h21l-27 -8v-8l6 -6l-12 -10q-27 -4 -39 -23l2 -8l-35 -8v-13l-18 -16l25 8l-27 -14l-8 2l6 -21h-19l-18 -28l-37 6q-6 -12 -10 -23l18 -4l-4 -10l-24 2q8 -10 8 -18 q0 -6 -9.5 -12.5t-15.5 -0.5l-12 17q-4 0 -8 -8.5t-8 -16.5h20l-33 -12l-18 6v-10h20v-23l-28 -4l-13 4v-10h9l-9 -16l-24 -4q2 -10 -7.5 -15.5t-9.5 -9.5l-18 -8l-4 -23q-2 -4 -4 -5t-10 -1q-6 0 -22.5 -8t-25.5 -8v-21l7 -6q0 -4 -6.5 -4h-16.5l-14 -14l6 -31l-19 -6l-8 8 h-12q2 -4 6 -8q0 -12 -12 -10t-23 6q-8 -2 -8 -25q4 0 10 2l21 4l2 -6q0 -12 -14 -12q-25 6 -34 6t-9 -8q0 -6 8 -23l16 -12l16 2l-4 -4l-24 2l-31 -12l-6 -19q-10 -4 -14 -8q-4 2 -6.5 10.5t-8.5 8.5t-6 -25l6 -14l-16 -17l-14 2l8 -8q2 -12 4 -14q8 0 8 -4l-10 -7l-21 17 l-18 -17l2 -12l-14 -2q-14 0 -13.5 -7t4.5 -17l-43 -19h23q2 -8 -13.5 -15t-25.5 -5l-12 -25q4 -10 10 -20l18 4q39 10 95 10q2 10 11 10t7 -6l27 10q37 4 71.5 6t55.5 9l22 -13q4 6 10 13l27 4q2 -6 6 -13q10 4 2 13h21l16 2l59 12q8 -4 19 -8l24 8q6 -2 13 -4l18 -4l-2 6 l-8 4q6 2 22.5 -8t16.5 -19h-8l-6 -6l6 -24l-9 -15h-20q-4 -2 -9 -8t-1 -10q-23 -14 -23 -33l-22 -8q2 -14 -10.5 -28.5t-22.5 -26.5q-12 -4 -27 8q-2 2 -4 6q0 -14 -16 -14q-6 0 -23 6l-24 -12l-33 10q-12 0 -31.5 -5t-23.5 -5l-21 -7v-8h-8l2 6q-8 -2 -53 -9t-62 -7 q-39 -23 -77 -23q-14 -4 -15 -8l-24 2q-43 -25 -97 -34q-16 -2 -34.5 -5.5t-22.5 -9.5q-10 0 -34.5 -4t-26.5 -4q-10 0 -36 4t-28 4q-18 18 -36.5 38t-30.5 40l2 43l-13 23q12 63 74 135q33 37 66 73h10q0 3 2 13z" />
<glyph unicode="[" horiz-adv-x="923" d="M135 330q84 156 232 403q190 319 237 404q127 229 205 415q4 2 10 3t8 4q18 10 27 14q27 12 31 2l18 24l8 -10l4 13q31 20 43 20q16 0 69.5 -5t68.5 -5l6 -4q25 0 74 3t53 3q55 0 84 -15q-2 -4 2 -8l6 -6q0 -8 -18 -37q-12 -12 -23 -24q-20 -29 -33 -64l-4 -10l-10 -2 q-14 0 -28.5 4t-28.5 8l-9 17q-6 0 -19 -15.5t-15 -23.5q-6 -2 -33 12q-4 2 -15 8q-6 0 -15 -5t-13 -5q-4 4 -6 8q-18 -14 -23 -16l-14 2v-15q-8 0 -8 15l-41 -2l-7 14l-24 -18q-10 6 -15.5 1t-9.5 -16q0 -25 -12 -24l2 -11l-14 -10v10q-4 -12 -8 -22h-11l-16 -23 q6 -2 13 3.5t16 15.5l-25 -39v-8l-6 4q-6 0 -6 -10.5t2 -22.5h-10l-17 -4q2 -6 8 -18q0 -4 2 -7q-4 -12 -8 -25t-16 -5l-21 -45l-6 6q-8 -4 -14 -8q2 -4 22 -21l-10 -10l-10 12q-6 -6 -12 -10l-11 -27q12 -6 17 -4q-6 -8 -12.5 -17t-4.5 -14l-10 25h-10l-2 -12q8 -18 16 -35 l-10 4l-8 -6l-4 14l-4 -12l-7 -8l5 -4l8 4q0 -25 -10 -29h-19v-16q0 -14 3 -15.5t3 -7.5h-6q-10 8 -18 8q-2 -12 -2 -24l16 -15l-6 3l-10 6v-13q-4 -4 -11 -2q-2 -2 -2 -12q0 -12 -9 -14t-17 -4v-17q6 -2 13 -3t5 -5l-39 -4v-29l10 -2q0 -6 -12 -10t-12 -31q0 -4 -8.5 -5 t-18.5 -3v-10q6 -12 13 -23q-6 2 -15 2q0 -8 -1 -12t-7 0l-10 8v-26l-4 -4l-6 4l-3 -9l11 -14q6 -6 6 -10h-12q-8 -2 -22.5 -13.5t-14.5 -19.5q0 -4 13 -8t13 -12h-10q-6 -8 -10 -15q-12 4 -29 4l-10 -6l-6 -12h15t9 -10l-16 -19l10 -2l-10 -4l-6 -8q-18 -2 -19 -10 q0 -6 11 -15q2 -2 10 -8l-8 -2l-24.5 7t-20.5 3v-8l-9 -12q2 -4 5 -6q6 6 14 12l-12 -29l20 2q0 -35 -24 -34q-18 0 -19 -7q8 -12 8 -18h-10q-16 -4 -31 -8l-4 -8q0 -8 8.5 -7.5t12.5 0.5q8 0 8 -14h-10l-19 -8l-8 2q-4 -10 -8 -18q4 -2 13 1t9 -10q-8 -14 -14 -26l-37 -23 l-12 4q-8 0 -8 -10l20 4l29 -10q0 -10 -10.5 -18.5t-14.5 -2.5l-12 -24l6 -21l-8 4q-31 0 -25 -20l9 -8v-17l-5 9q-4 0 -5 -8.5t-3 -16.5l-28 -6v-16l18 -3l-12 -18l-13 23l-2 -27h-8q-4 -2 -14 -2l-8 -23l20 -20q0 -20 -6 -21q-12 10 -18 11q-8 0 -19 -17v-18l-6 -8l16 -17 l-26 -4l8 -2q-2 -4 -18 -4q-18 0 -19 -6q8 -14 8 -21l-6 2l-24 -12l-11 4l-4 -12q6 -2 15 -4q14 4 14 -14h-12q-10 -2 -19 -7l-8 -2l-6 -16q8 0 14 -1t6 -7l-12 -4l-2 -23l-29 -8q2 -6 -2 -7t-18 -1l-4 -8q0 -6 9 -4t13 6l25 -19q-4 10 -15.5 2t-3.5 -14l-16 -23l4 -28l-8 8 h-21q-8 0 -4 -9.5t13 -21.5q0 -8 -11 -8q-4 0 -7 -17.5t-21 -17.5l-4 4l16 -16l-2 -6q57 6 103 10t79 4q57 0 74.5 -3t50.5 -15q-4 -10 6 -15q2 -8 -4 -20t-10 -25h-8q-2 -8 -5 -14t-16 -2l-28 -78h-15q-14 0 -31.5 6t-25.5 8q4 12 -12 13l-17 -31l-24 -6q-4 6 -6.5 8 t-12.5 -4q-25 -12 -43 -12q-10 2 -14 4t2 6h8l-12 2l-4 33q-10 -18 -23 -19q4 14 4 19q-4 -2 -21.5 -23.5t-27.5 -15.5l-8 32q-14 -18 -21.5 -25t-21.5 -7q-41 0 -41 24l-8 4q-12 0 -39 -12t-49 -12l-45 -19l-25 13q39 119 119 260q29 49 160 260q100 160 149 250z" />
<glyph unicode="\" horiz-adv-x="1015" d="M172 1323l14 14l7 -2l8 -4l4 17l-4 6l12 -6l-4 10l6 -2v18q2 -2 16 0q27 -6 73 -59t36 -78q10 -14 16 -26.5t4 -18.5l-18 2l16 -14q29 -29 29 -35l-6 -12l-14 12l14 -27l-8 2l-4 -4l14 -18q4 8 8 18l10 -41l7 -6l-13 4l27 -33h-21v-8l33 -12l-2 -8l17 -33l-13 2l15 -43 l-11 4l-8 -2l19 -18l8 6l16 -25l-4 4l-16 8q2 -6 4 -10h-8q2 -4 10 -14q16 -20 28 -21v-20l7 -6q-12 12 -41 24q23 -29 53 -47q-10 6 -12 4l-2 -6l-19 17l4 -15l15 -12l16 -18q2 -8 4 -15q-18 10 -20 8q6 -8 18 -19t23 -17v-9l-17 15h-14l16 -25l29 -12l-21 6l11 -10 q-4 -4 -9 -8l15 -21h-10l10 -10l-19 6l31 -23l8 -4l-28 -6q10 -16 20 -24.5t23 -12.5l-17 -2l8 -12h-8l21 -18h-25q-4 -2 -6 -5l51 -36l-12 2q4 -2 4 -13l-23 9l29 -29l-16 2l45 -31v-6l-10 4l-11 -2v-27l47 -24q0 -14 -2 -21q-18 4 -37 11l-8 -9q0 -6 6.5 -7t14.5 -1 q16 0 18 -8v-22l6 2l13 -13q0 -2 -3 3t-10 1l-12 -4q29 -29 45 -35l-57 9l20 -31l-4 14l19 -26h22q8 -16 12 -23l-20 12l22 -18v-10l-14 4l-10 -4l24 -21h-10l-14 -10l-10 4l28 -20l23 -9q0 -14 -23 -14h-10l19 -12q10 6 17 -3t-3 -14l16 -18q-14 6 -15 -6t-1 -17 q-8 4 -17 5l17 -13l2 6l41 -10l-17 -4l11 -14l-6 -6l36 -41l-2 -4q-10 6 -16 6l-14 4l39 -33q4 -10 6 -12v-2l-11 8l-4 -4l19 -21l-10 2l-2 -14l-13 4q25 -12 41 -35l-31 23l15 -23q-14 -10 -19 -8q25 -33 58 -47q2 -4 -4 -8q6 -6 4 -10l-19 14h-12l8 -14l-6 -2 q25 -29 51 -43l-37 6q-2 8 -8 14t-18 16l12 -22l-16 12q-4 -16 -27 -16v-8l18 -7l11 -12l-13 -2l5 -14h-23l4 -15l-35 17l4 -8l-6 -11l-28 -2l-27 11q-31 41 -64 151q-25 82 -47 166q-41 68 -118.5 313.5t-151.5 489.5q-90 287 -152 414q6 8 9 10q10 10 16 10z" />
<glyph unicode="]" horiz-adv-x="923" d="M-283 -299l86 16h29q150 0 180.5 17.5t102.5 142.5q61 115 90 172q94 180 166 281q16 39 174 315q145 254 295.5 516t150.5 283l-8 4q-4 -2 -7 -6t-5 -6l-6 10q-8 4 -14.5 4h-10.5l-111 -12q-10 0 -20 1t-8 11l-31 -4q2 14 -37 14q-16 0 -22 -2l-4 -8q-31 -6 -66 8 q8 25 44 58.5t44 58.5q20 10 53 14t47 6h29q57 0 178 14.5t154 14.5q10 -10 16 -8l6 -27q0 -20 -12 -49q-29 -70 -29 -74q0 -27 -32 -26l4 -17q0 -6 -2 -12t-6 -14l-17 -8l-10 -25l-8 2l-15 -25q6 -4 16.5 8.5t16.5 8.5q-6 -8 -14 -24.5t-23 -16.5q-8 0 -7 -10.5t5 -22.5 q-10 -18 -10 -27l-8 -8l-17 -28l-6 8q-8 -20 -14 -31.5t-14 -11.5q-6 -4 -13 -8q2 -4 23 -21q-12 -12 -14 -10q-2 6 -4.5 8t-2.5 4q-8 0 -14 -8t-8 -21q-2 -4 2 -8l6 -6l8 2l-18 -28q-4 16 -8 22t-11 0l-2 -27l13 -20l-6 4l-13 -8q0 16 -4 16v-10l-8 -8l6 -6q2 -4 -2 -16.5 t-6 -20.5l-6 4v8q-4 4 -8 0v-29q2 -2 4 -2t2 -12l-8 12h-19q-2 -20 -2 -24t9 -8t9 -7l-14 7v-11l-14 -2v-14q-2 -6 -9.5 -11t-9.5 -9l-8 4l12 -21l7 4v-8l-39 -8q-4 -12 3 -21.5t7 -17.5q-8 2 -16 2q-4 0 -5.5 -9t-3.5 -22h-10q-23 0 -24 -4q2 -2 6 -4l14 -33l-14 2 q-10 -10 -14.5 -11t-6.5 7v-26l-12 2l2 -6l2 -9q6 -8 8 -10l4 -4l-8 -10l-4 4l-25 -19q-6 -8 -10 -14l29 -12l-12 -8q-4 -16 -9 -21l-28 10l-4 -6h-11l-2 -12h14.5t10.5 -6q-12 -10 -16 -15q2 -4 6 -6v-12q-2 -6 -12.5 -6t-14.5 6v-29q6 4 10 0t4 -10l-14 4q-23 8 -39 6 l-6 -28q8 6 18 14l-12 -27l21 -4q0 -18 -4 -18l-11 12v-14q-4 -8 -8 -17l-6 7q-14 0 -12 -8.5t4 -16.5h-11q-25 -8 -28 -8l-6 -4q2 -8 6 -15q6 2 14 4q8 0 8 -16l-8 2q-12 0 -24 -2q10 -10 10 -22q-8 -16 -15 -33l-36 -25l-15 4l-4 -8q10 0 21 2l26 -10q-8 -4 -14 -9t-2 -10 l-21 -22l7 -29l-7 2l-4 9l-6 -5l-12 -3t-6 -3q16 -10 16 -22l-4 -15l-2 9q-8 0 -9 -8.5t-2 -16.5t-24 -14l-8 8q20 0 20 -19q-18 4 -22 5q-2 -12 -2 -25q0 -4 -8 -5t-19 -1l-6 -23l14 -18q4 -18 0 -21q-14 10 -18 11q-10 0 -20 -17q0 -8 2 -16l-2 -8q10 -20 10 -23h-25l6 -6 q-4 -6 -18 -2q-10 0 -12 -9t4 -16l-33 -10l-4 4l-8 -8q0 -12 7 -11t15 3q8 0 8 -14h-8q-25 -8 -35 -9q-4 -2 -6 -6q4 -4 25 -18q-8 -12 -17 -27l-32 -20q-6 -2 -9.5 0t-5.5 4l-6 -6q12 -2 23.5 -4.5t25.5 -8.5l-2 -6q-14 0 -19 -2t1 -10l-17 -25l7 -24l-13 8l-20 -6 q-8 -6 0 -17l10 -10l-2 -10q-6 2 -15.5 -13.5t-27.5 -15.5q6 -2 12 -6t6 -10l-8 -17q-4 2 -7 11.5t-9 9.5v-8l-2 -17q-10 -6 -23 -6l-8 -22l19 -25q2 -4 -2.5 -5t-8.5 -1l-8 -10q-2 12 -16 12l-15 -31l17 -24v-8l-35 6l10 22q-2 -10 -12 -8l-6 10l-33 -20h-10q0 -4 2 -10 l8 -11q-12 -8 -23 -16l-28 -4v-10q-14 -4 -27 12l-39 -19l-20 2l-17 23q-12 0 -22 1t-10 11h-9q-12 0 -25 -10t-30 -22v10l-18 20l-13 -24q-6 -2 -19 0t-11 10l-29 -2l-6 4q-37 -4 -59 -4q-16 0 -34 5t-32 15q12 27 37.5 54.5t50.5 52.5z" />
<glyph unicode="^" d="M453 1376q16 10 16 21q4 0 11 -2t9 -4l27 -2q2 -2 2 -5q10 -4 21 -4l20 -8l-2 -8h12l-8 -6q0 -4 9.5 -5t9.5 -3l22 2l6 -19l13 -6v-10l10 -6q16 2 18 0v-6.5t10 -1.5q-6 -8 -6 -20.5t9 -22.5l-15 -3q25 -25 27 -26q-8 2 -17 4q-6 -2 -1 -6l6 -4l10 -25q8 -2 8 -12v-10h6 l2 -4l-14 4l-6 -2q18 -12 20 -25q-6 0 0 -8l-2 -15q2 -2 6 -2q0 -4 4 -10l-10 -8l23 -8l4 -13l-19 5q-10 -4 3.5 -9.5t11.5 -9.5t4 -14h-13l19 -4l-10 -8l6 -5l2 -18q6 0 7 -2t-5 -4q6 -6 8 -21q4 0 6 -3t-6 -3q10 -8 9 -16t-7 -19q2 0 6 -6h4v-12q12 2 12.5 -2t-3.5 -8 l6 -15q2 0 -11 -2l13 -4l16 -24l-8 -6q10 -20 14 -31q10 -25 17 -27h10q-4 -2 -12 -2l14 -10q-4 -2 3 -9t1 -10l16 -10l4 -14q-2 -4 3.5 -14.5t7.5 -13.5t2 -6t12 -7q-4 0 -1 -5t5 -7h8l-4 -11q18 -12 19 -14l-4 -8l8 -14q6 -4 14 -13l8 -4q-4 -4 -2 -21.5t-4 -25.5 q-4 -2 -8 -3t-8 1l-13 -6q-8 2 -25.5 3t-25.5 1q-8 2 -26 14q-4 0 -9 4q-10 14 -34 37q-6 6 -9.5 11.5t-33.5 70.5q-12 20 -37 66q-51 117 -62 147q-20 59 -51 154l-6 2l-18 -25q6 0 6 -3v-5l-13 -6l5 -6q-4 -2 2 -10l-21 -11l10 -4h-9t-7 -2l6 -6q-2 -6 -3 -11t-7 -7 l-19 -13q2 -6 11 -8l-11 -6l2 -4l-16 -14l-12 -11l8 -4q-8 -8 -47 -69l-14 -9l-23 -34q-16 -14 -58 -54.5t-63 -56.5q-6 -4 -27.5 -12.5t-29.5 -12.5l-4 4q-16 4 -35 13l-8 12q4 0 -2 6l-6 6q-8 2 -9 6l-12 21q-6 0 -5 5t-11 7l2 15l-8 2q23 35 45 61q6 10 49 66q10 8 30 43 q39 63 60 98l24 41q4 2 11 4q4 8 8 27q2 8 15.5 25.5t17.5 27.5q39 84 77 166q2 8 2.5 13t4.5 9z" />
<glyph unicode="_" horiz-adv-x="1216" d="M162 -205l16 6q6 8 38 13.5t44 11.5q4 -2 10 -4h23q23 0 100.5 6t114.5 6q35 0 57 -6q14 4 43 4h43l6 6l189 4l82 -2l4 -4q49 6 98 6q59 0 113 -12v-14l10 -4l-18 -33l-11 -25q-20 -14 -35.5 -41.5t-23.5 -44.5l-4 -10l-10 -2l-7 10h-26q-16 0 -25 2l-8 17l-18 -17 l-2 -10q-16 -16 -29 -10l-8 12l-13 -8q4 6 0 10t-12 4l-2 -10l-8 -8l-14 4l-7 -8l2 12l-8 8l-8 -10l-16 -6l-6 2l-5 -15l-12 3q2 2 6 4l-4 10l-39 -4l-6 14l-24 -20l-19 4l-14 -11l-4 15l-35 -15l8 21l-6 6l-8 -10l-23 -19l2 13l-16 16q-6 -2 -8 -4t-2 -4l-9 12l-12 -31h-8 l6 23l-8 -6l-25 18l-20 -30q-6 6 -33 0l12 8l-4 4l-10 -2v10l10 6l4 12l-20 3l-12 -19h-9l3 16h-17l-12 -14q-6 4 -10 -1t2 -13l-9 -8l-6 32h-14l-10 -26l-8 4l-21 -8l-4 12l-16 12l-11 -14l-8 2v14l-18 -4l-13 6l-8 -18l-10 2l-14 -21v13l-11 6l-2 12l-18 -18l-25 -4l-8 12 l-37 2l-10 -10h-8l-21 2l-12 14q-4 -6 -8 -10h-14q-2 0 -35 6l-13 14q16 29 47 59.5t60 59.5z" />
<glyph unicode="`" d="M674 1425q6 0 17 -3t26 -7l-4 -14l-4 -6h30l11 -15h8l-6 -8l8 -10q25 -8 81 -50t66 -59l31 -22l2 -19l21 -4l-5 -6v-10h-8v-18q-12 -10 -33 -17l-10 -20q-6 -2 -22 2l-4 -4l6 -19l-15 -2q-20 0 -35.5 4t-64.5 25l-25 8l5 14q-16 8 -33 4l-33 13l-6 20l-19 -2l-26 10 q-20 8 -39 27q-37 18 -55 27q-35 16 -41 34h-9l-2 25q0 33 31 40t71 30.5t56 23.5z" />
<glyph unicode="a" horiz-adv-x="921" d="M-12 231l-8 7q6 68 24.5 120t93.5 193q78 127 264 285q207 174 318 174l25 -4l2 -7q72 -6 100 -71l22 -56h9l-13 -38q0 -6 11 -15q2 -2 6 -4l4 -20l37 -2q-10 -27 -68.5 -140.5t-75.5 -144.5l-10 2l8 -16l-24 -78l-8 -2l-15 -60h-8q8 -25 0 -41l-6 -92q0 -23 26 -31 q27 6 81.5 50.5t158.5 144.5q-6 -4 -1 -12t9 -2q-51 -59 -100 -119l-6 -12q-39 -29 -74 -60q-45 -39 -68 -69h-10l-10 -21l-16 -4q-10 -16 -33 -31l-6 -4q-18 -18 -54 -30.5t-75 -20.5q-35 14 -45.5 58t-10.5 110v55l-18 -22l-29 -21l-2 -12q-18 -18 -26 -37l-9 10l-14 -18 l-14 -2l-15 -27q-12 -6 -23 -15t-26 -22l-45 -24v-17q-12 -8 -53 -26q-23 -10 -33 -17q-4 2 -31 -4q-4 0 -14 -4q-37 0 -63.5 29t-38.5 69q10 0 10 15q-6 8 -8 10q-8 12 -13 10l-4 25l11 14v37q-8 -2 -10.5 2t-2.5 17q2 23 2 26zM225 236q0 -8 13.5 -37t21.5 -41 q47 0 133 69l70 58q2 6 18.5 68.5t32.5 80.5q0 27 42 113t42 158q0 57 -24.5 98t-77.5 49q-16 -12 -31.5 -25.5t-22.5 -29.5q-43 -49 -84 -97l-6 -18q-10 -8 -17 -27.5t-11 -38.5q-8 -10 -27 -55q-39 -94 -41 -110l-12 -5l4 -8l-17 -61l-8 -12l4 -5h11q-6 -14 -17 -18l8 -61 l-8 -9l2 -12z" />
<glyph unicode="b" horiz-adv-x="921" d="M18 225q0 51 19 121q8 29 37 117h16q4 4 -4 10q-4 0 -6 2q66 207 217 473q119 209 276 436q59 35 101 56q55 27 100 37l25 6q29 -8 41 -10q-4 -35 -56 -115q-39 -59 -77 -119l-13 -2l4 -10q0 -12 -16 -13q-8 -31 -27 -63q-29 -51 -32 -64l-13 15v-8l6 -17l-12 -24 l-22 -23h8l-4 -10l8 -2q-18 -4 -21 0l-8 -19l13 -8q0 -4 -8.5 -8t-16.5 -8l14 -10q-8 8 -14 0q0 -6 2 -13l-23 -20l13 2l-13 -23l3 -14l-29 2l4 -18l-6 -7l10 5l2 6q6 -2 8 -4t4 -7q59 45 111 70q63 31 98 35t47 4t29.5 -4t32.5 -8q-4 -12 1 -15.5t7 2.5l33 -24l12 -10 l16 -45q10 -25 11 -48q0 -16 -2 -22h-9l15 -12l-12 -11l-5 -8h17q-4 -27 -25 -45l15 -20q0 -29 -7 -35l-20 2l18 -29l-20 -8q-4 -8 -4 -35q0 -18 -10 -37q-33 -39 -48 -55q4 0 9 -16l-19 -23q-10 -8 -18 -14l-4 -25l6 -6q-6 -12 -14.5 -24.5t-20.5 -10.5 q-10 -12 -19.5 -24.5t-23.5 -20.5v-10l-8 -2l-12 -25q-10 -4 -39 -26.5t-50 -24.5q6 -14 7 -22l-13 2q-6 0 -8 -6.5t2 -10.5h-20l-29 -18l-12 -4q4 -8 6 -8q-14 -6 -27.5 -12.5t-27.5 -16.5l6 -6q-104 -68 -170 -107q-127 -76 -180 -75q-12 0 -36 8t-34 16l-19 29 q-23 41 -33 68.5t-10 41.5q0 12 7 19zM422 692q-10 -10 -19 -20q-16 -23 -20 -45l6 -6q-25 -12 -29 -37l-10 -2v-17q2 -10 -10 -35l8 -8l-6 -4l-4 -18q-16 -29 -19 -58l-16 -2l6 -18l-4 -16l-8 -3q0 -33 -19.5 -95t-19.5 -91q0 -31 19.5 -50.5t50.5 -19.5q102 0 233 240 q123 223 123 338q0 59 -24.5 90t-81.5 31q-61 0 -103 -53q-33 -51 -65 -101h12z" />
<glyph unicode="c" horiz-adv-x="702" d="M512 922q8 0 66 36q29 18 45 19q20 0 40.5 -7t41.5 -22q2 -8 11 -19t13 -16l4 -10q-4 -6 -4 -12l21 -2l-11 -21q12 -12 15 -10l8 -14l-2 -13l-19 -4l4 -14l19 6v-12h-8l-11 -8h-14l-6 -4l4 -4l31 -3l-27 -20l21 -14l6 2l-15 -11q8 -4 5 -12h-21l-10 -24l-21 4 q-25 -47 -92 -97.5t-98 -72.5l-6 8q-18 16 -19 41q0 12 5.5 39.5t5.5 34.5q0 41 -6.5 73.5t-26.5 42.5l-8 -10q-27 -33 -43 -51q-33 -37 -50 -45l15 -12l-17 -5l-10 -24l6 -10q-14 -4 -18 -4l-8 -19q-10 -20 -15 -24l-2 -19q-16 -16 -26 -14l-6 -45q-4 2 -10.5 -18.5 t-6.5 -22.5l-10 -4l4 -21q-14 -8 -20 -24l2 -25q0 -12 -7.5 -32.5t-13.5 -37.5q6 -49 12.5 -95t46.5 -46q47 0 123 43q57 33 113 80l39 29q20 16 41 34l8 7l18 18l9 -8l-15 -8l6 -4q-78 -100 -241 -234q-188 -152 -275 -151q-70 0 -99.5 64.5t-29.5 139.5q0 51 17 113 q25 72 35 106q59 150 217 285z" />
<glyph unicode="d" horiz-adv-x="933" d="M504 913q61 45 107 66.5t73 21.5q39 0 74 -22l14 33l12 4l9 26q8 10 11 17.5t9 3.5l16 29h-10q0 6 12.5 14t12.5 20q0 6 11 13.5t11 11.5q0 18 96.5 149.5t110.5 135.5l8 20l64 43l45 17q49 23 90 22l29 -4l4 -33l-21 -10l-6 -21l-8 -2v-12h-10q-10 -20 -25.5 -45 t-36.5 -51l-10 -4v-23l-22 -8l8 -12q-6 -2 -8 -4q-10 -10 -11 -23q0 -23 -14 -22l-21 -4l-4 -29q-16 -14 -16 -17q2 -10 2 -18l-27 -22q-4 0 -5 -5.5t-3 -13.5l10 4q0 -6 -14 -6l-24 -8l12 -6q10 -4 14 4l-14 -25l-15 8q-4 -10 -5 -20t14 -10q2 -14 -23.5 -21.5t-30.5 -7.5 q0 -6 11.5 -6t13.5 -4l20 4q-4 -8 -36 -35l-29 -4l-6 -14h10l6 -17l8 4l4 -8l-6 -6l-22 4q-4 -2 -8 -2q4 -14 8 -27l-17 -16q-6 -6 -12 -14q0 -6 2 -13v-16h-14l-17 -16q18 4 23 4l-4 -6l-4 -9l-29 -10h25v-8l-15 -2l-16 -27l-8 -2v-22q-20 -12 -33 -37q0 -8 2 -17l14 -4 q0 -8 -18 -17t-25 -11v-8h21v-11l-33 -14q6 -12 23 -6l-43 -37q-8 -14 -7 -16q2 0 8.5 -1.5t6.5 -7.5q-2 4 -19 4v-12l4 -6l-12 -2q-4 -4 0 -8l10 -10q-6 -6 -10 -13l-26 -10l14 2q-4 -8 -4 -14q-4 -12 -8 -25l-17 -14q0 -8 2 -15l4 -16l-24 -12l10 -12l-2 -9l-23 -8v-8 q8 -4 9 -6q0 -12 -9.5 -30.5t-9.5 -27.5q-14 -37 -23.5 -66.5t-9.5 -57.5q0 -14 8.5 -30t16.5 -16q43 0 125 62q33 25 111 92l12 -6l-14 -8q-29 -59 -180.5 -173t-215.5 -114q-14 0 -39.5 8t-38.5 19q-4 10 -12 58t-31 58q-6 -6 -22 -26q-35 -43 -45 -47l-12 -19 q-29 -12 -56.5 -38.5t-54.5 -51.5l-14 2q-8 0 -35 -12t-39 -21q-23 2 -48.5 6.5t-39.5 16.5q6 14 6 22q-6 -2 -12 -2q-8 0 -15 21l-6 20h-8q-16 45 -22.5 70t-6.5 66q0 152 133 342q109 156 254 274q39 33 70 55q23 14 76 49zM385 705q-8 -20 -43 -64q-25 -31 -29 -37 l-12 -2l4 -8l-4 -10l2 -6q-8 -12 -8 -23h-14v-10q-16 -14 -15 -37l-18 -6l4 -15l-12 -22l-17 8l-4 -6l10 -10h9q-4 -10 -5 -15l-10 -10l10 -16l-16 -15l-2 -10q4 -10 4 -31q-4 -39 -4 -57q0 -51 17.5 -82t41.5 -31q39 0 78 27t54 35q6 14 22 66.5t29 78.5q31 74 55 123 q16 33 63 119q18 31 19 70q0 45 -14 77q-20 47 -60 48q-18 0 -57 -31q-14 -12 -29 -25q-2 -12 -20 -33q-10 -12 -31 -32z" />
<glyph unicode="e" horiz-adv-x="761" d="M-27 227v9l11 32q-4 0 -9 2q-2 10 9 13v14h8l-6 31q0 16 22 69q16 39 35 78h8q23 70 132.5 183.5t181.5 146.5q94 68 167 108q115 66 181 66q53 0 81.5 -35t28.5 -88l-2 -22q-4 -8 -8 -15q0 -4 -2 -18q-4 -6 -6 -10l-17 -37q-8 -4 -10 -4q0 -4 2 -7l-24 -34l-11 -4 l-4 -17q-4 2 -20 -12l-19 -19l-18 2l-20 -12q6 -2 14 -4l-33 -25l-10 7l-6 -2l2 -15l-39 -10q-29 -31 -96 -57q-23 -8 -66 -23q-6 -4 -12 -6q-8 0 -29.5 -10t-23.5 -10q-25 -12 -64 -29t-49 -12l-19 -43q4 2 9 -9l-9 4h-10v-12l15 -6q-4 0 -10.5 -33t-6.5 -65 q0 -53 24.5 -87t73.5 -34q53 0 138 53q66 41 131 84q39 35 78 72q16 12 51 33l6 -19q-10 -20 -46 -49t-46 -41h-8l-25 -20l-10 -11l-15 -20h-8l-41 -41q-29 -29 -45 -41l-133 -103q-10 -2 -14 -4t4 -8l-64 -37v11l-20 -11l2 -8q-6 -2 -29 -2l-8 -6h-18l-11 -12q-6 4 -26 4 h-51l4 8q-10 -2 -25.5 2t-32.5 10v8l15 5l-6 4h-25q-14 6 -23 22l15 4l-6 10l-21 -2q-12 29 -6 50l-10 -2v8q12 0 10 8h-18q12 8 12 25l-17 28l9 8l-13 19v22zM526 614q35 29 56.5 69t21.5 81q0 25 -16.5 45t-42.5 20q-14 0 -21 -12h-18l8 -10l6 4l-59 -43q-6 -18 -29 -31 l-26 -18v-8h16l-21 -4l-8 -7l-12 -10l-6 -10h-8l-5 -6q0 -4 17 -10l-12 -11q-6 0 -33 -20l-4 -25l-4 -10h-9l-22 -31l6 8h10l-10 -10l-8 -2v-8q-31 -4 -37 -10l6 -6l6 4h19l-6 -11h-9v-16l7 -4q-14 0 -21 -12q53 0 143 37.5t125 76.5z" />
<glyph unicode="f" horiz-adv-x="843" d="M-102 -164l8 94q-2 12 10 27q2 2 6 4l-10 4q14 27 16 37q-2 4 -6 8l6 35h9q2 2 -5 18q12 6 21 7l-12 12q0 41 24 41l-2 6l-4 10l23 39l-5 4l66 172q4 -4 5 -1t1 16q12 25 17 32q14 47 86 179q57 104 106 182q-25 10 -33 14q-31 16 -45 43q0 18 6.5 28.5t42.5 47.5l7 -2 l43 45l32 39q8 -4 19 6q2 2 8 12l29 2l30 -6h11q137 256 222 389t132 133v11l33 18l12 -4l2 8l35 27q10 6 16 8h10l45 -2q27 -20 27 -43q0 -10 -69.5 -106.5t-81.5 -100.5q-4 -4 -1 -11t5 -9q-6 -10 -13 -19l-20 -20q4 -8 -12.5 -22.5t-28.5 -24.5l-4 -9l14 -6 q-10 -2 -20 -2v-8q-2 -6 -2 -12q10 0 10 -8l-12 -2q-10 -6 -14.5 -14.5t-2.5 -12.5q-14 -6 -26 -12q6 -4 12 -7l6 -6q-18 -35 -31 -49q-23 -29 -49 -35l25 -4q0 -20 -21 -20q-25 0 -18 -17q8 4 15 8.5t7 -10.5q-18 -6 -22 -8l4 -8l-23 -10v-17l9 -22q29 -12 49 -36t32 -54 q20 -4 35 -7.5t27 -3.5q106 0 226 53.5t231 104.5q-16 -14 -31 -28q-176 -117 -221 -144q-61 -35 -144 -69q-25 -10 -46 -17.5t-31 -13.5l4 -119q0 -35 -3.5 -61.5t-17.5 -81.5q-6 -16 -10 -29.5t4 -17.5l-10 -48l-6 -2q-8 -25 -15 -49q-4 0 -6 -10l-12 -12h10l-16 -8l6 -29 q-8 4 -13.5 -2t-5.5 -8l-12 -9q-2 -2 5 -8t3 -16l-20 -17q6 -16 2 -18q-8 2 -14 2q4 -6 4 -18l-9 -4l-8 -5l8 -2q-4 -4 -10 -15t-16 -25.5t-27 -22.5l2 -8q0 -27 -20 -37l-25 -8q-4 -10 -8 -14.5t-10 -6.5q-49 -68 -53 -71q-18 -20 -39 -33v-33l-29 -23q-4 -12 -8 -10 l-11 -37q-31 -20 -73 -61l-41 -41l4 -8h-10l-21 -13l-14 -24q-23 -16 -29 -12q-31 -18 -56.5 -30.5t-55.5 -21.5l-70 31l-25 49l13 2l-4 15l-7 6l-16 20q6 6 6 19q0 8 -12 8l-10 72v24zM145 -80v-14q0 -29 3.5 -47.5t15.5 -36.5l14 -6q20 4 29 10l24 10l7 -2v12q37 25 47 33 q25 18 39 43q84 106 139 262t55 295q0 72 -14 133q-23 98 -70 99l-14 -6l6 -15l14 2q-6 -4 -9 -7t-5 -7l-20 -2q-2 -20 -23 -33h18l9 -6l-21 -31l17 8l-23 -16l-8 4l-6 -10h14l8 4v-14h-20v-19l-13 -2l-6 -12l-35 4l-6 -10l15 -2l12 2l10 -4l4 -11l-10 2v-14l-10 -4 q-8 -14 -23 -18l4 -11h11l10 -12l-10 -18q-16 0 -27 -13l10 -16q-4 -23 -28 -27l-7 6l-4 -10l4 -16h15l-8 -6l-3 -11l-20 7l-8 -9l4 -10h22l-16 -12q-4 -12 -4 -35l-39 -2l-10 -4l12 -14l8 6l4 -6l13 -2v-9l-21 -14q-4 -2 0 -5t8 -5l-8 -2v-11q2 -4 6 -8l-12 -4l12 -4 l-14 -10l-8 2l8 -12l-2 -23h-18q-2 -6 -3 -12q-4 -8 -16 -17l4 -8h19l-17 -14v-17h15l-19 -51l-16 -4l10 -10v-10l-16 -27v-29l-11 -10l7 -10l-7 -6q4 -12 -8 -25z" />
<glyph unicode="g" horiz-adv-x="925" d="M51 53l6 -20q-10 -8 -20 -15l-27 -18q-53 -39 -88 -94.5t-35 -116.5q0 -23 19 -59q10 -20 19 -29.5t9 -30.5l9 15l63 -19q8 4 25 4h18h21q0 4 20 6q57 35 94 86q55 82 101.5 166t76.5 170q23 39 38.5 72t29.5 70l12 24q-18 -8 -35.5 -20.5t-37.5 -28.5l-11 6l-6 -12 q-14 -6 -31.5 -18.5t-33.5 -22.5l-2 -12l-29 -11l-18 -20l-15 2q-12 -14 -37.5 -22.5t-48.5 -8.5q-14 0 -31 13l-22 -3q-74 51 -74 146q0 123 97.5 278.5t207.5 225.5q61 45 158 98q80 43 162 88q4 -2 23.5 8.5t33.5 18.5q41 14 86 14q43 0 77 -31.5t34 -72.5l-4 -23l6 -6 l-2 -39l6 -8q-14 -29 -14 -64q6 0 11 2t15 15h29l8 -15l-14 -18l-4 -16l-21 -11q-2 -14 -19.5 -27.5t-21.5 -17.5q-29 -29 -53 -69q-12 -18 -74 -140q-6 -6 -4 -8l-31 -61h-10l2 -17q0 -10 -13 -29.5t-15 -29.5h-9l-4 -31l-14 -10q-8 -27 -16 -51l-15 -19l6 -12l-24 -27 l-4 7q-2 -6 1 -15.5t3 -11.5q0 -10 -14.5 -28.5t-26.5 -22.5q8 0 18 2l-4 -6l-8 -6l-4 -23q-4 2 -13.5 -20.5t-11.5 -24.5h-18l4 -21l2 7h10l-6 -13l-4 -6q-8 -2 -14 -6q10 -4 8 -14l-19 -8v-9l-14 2v-18h10l-2 -8q-10 -4 -8 -8l-26 -13l4 -20q-18 -14 -37 -31 q-27 -25 -17 -33l-51 -28v-13l-26 -18l-11 6l-2 -20q-12 -8 -19 -1t-9 7v-13q-14 -6 -13 -10l-16 -10l-10 4l-4 -10q-23 -10 -187 -101q-121 -68 -194 -67q-76 0 -128.5 42t-52.5 118q0 115 125 223q80 68 230 143q10 0 20 2zM606 543q23 45 40.5 102t17.5 100q0 47 -11 72 q-16 41 -57 41q-25 0 -86 -61q-72 -72 -84 -78l-10 -25q-23 -33 -43 -65l-8 -15l-19 -14l4 -14q-33 -35 -54.5 -116t-21.5 -140q0 -39 7 -51q16 -18 32 -37q150 92 198 169t95 132z" />
<glyph unicode="h" d="M-92 2l20 74l-8 6l12 2l-2 8q29 31 58 103q20 49 28 67l39 82h8l7 29l28 45l2 8q0 16 76 146t82 159q8 -2 17.5 10.5t10.5 21.5t2 14t7 1l20 60l13 6l-4 6q8 20 24.5 48t22.5 40l-4 4q0 4 6 9t10 7l25 64q4 -4 10 4t-4 14l28 31l-2 10l11 19q6 -2 9 5t7 15l10 17 q18 20 41 61q12 20 37 68q10 10 31.5 51t19.5 51q4 8 14.5 17.5t28.5 19.5l-2 8q0 12 33 29.5t49 19.5l10 4l4 4q8 -6 17 -10v8q12 6 48 18.5t50 12.5q8 -6 19 -12l-15 -51l-12 -2l6 -17q0 -14 -8 -20t-17 -11v-12l-14 -16l2 -17l-6 -20l-10 2q-8 0 -13.5 -9t3.5 -22h10 q0 -4 -13.5 -7t-11.5 -9l-22 -6q8 -4 3 -9.5t-14 -11.5q0 -8 -1 -15t-5 -5l15 -35l-19 -8l-2 -10l-22 6l-9 -8l27 -21l-2 -6l-25 4l-30 -10v-17l18 -2l-14 -12l-23 2l-6 -4l21 -18l8 8l12 -13l14 -2l-20 -30l-33 -4l4 -7v-20l-6 -4l23 -2l-17 -10l-22 6l10 -21h-14l12 -22 l6 2q-14 -20 -41 -21v-8h31l-4 -6l-23 -6q4 -6 4 -25l-18 -6l-2 -16q-12 -4 -19 -9h-12l8 -20l-16 -31q10 -4 13 0t5 6l2 -8q-10 -10 -8 -12l-18 4q4 -14 -7.5 -15t-15.5 -1l-4 -13l21 -10h-15q-27 0 -26 -20q0 -27 18 -27q82 63 164 127q117 82 180 82q14 0 27 -8 q27 -18 33 -19q8 0 8 -8t-2 -16h12q4 -8 6 -28.5t4 -27.5l2 -6l-6 -20l10 -12q-6 -14 -10 -25.5t-10 -20.5l10 -6q-4 -12 -8 -22l-23 -19l7 -14q0 -16 -10.5 -18t-10.5 -29h-10l4 -16l-27 -11q10 -8 11 -14q0 -6 -10.5 -12t-14.5 -2l6 -23q-8 4 -13 -5t1 -15 q-23 -35 -23 -60h-12q-8 0 -6 -8t6 -10l-20 -27l-11 -4l13 -16q-16 0 -13.5 -11.5t-3.5 -15.5t-12 -6l8 -27l-18 -8l-6 -22l6 -5q-6 -4 -12.5 -8t-8.5 -4l-12 -18l6 -15q0 -6 -6 -10t-12 -6l2 -6q8 -4 10 -6l4 -4q-6 -10 -10 -20.5t-15 -6.5l-6 -20l25 -17q20 2 70 43 q66 57 133 115l14 4l4 10q8 6 22.5 15.5t22.5 7.5l-33 -54q-57 -63 -219 -196q-182 -150 -223 -150q-51 0 -66.5 44t-15.5 106l4 4v25q6 -2 7 7t1 21q10 12 14.5 26.5t6.5 31.5l6 18l6 2q20 47 88 176q119 223 119 307l-14 35q-33 -6 -80 -45q-68 -55 -135 -110l-7 -31 l-14 2l-10 -10l20 -15l-22 -2v-10l-17 -4q0 -14 13 -14l16 -9l-12 -4h-24.5t-6.5 -14h-22l14 -21q-4 -4 0 -24l2 20h8q12 -4 17 -4l-29 -20l-25 4q-18 -12 -12 -25l31 -12l6 2l-4 -8q-14 -14 -27 -6l-8 -19l10 -2q-25 2 -51 -12v-10l10 -17l19 2l6 -4q0 -18 -10 -18 q-16 6 -25 6l-10 -25l10 -4l-47 -45l18 -14h9v-10h-11l-30 -11l-13 -6q-4 -10 0 -12t8 -2l-40 -29l-9 -22q4 2 11 4q2 -8 -4.5 -13.5t-8.5 -7.5l13 -4l-9 -24l-16 -15q-8 4 -29 -18q-6 -6 -18 -20.5t-35 -22.5q-41 -16 -51 -31q-16 -6 -23 4l-10 -20q-20 -6 -39 -4l-20 -13 q-6 4 -13.5 5.5t-11.5 1.5q-14 0 -14 12z" />
<glyph unicode="i" horiz-adv-x="581" d="M-23 174l15 -2l-4 16q0 4 6 21.5t2 26.5l10 12l-12 -2l4 4q12 29 27 43l-2 8l10 10l100 205l92 152l21 30l8 -4l12 15q-2 2 -12 2l10 24h12v8l15 5l-15 2q14 14 37 47q16 25 35 51h12q31 43 76 65q82 41 88 45l11 -4q29 25 63 25l27 -8q-4 -23 -23.5 -55.5t-21.5 -45.5 q-16 -8 -25 -36q-8 -8 -16 -17l-7 -24q-23 -16 -22 -45l-10 -3v-12q-6 2 -21 -8q-4 2 -11 2h-9l-4 -12h32v-8l-26 -11l6 -4l6 -6l-6 -6l-14 6l-4 -6l12 -2l-6 -19q-2 8 -4 12.5t-7 -1.5l2 -19q-14 2 -16 -6q4 -4 8 -6l-12 -41l-14 -2l-25 -6l-4 -12l4 -5l25 2l-11 -8l2 -14 l-18 -18l-25 4l-18 -21q2 -4 6 -6l8 8l13 -2l-7 -8l15 -10q0 -6 -7.5 -10.5t-9.5 -4.5l-16 13v-9l6 -4h-22l-15 -4l-2 -16l-12 -2l2 -10h23q0 -6 8 -8.5t8 -8.5h-10h-27l6 -10l17 4q0 -4 -9 -10q-4 -8 1.5 -11t5.5 -8l-21 -14l6 -6l-14 -4l-12 -4l-21 -11q-8 -4 -8 -12l4 -6 l10 10q14 0 29 11l2 -9l-6 -2l-8 -20l-15 2l-6 -8l12 -6l-10 -21l-12 2l-6 -4q0 -35 2 -43l-8 -2l6 -16l-12 -7v-18l4 -4q-4 -2 -7 -2l9 -37l4 -4l24 -2q37 0 111 49q96 68 192 135l11 -4q-8 -20 -119 -102q-47 -35 -47 -49q-86 -59 -172 -119q-78 -51 -109 -58q6 -4 -1 -9 t-9 3q-16 -16 -35 -18q8 -6 9 1t1 9l-8 2l-8 -6l4 12h-8l-6 -12h-17v8q-35 12 -49 23q-39 27 -39 77v19l11 -2l4 6h-19q4 33 10 45zM326 477q20 -4 32 -22l-16 -2l-14 2l-11 2l-2 6zM553 1165l-10 25q0 25 26 61q20 27 41 56l-2 6l13 -4l4 4l-4 10l4 12l6 8l8 3v10 q0 18 25 18l18 -8l6 4v19l10 4l13 -2l14 8l2 8l14 -4l7 8h10l4 4l6 -6l10 14l21 -14l4 14l6 -4l8 11l31 -3l6 -4l12 -14l-24 -74l-4 -12q-10 -10 -15 -25q-18 0 -24 -4v-10h10v-18q-23 -10 -25 -35l-14 -25l-18 -4v-10l-15 2h-10l-2 -6h-16q-18 2 -39 -23l-17 4l-12 -2 l-2 -14h-35l-6 6l-16 -12q-33 0 -35 -17l-6 5q-6 6 -6 30h18z" />
<glyph unicode="j" horiz-adv-x="610" d="M-381 43q-74 -72 -149 -145q-43 -57 -43 -134q0 -18 6 -34.5t18 -36.5q20 -10 35.5 -15.5t34.5 -5.5q61 0 256 228q180 211 219 299l72 108q33 57 67 115l6 2q18 45 39 78q70 123 103 184q63 115 94 186q29 14 91 39t91 35l27 -18l8 -29q0 -33 -57 -170q-39 -92 -78 -174 l-15 -29l-6 -2q-6 -14 -12 -27.5t-16 -27.5l-21 -45l-24 2q-6 -8 0 -14t10 -2l-13 -27q-4 -2 -8 0t-6 4l-6 -4l10 -18l-35 -9q10 -10 12.5 -14t4.5 -6q0 -16 -7.5 -15t-13.5 3q-8 0 -8 -27l-8 -4q0 -18 -6 -24.5t-12.5 -5.5t-12.5 1l-8 -14q-2 -6 3 -10t7 -4l-2 -7l-28 -24 l2 -12l-13 -3q-6 0 -14 -24.5t-20 -22.5q-18 -29 -31 -28l-2 -29h-15l-16 -39l-8 6q-16 -16 -23 -37l-57 -59v-10l-25 -10q-2 -6 -4 -8.5t-6 -4.5l-57 -59q2 -4 -8.5 -7t-8.5 -16l-22 -10v-12l-21 -19h-12l-8 -18l-12 4l-9 -20l-22 -11q-4 -12 -17.5 -22t-25.5 -15.5 t-21 -11.5q-4 -16 -16 -20l-25 6l-4 -12q0 -8 -4 -12.5t-12 -0.5l-2 8q-8 0 -6 -4t2 -8h-8l-17 -2l-10 -4v-14l-16 8l-11 -29q-4 2 -8 2q-4 12 -6 13l-6 -15q-16 -14 -35 -29q-10 2 -65 -30q-39 -23 -43 -25q-47 -25 -75 -34t-67 -9q-68 0 -103.5 42t-35.5 114 q0 121 149 252q133 117 265 151zM690 1335q25 8 41.5 14.5t30.5 8.5q45 18 92 37l27 10q29 -10 28 -27q0 -49 -33.5 -104t-66.5 -105q-29 -6 -31 -6q-23 -8 -37 -35l-32 5q-27 -10 -39 -13l-2 -6q-37 -14 -74 -29l-6 5h-39q0 47 68.5 137t72.5 108z" />
<glyph unicode="k" horiz-adv-x="993" d="M-29 217l19 16v15l16 16q6 10 19.5 39t15.5 33q6 -2 12 6t-2 10l27 41h-8l22 13v10l43 76l6 14h9q18 33 26 49t8 43h11l38 64l-6 6l9 2l43 63v12l18 19v16l12 21l58 92q27 51 41 76q8 14 45 73l12 2q43 80 67 130q49 96 46 129l12 8q43 18 63 26q37 16 61.5 31.5 t30.5 13.5q37 25 84 25l21 -8l2 -19q0 -16 -5 -32.5t-20 -47.5q-14 8 -20 -8l8 -12l-10 -8l-12 -29l-13 -2l6 -10l-8 -2l-8 -25q-23 -6 -20.5 -12t10.5 -12l-2 -15l-21 -4l13 -8l-9 -6l-24 6l-6 -20v-15l22 8l-20 -12l-2 -12h-21q2 -2 10.5 -6t8.5 -9q0 -18 -31 -18l8 -16 h-18l6 -17q-10 -12 -8 -14l-25 -4l10 -12q-23 0 -35 -17q2 -8 25 -8l-12 -8l-33 -33h29l-21 -16l-6 12l-18 -27q8 -8 10 -6l12 15l4 -13l-12 -4l-25 -6q8 0 12.5 -1t-2 -9t-8.5 -11q6 4 17 5q-6 -14 -6 -19q0 -6 -19.5 -21.5t-19.5 -19.5q10 -2 20 -2l-22 -6q4 -23 2 -29 l-19 -4q-2 -8 -2 -14l-4 4l-4 -8q-6 -4 -2 -8t6 -7q0 -8 -4 -6t-4 4l-16 -10q12 -12 16 -10l-33 -8v-8l21 -7q-16 -8 -30.5 -12t-33.5 -4l-22 -27v-20l10 -4l18 18l-6 23l21 2l10 -8q14 10 14 14q102 61 205 125q150 84 229 84q16 0 25 -2q78 0 78 -70l8 -8l-4 -23h-21 l5 -10h20q-8 -23 -14 -45q-12 -8 -27.5 -25.5t-24.5 -25.5q4 4 9.5 0t1.5 -8l-21 -4q2 -14 -13 -15.5t-20 -1.5q-6 0 -4 -7t7 -9l-37 -8q-20 -18 -46 -32.5t-51 -27.5l-12 -4l2 -10l-16 2q-45 -20 -68 -29q-94 -41 -117 -49v-24q0 -16 5.5 -62.5t5.5 -52.5q0 -14 -4 -27 q0 -4 11 -67.5t7 -75.5q10 -14 22.5 -22.5t34.5 -20.5q68 14 156 70q43 29 88 57l10 4l-14 -20l-16 -5q-4 -37 -182.5 -145t-225.5 -108q-31 0 -56.5 26.5t-33.5 59.5l-4 22q-6 2 -9 5t-3 7l4 66q0 27 -18.5 108.5t-18.5 110.5q-2 2 -4 2t-11 2l-10 -2l15 -18 q-14 -18 -29 -37q-20 -31 -14 -43l-25 -6l2 -9l-16 -6q8 8 6 11q-12 14 -17 12l2 -33l-14 -4l-4 -18l20 6v-13q-27 -16 -45 -41h23l-12 -8l-17 -22q-4 0 -8 16q-12 0 -20.5 -13.5t-3.5 -25.5l-41 -6l-15 -16l-63 -43q4 -6 1 -7.5t-18 -1.5l-16 -16l-29 -20q-20 -2 -22 -7 l-21 13h-14l10 8l-8 20l-8 19l4 -12l6 18l4 27q18 35 29 57q22 45 22 49zM287 354l-11 2q-6 0 -10 -6t-4 -8l2 -14q23 12 23 26zM285 403q10 -10 22 -10t18.5 8.5t8.5 20.5h-29l-14 -14h-17zM342 438l23 19h-33l-6 -6h-19l25 -13h10zM367 471l10 -4q18 6 98 39q39 16 68 24 l24 -6q43 0 82 24.5t76 49.5q6 14 25.5 48t19.5 59q0 51 -43 51q-61 0 -158 -54q-66 -37 -143 -96v-8l-14 -4v-12l20 6l-6 -15l-6 -10l-33 -4l-4 -10l12 -2l-10 -12l-6 -3l10 -6q6 8 21 13l-13 -19v-8q-14 -2 -26.5 -3t-28.5 -13l4 -7h-12l-6 -10l14 -8l25 10v-10z" />
<glyph unicode="l" horiz-adv-x="563" d="M-20 111l-9 14l23 14q0 4 -12 8l-5 19q0 10 5.5 23.5t7.5 19.5l-8 8l14 23v10l12 18l-2 19q4 4 9 14t12 8q0 25 10 51l14 33q18 4 19 27q0 20 55 118.5t53 100.5q16 23 33.5 51.5t28.5 52.5q2 2 13 23.5t15 19.5l27 52l4 12q23 41 37 63q27 43 41 54l39 80q8 -4 9 3t4 17 t5 14q10 20 23 37l137 234q8 6 16 14q41 10 84 23l15 16l-4 10h12l-2 -8h10l74 27l14 -13q-4 -20 4 -45l-100 -162l-4 -14l-31 -47q2 -4 4 -6q-14 -8 -22 -14l10 -7q-8 -2 -14.5 -4t-6.5 -16l-16 -10q2 -4 -2 -13.5t8 -11.5l-10 -20q2 10 -12 10l-3 -10l-18 -13l12 2l17 -8 q-10 -6 -15 -8q-18 -10 -22 -8q-8 -25 -25 -43l19 6l-8 -10l6 -2l-13 -17l-8 6q-2 -2 -2 -4q8 -16 6 -20l-26 -10l10 -7l-29 -4l-6 -20h23l-21 -12l21 -7l-27 -4l-4 9q-2 -8 -2 -14.5t6 -20.5l-35 -8l4 -13l-4 -18q6 4 8 4q12 6 17 6v-14h-15q-8 -8 -2 -19l-45 -10l2 -16 l-14 -15l29 21l14 -17v-10h-8l-53 -18q-12 -8 -25 -15l-4 -14l61 10v-16q-4 0 -14 -16q-6 -4 -12 -7l-19 -12h17l-21 -12l-8 6q-16 0 -16 -16l10 -5l14 9l8 -11l-14 -20q16 -6 14 -10l-30 2l-6 10l-5 -10q-2 -6 -11 -6t-9 -15l6 2l39 -4v-10q-16 2 -43 -6v-21l29 -8 q-14 -8 -23 -8q-12 6 -22 6l-9 -6l15 -12l-2 -6h-17l-4 -7q8 -2 17 -2v-10q14 2 18 -2l4 -22l-16 -2l-21 -17l-4 -14l8 -12h11l-13 -9l-20 2l-10 -6l16 -12h16q-20 -4 -41 -8v-13h25l2 -10q-12 -2 -16 -2t-21 -6l-12 4l-10 -2v-22q6 -4 15 0t9 12l21 -4q-10 -29 -15 -37 l-16 -6l4 -19l-27 -16l5 -6h20l8 6l-6 -19l-16 -8q2 -16 -6 -16l14 -14q59 16 173 95t230 161q-131 -129 -254 -236q-178 -154 -276 -203v-8l-16 4q-12 -14 -39 -24.5t-47 -10.5q4 4 -1.5 9.5t-9.5 1.5l-26 18q4 4 8 2t12 -8h31l8 -6v8l-6 2q-29 6 -37 -2l-6 18h-8v21 q-12 -2 -15 2q6 2 11 6l-2 25h-13l4 10l29 10h-22l-15 12z" />
<glyph unicode="m" horiz-adv-x="1468" d="M264 676q20 31 53 88l50 90l-9 6q27 35 52 53q14 10 63 35l2 6q37 16 53 23q31 12 58 16q4 -16 10 -30q0 -10 -5 -29t-7 -27h10q-8 -41 -10 -45q-10 -35 -23 -45l12 -12h-12l-16 -10l16 -7q-6 -27 -6 -28l-14 -17h-11q-10 -20 -10 -26q96 70 193 141q51 33 110.5 62.5 t112.5 42.5q39 -14 61 -39q2 2 3 -1t4 -5l-7 -17q0 -23 25 -12q2 -35 2 -53l-6 -21q0 -6 2 -12q-4 -6 -10 -10.5t-13 6.5l9 -33q-6 6 -8.5 1t-4.5 -11l15 -2q156 119 170 129q119 80 190 80q68 0 94 -72h8l-6 -19q2 -8 2 -34.5t7 -26.5v-18q-8 2 -18.5 2h-20.5l6 -15l18 4 l4 -14q-4 -4 -8 -9t-4 -20l-4 -12h-25v6q-4 0 -6 2l-10 -28q4 -4 14.5 -2t3.5 10l21 -10v-11l-21 -18l-4 10l-8 -16l10 -8h-14q-10 0 -10 -15q0 -6 -5.5 -15t-5.5 -16q-20 -37 -22 -45h-21l3 11q-4 -2 -9.5 -6.5t-9.5 -8.5v-12h10q2 -6 -8 -8t-18 -4l2 -8q12 -4 12 -15 l-4 -8l-35 -25h10l-6 -22l-18 -4l-6 -23l-25 -14q-4 -6 3 -16.5t7 -12.5l-20 13l-4 -19h-10l-13 -22q-12 -6 -8 -15l29 -2q-23 -16 -43 -30q-10 -25 -18.5 -41.5t-24.5 -28.5q6 -12 12 -23l-16 -20l10 -19l39 13q61 23 137 100q84 86 125 107v8l47 33h8l-8 -27 q-20 -8 -37 -25q-27 -29 -53 -55q-2 -12 -85 -91t-106 -91v-8q-78 -63 -125 -101q-90 -70 -143 -63l-47 4l-12 16h-8q-8 18 -12.5 30.5t-4.5 22.5q0 8 12 76q0 12 2 25q31 74 256 426q96 150 107 196l-14 29l-23 8q-51 -14 -103.5 -52t-99.5 -73l-24 -30 q-18 -16 -24.5 -22.5t-16.5 -24.5q4 -16 -10 -29q-6 -6 -31 -21q0 -4 14 -4l4 -10l-12 2l-12 -14q6 2 12 -6q0 -2 2 -4h-12l-15 -13h15l-33 -22l8 -17l-26 -2q6 -20 6 -28q-14 -12 -13 -21l-20 4q-10 -12 -21.5 -30.5t-11.5 -30.5h15v10l12 -2l-4 -18l-31 -39l-31 8l-2 -6 q16 -23 17 -29q-10 -2 -21 -2q-4 0 -4 -7t-2 -9l-6 2l-23 -33q4 2 9.5 -1t9.5 -5q-25 -18 -39 -35l4 -14q-29 -14 -29 -39q-14 -12 -35.5 -23.5t-40.5 -21.5l13 -5v-10q-10 -6 -13 -8q-4 2 -6 6l-37 -31l-6 5l-10 -2l-29 -19q-12 -8 -18 -13t-12 -11l-35 -17q-6 0 -17.5 7 t-11.5 14q0 88 101 260q92 145 189 299.5t97 220.5q-4 8 -6 13t-6 14q-66 -27 -131 -76q-12 -8 -188 -168l8 -8q0 -6 -12.5 -13.5t-8.5 -17.5h-20q2 -6 -1 -10t-5 -6l16 -33q-6 -2 -8 -10.5t-2 -14.5q-20 -18 -31 -28h-10l-19 -27q-6 -10 -19 -41t-20 -49l-24 -15l4 -10 l-6 -6q-20 -8 -35 -31q4 0 5 -5t3 -7q-12 -10 -22 -18q-14 -20 -21 -31q-14 -23 -10 -33l-25 -8l-2 -21l-12 3q-4 -14 -8 -24.5t-8 -23.5l-29 -16q2 2 0 4l-4 4v-28l-4 -19l-41 -8l-23 -25l-6 4l-61 -20l-21 8q-8 -4 -29.5 -10t-31.5 -6q-6 0 -15.5 11t-19.5 32 q49 51 166 270q57 106 102 162q62 105 125 211z" />
<glyph unicode="n" horiz-adv-x="1015" d="M209 623q14 49 43 110.5t57 118.5l6 -4l17 6q27 14 35 18q23 16 32 23q29 12 58 27q29 10 55 28l18 -12q-10 -43 -18 -80q-16 -72 -25.5 -84t-13.5 -18q-10 -14 -8 -25l2 -12q106 92 168 139q113 86 196 86q23 0 42.5 -7t29.5 -28l4 -14q2 -4 15 -8l-2 -17q4 -6 10 -12 l10 -12l-4 -21l8 -20l-20 -4v-15l12 7v-41l-16 -4l4 -13l-25 -39q6 -10 23 -4l-13 -10l-6 2l-22 -22l18 -13l-18 4q-2 -4 -2 -8l-17 -8v-16q-18 -18 -26 -35q2 -4 20 -8l-8 -23l-19 -6l-4 -19l-8 -2l4 -14q0 -23 -8 -25l-14 13q4 -6 -7.5 -9.5t-11.5 -5.5v-16l29 4l-2 -6 l-12 -2q0 -20 -15 -33l-18 4l-6 -14h16l-14 -27l-4 6l-19 5q-6 -8 4.5 -13.5t8.5 -13.5l-19 -16l12 -15h9v-8l-13 2l-12 -6l2 -14q-6 -10 -10 -19v-57l-10 -4q-4 -16 -5 -29q0 -14 7 -27l32 -6q49 0 179 80q59 37 149 100q-8 -12 -38 -38.5t-40 -44.5l-20 -11l4 -4 q-96 -86 -209 -160q-158 -104 -238 -104q-63 0 -86 51q-14 33 -14 105v28q12 0 14 9.5t-10 7.5q23 59 49 121q47 102 54 118q100 178 118 217q39 82 39 119q0 33 -30 33q-31 0 -76 -35q-35 -29 -68 -55l-4 -6q-12 -16 -78 -103q-55 -72 -78 -98v-23l-18 -18q2 2 6 0t0 -6 l-12 -29l-21 -8l-2 -14l-18 -27l2 -12q-20 -20 -14 -33h-17l6 -10l-26 -33l-15 -20l2 -7l-10 -4l-2 -22l-18 -2l10 -25l-10 6q-4 -6 -8 -10l-19 -18q4 4 9 2t5 -9l-22 -2q-12 -6 -12 -18q4 -6 10 -4l-23 -37h-14q-20 -10 -32.5 -18.5t-24.5 -18.5q-10 -4 -19.5 -8t-7.5 -8 h-18q4 -8 -8.5 -13.5t-14.5 -9.5l-18 4l-29 -14l-18 4v-16l-33 12l-6 25q0 25 75 157q98 170 199 342q19 31 37 56z" />
<glyph unicode="o" horiz-adv-x="763" d="M571 952l9 19l14 4l6 -14l12 16l6 2l15 -23h14l-4 15h10q12 0 54 -21q2 -6 6 -10q10 -2 14 -2l18 -53l5 6l12 -2l-6 -25l12 -37l6 -12q0 -16 -3 -24.5t-7 -18.5q0 -8 8 -27q-2 -12 -6 -44.5t-4 -45.5l-14 -14l4 -20l-11 -9l2 -10l2 -8q-10 -31 -32 -80q-14 -33 -37 -76 l-37 -28l10 -13l-45 -57h-10l6 -12q-12 -2 -17 -10.5t-9.5 -15.5t-10.5 -3l-18 -31q-6 4 -11.5 -2t-3.5 -12l-14 2q-4 -10 -10 -18.5t-14 -1.5q-6 -12 -16.5 -22.5l-14.5 -14.5l-17 -9q-47 -57 -102 -94l-8 -18q-31 -18 -47 -29q-33 -20 -45 -35h-19l-4 -8q-18 -6 -37.5 -12 t-40.5 -6q-82 0 -121 78q-31 61 -30 153q0 137 63 256q51 98 160 203q53 51 203 176q35 31 73.5 62.5t79.5 50.5zM211 254l6 2l4 8l4 -12l-2 -10q10 -10 13 -19l-17 2q0 -25 31 -32q8 -51 47 -52q96 0 184 174q78 154 78 258q0 92 -23.5 145.5t-62.5 74.5l-14 -2l-4 -27 l-11 6l-4 6q0 -14 -12 -24v-11l-6 -10l-19 21l-4 -13l4 -10l-12 -10l4 -14l-22 8l6 -21q-8 -12 -21 -14l-4 -10l-20 -9l4 -12l6 8l4 -10l-8 -4v-14l-14 -4l-11 8l-8 -13l-8 3v-11h18l-6 -10h-8l6 -20h-12l-2 -15l-4 -8l8 -2q-20 -20 -20 -45h-19l-8 8h-8q2 -10 14 -18l4 -13 q2 -10 -20 -18l6 -20h8q-8 -20 -15.5 -40t-7.5 -47l-20 -8v-10q4 -8 10 -4l4 -10l-6 -6l-14 4l-6 -9l16 -14v-20q10 -10 6 -15l-10 4l-18 -16z" />
<glyph unicode="p" horiz-adv-x="958" d="M-137 -37q6 0 9 13.5t11 9.5l23 67h8v13l10 18q14 25 25 61l18 13l19 49q10 27 20 55q23 51 51 88l4 12q18 37 37 74h8q8 27 27 66q31 61 33 65l4 8l47 101q25 51 52.5 108.5t33.5 102.5q33 18 55 33q49 29 54 26q25 16 44 25.5t31 9.5h15q4 -14 7 -26.5t3 -20.5v-12h-14 l-4 -11h16l2 -10q-18 -25 -35 -49q6 4 11.5 4h7.5l6 -4q-6 -14 -2 -23l-19 -8q4 -18 0 -26h-10l-2 -23q121 104 170 139q115 80 192 80q57 0 84 -71q20 -53 21 -119q0 -37 -3 -61.5t-11 -49.5q-6 -10 -9.5 -19t5.5 -14q-2 -12 -25 -70.5t-29 -66.5l4 -4q-16 -8 -18 -14 l-6 -13q-10 -14 -15.5 -31.5t-3.5 -31.5l-20 -16q4 -6 -3 -16.5t-7 -14.5l-7 -17l-6 3q-12 -14 -14 -21q-10 -16 -4 -25q-12 -16 -14 -20q-18 -20 -39 -27q-4 -29 -25 -39v-8q-39 -14 -47 -22l2 -33q-18 10 -29 10l-8 -8v-20l-31 -15l-26 -51h-23q-4 -6 -4 -35l-20 4 q-59 -35 -119 -69q-47 -23 -82 -23q-49 0 -87 27.5t-62 75.5l-9 -5q-10 -45 -6 -44t12 1v-10l-20 -4q4 -6 -1 -7t-11 -1l-11 -29q6 -6 9.5 -8t3.5 -8l-15 4q-14 -31 -26 -61l-19 -15q2 -6 2 -16v-15h-8l-14 -32h-8l-17 -39q-6 -8 -12 -17v-22q-2 -6 -23.5 -27.5t-21.5 -42.5 l-16 -6l-13 -49q-8 -6 -16 -14q-16 -25 -45 -25q-4 0 -11.5 -8t-15.5 6l-12 -18l-23 -3q-4 0 -10 -20q-4 2 -10 4v8v-22l-4 4l-8 2q-2 6 -7 12q-14 0 -14 -31l-6 -8q-6 0 -6 12.5t-4 12.5q-20 -29 -31 -37q-6 6 -12 10l-6 -28q-18 -12 -25 -2l-10 28q4 10 4 29q0 10 57 129 q76 155 152 309zM412 623h-9l-4 -13l-18 -6v-8q8 -20 29 -23v-12h-27l-2 -8q-2 2 -10.5 -1t-10.5 -3l9 -25h-9l-16 -32l-6 10l-10 2v-10l10 -7l4 -20l-25 -23l-4 -20h-8v-8l-6 -4l2 -9q-4 -18 -8 -35.5t-4 -21.5q0 -76 39 -126t112 -50q106 0 181 227q59 184 59 326 q0 31 -16.5 63.5t-47.5 32.5q-45 0 -114 -71q-43 -47 -86 -93z" />
<glyph unicode="q" horiz-adv-x="903" d="M-41 231l4 5v16l4 20q6 2 10.5 -1t6.5 -5q0 8 -1 10.5t-3 -0.5l12 50l-6 14q125 231 268 383q174 186 385 262l4 -4q16 6 42 14.5t42 8.5q84 0 115 -72q20 -47 20 -141q0 -8 -5 -14.5t-13 -14.5q8 -2 18 -2v-12l-10 -23h10q31 41 68 41q10 -8 14 -2l17 -12 q-14 -33 -58 -82q-33 -37 -74 -76q6 -4 -2 -10t-8 -15q0 -12 -9 -14t-17 -4v-23l-21 -18l-6 -23q-25 -29 -49.5 -70.5t-42.5 -80.5l-12 -8q0 -18 -31 -65.5t-27 -65.5l-29 -19l-8 -33q-4 -2 -8 -2q0 -2 2 -16q0 -4 -10 -7t-12 -12.5t-3 -18.5t-16 -9l-6 -4v-29 q-6 2 -27.5 -39t-31.5 -51l6 -10l-25 -21l-8 -20q4 -2 6 -19h-14l-17 -26l9 -4q0 -4 -5.5 -11.5t-7.5 -11.5l-12 -24l-10 -5l-6 -22l-17 -12v-23l-18 -12l-6 -39l-17 -6v-29h-14v-24l-16 -25l-11 -6v-10h11q33 10 75 36q16 10 119 82l-6 -20l-8 6l-21 -25q-4 -2 -8 -9 t-12 -1l-10 -22l-11 4l-14 -21l-12 -2l-17 -20l-26 -21q-4 2 -6 4q-8 -14 -13 -12l-12 -14q-25 -20 -35 -33h-10l-12 -31q-14 2 -41 -14q-14 -10 -35 -27q-6 4 -11 -2l-10 -12q-33 -18 -69.5 -31.5t-61.5 -9.5l-10 20l17 74q20 33 20 47q0 37 123 267q133 242 153 278 q-43 -33 -67 -49q-47 -35 -70 -37l-10 -16q-16 -8 -37.5 -15.5t-32.5 -7.5q-47 0 -87 36t-29 81l-19 14q4 4 7 10.5t1 10.5l19 8l-25 14q4 10 -2 33l8 6q-8 25 -6 45q-4 -6 -10 -6v16zM444 768l-14 -2q-8 -18 -22 -31l-9 -12l-12 -4l-6 -12l-2 -9l-8 -2v-10l-6 14l-11 -4 l4 -18l-6 -21l-18 2l6 -16q-6 -2 -8 0l-4 4l-4 -6l4 -12l8 4l-6 -17l-8 9l-9 -7l-4 -14l-10 -4l2 -10l-4 -15h-8l-15 -8l-10 -4l-14 -2l4 -18l-8 -8v-13l-8 6l-9 -4v-14h15l-6 -25l6 -24l-11 6l-8 -6l4 -15l4 -20l-12 -20h-8v-21h8l-8 -70q0 -78 15.5 -132t39.5 -54 q104 0 242 268q49 94 84 193q29 76 29 170q0 45 -20.5 73.5t-61.5 28.5q-10 -16 -47.5 -46t-49.5 -48z" />
<glyph unicode="r" horiz-adv-x="811" d="M-156 -12q39 84 142.5 247.5t142.5 243.5q84 131 119 193q74 131 84 194q88 53 136 80t77 27l20 -17l8 -30q0 -10 -7 -22.5t-9 -16.5q4 -4 4 -33q-8 -14 -14 -25.5t-17 -23.5v-10q8 -2 13.5 -3t13.5 1l-6 -11q-2 -2 -23 -8l-14 -20h18l-4 -11l-26 -18q-4 -4 0 -7t8 -2 t8 1q0 -2 2 -4q127 123 218 193.5t122 70.5l29 -4q-2 -12 8 -17q0 -12 -10 -26l-13 -2l-8 -45l-8 2q-4 -8 -6 -15l-18 -10l-9 -33l17 -12q-4 2 -6 -6t2 -12l-23 -17l-14 -12h8q-16 -53 -31 -104q-2 -16 -10 -17l4 -18h10v-31l21 -4l35 4l28 8q59 25 146 92q106 84 137 103 v-10q-16 -14 -139 -123q-90 -80 -127 -133l-15 2l-20 -33q-25 -12 -68 -45q-33 -25 -41 -31l4 -8q-27 0 -65.5 -13.5t-73.5 -25.5v10l-26 2q-33 16 -44.5 47t-11.5 74q0 55 25.5 111.5t52.5 109.5l-174 -180q0 -6 -7 -15.5t-15.5 -18.5t-36 -62t-50.5 -76l7 -23l-9 2 q-6 0 -12 -8t-2 -12q2 -2 8 0t6 -6l-12 -2l-8 -21l-19 -12q0 -4 3 -18l-23 -17l-2 -16q8 4 16 -8q-18 -12 -43 -13v-12l27 4l-18 -24q-27 -8 -46 -7l-6 -20h27l18 10v-2q-6 -10 -2 -16q-31 -12 -47 -12q-4 -6 -4 -9q-6 -10 -10 -8l-6 -24l6 -3l20 23l19 -6l6 2q0 -12 -16 -8 l-13 -6l21 -5l-10 -24l-15 2l2 -16l-14 -29l-37 8l-12 -14q12 -6 26 -6q6 0 19 4l-37 -21q-6 8 -10 17l-15 -37q-33 -16 -41 -39l-14 4l8 4l-2 8l-28 -6q2 -6 -8.5 -12t-14.5 2l-12 -10q-6 8 -19 -2q-12 -4 -33.5 -14.5t-27.5 -12.5l-12 2l-11 -14l-14 4l-18 -6l-3 14 l-20 18z" />
<glyph unicode="s" horiz-adv-x="735" d="M127 373v16q6 4 14 8l29 17l10 -2v-15l-16 -14l-6 -16q0 -6 -11.5 -45t-11.5 -52q0 -29 13.5 -59.5t33.5 -44.5l13 -8q43 -31 86 -25l2 -8l4 10l12 12l20 -4l7 -12l22 27q25 -8 37 -8q-6 8 -4 10l10 14l17 -4q-2 4 4 10t12 4q20 25 20 60q0 39 -34 67q-27 20 -62 33.5 t-81 45.5t-64 44l6 12l-10 15l-4 -17q-31 29 -56 74l6 6l-14 2q-6 16 -9 26.5t-1 20.5q-6 18 -12 37q0 76 63 142q31 31 231 161l52 33l57 35l10 2q23 8 33 10q31 8 61 8q72 0 112 -46t40 -119q0 -6 -7 -23.5t-9 -21.5l-19 -15l10 2l-4 -6q-12 -23 -22 -42t-27 -42l-6 8 q-31 -27 -66 -61q-57 -61 -65 -68l-8 4l22 52l-4 4q2 12 2 32v37q-6 20 -8 29q-27 61 -47 86q-37 45 -84 45q-37 0 -51 -29q-6 -2 -13 -2v-12t-16 -74q-8 -31 -10 -51q6 -8 8 -12q10 -14 14 -12l7 -33l16 -4q6 -14 14 -26.5t21 -18.5q6 -10 10 -13q4 -4 1 -8t22 -20l24 4 l-4 -21q6 -2 14.5 -3t8.5 -5l6 -12l14 4l25 -41l6 31q8 -4 12 -21h8q12 -4 23.5 -9t9.5 -11q20 -25 27 -41q8 2 16 6l2 -14l-12 -13l-2 -10l12 12l4 -6l8 -18q-2 -2 -11 -20.5t-13 -16.5l-2 -19l4 -10l-39 -45l-6 6q-10 -20 -39 -39.5t-53 -35.5q-10 -6 -26.5 -22.5t-28 -27 t-15.5 -14.5q-14 -14 -16 -12l-17 -17h-8l-16 -14l6 -10l-13 -21l-14 4q0 10 -4 11v-15l-4 -14l-6 2l-19 -12v-17q-4 -2 -10 1t-8 5l-2 -8q-18 -6 -19 -12l-14 -4l-16 -8h-15h-14v-11l-16 -4q4 -4 -1.5 -9t-9.5 -1l-4 19l-4 -11l-10 -10l-6 16l2 7h-12v-25q-6 2 -23 2 q-41 0 -51 6l-8 -2l-9 17l-28 2v16l-6 -4q-37 18 -55.5 53t-18.5 78q0 72 57 137q51 55 105 111z" />
<glyph unicode="t" horiz-adv-x="745" d="M96 252l4 29l13 4l2 20l-4 4q10 10 14 15q14 16 14 26t-14 10l6 5q10 6 10 16q0 20 11.5 34.5t17.5 8.5l-2 16l4 21h8l-4 18l10 6l-4 4l15 5l-4 18l18 12l-8 17q2 6 6 11t10 1v29q10 6 11 11t10 5l6 2q-8 25 16 49q-4 6 0 7t10 3v21q8 -8 13.5 1t5.5 36l18 4l8 16l-4 25 h-16q-23 0 -104 -27q-45 -14 -68 -14l-23 4l86 127l19 10q20 47 102 70q96 16 125 22q39 41 90 115q43 61 86 125q49 61 80 90q55 53 101 64q10 14 35.5 26t45.5 19l17 -27q-4 -18 -21 -51l-14 -25l-25 -14q-4 -33 -30.5 -72t-34.5 -61l-16 -6l8 -21q-16 0 -17 -4v-18 l-14 -15h-10l-27 -63h-20q8 -16 2 -31l143 4q33 0 65.5 -1t67.5 -11q-14 -35 -31 -57l-16 -2l-10 -23l-25 -8l-16 -25q-18 -25 -44 -41t-61 -28l-45 6l-69 -6q-4 6 -38 -3.5t-40 -7.5t-9 -5t-10 -5q-16 -35 -22 -51q-23 -51 -27 -70l-10 -20q-35 -51 -48 -82t-19 -66 q-6 2 -9.5 -5t0.5 -13l-8 -23l-18 -6q6 -8 14 -14q-16 -31 -18 -35q-8 -20 -9 -39l-6 -6l2 -14q-6 -18 -8 -29q-10 -37 -10 -43q0 -33 10 -51.5t39 -18.5q72 0 221 117q127 100 164 154h14l-41 -54q-25 -35 -84 -96q-68 -70 -91 -96.5t-51 -55t-56 -49.5l-6 -4 q-20 -25 -49 -47q-47 -39 -54 -45l-6 8q-10 0 -31 -18q-12 -12 -18 -14l4 -6q-25 -4 -39 -25q-27 -4 -53 -8q-59 0 -94 59.5t-35 122.5q0 27 1 53.5t11 55.5z" />
<glyph unicode="u" horiz-adv-x="1036" d="M-20 174l20 4l2 15l16 -15v21l-24 -2q-4 6 -10 12l6 20l10 9l-6 16q0 8 -2 18q20 6 24 13l-8 30q20 25 27 31l-4 19q16 6 18 4l10 28l-10 -2v21h17q-2 18 10 51l18 -4l17 6l-19 10l25 23q4 -4 9 0t1 8l-14 8l8 8l2 21l18 8l-4 12l19 31l22 10l10 29q2 -2 9.5 2t1.5 10 l16 6l-2 15q35 33 70 67v23q29 25 63 63q27 31 37 43q23 33 94 60q45 16 115 32l20 -24q0 -18 -16 -19q-10 -29 -35 -67q-31 -49 -49 -53v-11l-23 -16l7 -16l-50 -62q-8 -6 -4 -10l-22 -4l6 -19l-20 -34q-8 2 -27 -11l10 -12l-24 -35q0 -4 -1.5 -9t-5.5 -3q-4 -10 -10 -20.5 t-24 -34.5v-17l4 -4l-31 -18l-4 -43l-19 4q-2 -2 -2 -31l-4 -14l-6 -2l8 -8l-4 -33q-14 -6 -24 -23l10 -30l-16 -31q0 -27 9 -43.5t34 -16.5q39 0 139 61.5t117 92.5l-3 8l25 25l4 33l12 10h9l-2 12q0 8 5 20.5t11 22.5l6 16q6 0 8 15q0 16 9.5 28.5t19.5 26.5q25 35 33 49 q16 25 22 54l140 198l20 33q20 6 39 29l16 -7q2 0 4 3q0 12 -8 10q10 12 72.5 30.5t85.5 18.5l-6 -68l-4 -14q-8 -8 -11 -10q-10 -12 2 -17l-24 -16v-16q0 -4 -10.5 -12.5t-16.5 -10.5q12 -18 13 -25l-17 -14l-8 4q-6 -12 -4 -14l-19 4v-16l17 -2v-11q-12 -4 -17 -4 q-6 -27 -22 -49q-2 2 -14 4l6 -10q0 -4 -17 -10l7 -6l-17 -21l10 -14l-16 -11h-18q-8 -4 -9 -10q4 -2 11 -4l-2 -16l4 -6l-17 -11l6 -10q0 -12 -14 -18t-22 -8l24 -21l-6 -6l-16 -4l-5 -15l-26 -14l-8 2l-17 -8l11 -12l12 4l8 -4h16l-6 -17h-12l-2 -16h-19l-4 -8l13 -13 l-6 -18l-19 -16l-2 -19q-4 2 -7 -2t-5 -6l4 -23q-4 4 -8 -2t-4 -8l4 -22h-13l-4 -31q0 -16 4 -26.5t15 -24.5l20 -8q29 10 164 84.5t137 74.5q-57 -39 -98 -69q-59 -45 -92 -80l-21 -2q-53 -49 -55 -51q-14 -12 -41 -27l-6 -4q-61 -41 -131 -76l-4 4l-21 -8q-4 8 -8 7t-2 -7 l-43 -4q-18 0 -36.5 28.5t-24.5 55.5l2 8l6 4q-4 10 -7 19.5t-3 15.5l10 18l-4 37l6 8v15h8v22l8 15q-18 -14 -49 -41q-16 -14 -47 -43q-10 -12 -44 -42t-38 -36l-23 -10l-12 -21l-8 -6q-25 -12 -49 -39l-10 2q-12 -8 -17 -10v-8q-16 -4 -28.5 -11.5t-20.5 -11.5 q-16 0 -50 -6t-75 -16q-2 8 -15.5 14t-17.5 8q-20 39 -30.5 61.5t-20.5 59.5l6 12l-12 13z" />
<glyph unicode="v" horiz-adv-x="720" d="M109 383l12 6l-4 4l6 6v35q4 6 4 13.5t8 5.5l4 16l-8 6l14 21l-6 18q6 -2 10.5 4t0.5 12l14 11q0 8 -4 16q-2 0 -4 2l6 21h12l6 22q-4 0 -6 4l-4 8l6 21l2 14l6 2q0 23 7.5 57.5t11.5 53.5q14 8 14 35l-4 4q14 23 18.5 33t6.5 26l8 -2l8 8q18 20 22 27l-8 -8l11 -4 q6 10 8 14q10 12 22 8l10 15l15 4l45 14l8 10l14 -4l62 12q20 -10 20 -34q0 -66 -43 -181q-51 -137 -59 -180q-12 -27 -19.5 -54.5t-13.5 -60.5l12 5l15 18l14 4l-4 8q16 33 133 164q106 119 154 164l10 -4q18 39 121 106q82 53 149 88l27 -6l12 2l17 8l12 -12l-2 -10 l-23 -16l-18 -13l-16 -2l-11 -4l-16 -18q-59 -33 -133 -99.5t-99 -113.5l-16 -19l-18 -18l-25 -17q-6 -10 -12 -18q-20 -18 -23 -20l-30 -27v-12l-23 -17q2 -6 -1 -9t-5 -3q-14 -14 -60 -70q-33 -39 -61 -69q2 -4 -8 -19.5t-25 -29.5l-14 -19h-8q-14 -47 -80 -135 q-29 -37 -55 -74l-23 -14l-37 -31l-20 -31q-12 -4 -23 -6l-18 -10q0 -4 2 -5t8 -1l-2 -6h-16l-27 -31l-23 -6q4 -8 -3 -9t-11 -1q-14 4 -18 4l-9 26q0 41 8.5 79t18.5 77q16 41 42 120t22 91z" />
<glyph unicode="w" horiz-adv-x="1499" d="M-43 162l12 -4q2 8 3 17t5.5 18.5t10.5 7.5q0 20 24 57q16 25 21 35q12 12 25.5 27.5t27.5 48.5l25 24l14 4v29q4 2 8 3t4 22q0 4 9.5 12t17.5 6q12 41 55 104q20 29 41 58h8q14 35 34 71.5t40 71.5q16 35 24.5 53.5t26.5 40.5l27 11q37 25 78 49t71 35q39 -23 39 -66 l-8 -55l-6 -6v-27h-8l-40 -98t-46 -97l-4 25l-13 -6l-10 -31q2 -2 8 -3t6 -9l-10 -2l-4 -27l-14 -14l-2 -31l-6 6l-25 -8l-8 -2l-8 -37q6 4 13 -1t1 -9q174 115 334 231l123 95l6 4q92 66 144 102.5t93 36.5l21 -6l2 -31q0 -16 -57.5 -109.5t-71.5 -103.5l-10 -14l-4 -27 l-23 -18v-9l-8 -24q-10 -6 -19.5 -13.5t0.5 -15.5l-16 -20l4 -13l-16 -36q-10 6 -15.5 -3.5t-9.5 -11.5l6 -18l-6 -23q-8 4 -12 -6t6 -14q-6 -27 -30.5 -82t-33.5 -86l-8 -12l2 -11q59 35 125 107q16 18 109 129q8 59 43 129q10 20 67 119q35 49 101 112q55 51 110 103l6 4 l44 22l6 2q23 10 47 18.5t49 10.5l14 -20q0 -29 -8 -52.5t-43 -83.5l-14 -2l-13 -41l-8 2q-4 0 -4 -14t-6 -14l-18 8v-29q-6 4 -17 -12h-10l-27 -55l-20 -8q4 -8 -10.5 -22.5t-20.5 -10.5q-8 -18 -51 -74q-33 -43 -33 -84q0 -47 49 -47q27 0 136.5 45t132.5 63l22 5l37 18 q-57 -59 -244.5 -166.5t-253.5 -107.5q-14 0 -39.5 19t-33.5 34l-21 -33q-8 4 -15 -4t-3 -12q-43 -37 -84 -74l-13 -33l-10 -2q-12 0 -12 4l-21 -14l-10 -37l-8 4q-115 -70 -227 -137l-11 16l-20 -8q-37 0 -54.5 25.5t-17.5 64.5q0 14 1 25.5t7 38.5q20 0 21 4l-8 22l35 92 l8 13q16 2 18 4l-6 6l-2 18l82 162l86 152q-14 -6 -24.5 -11.5t-10.5 -21.5q0 -6 -12 -10t-15 2l-30 -27l-23 -2q2 -6 -5 -15t3 -16l-20 -4l-19 -2l-10 -18h-14q-2 -14 -5.5 -23.5t-23.5 -3.5l-23 -28l-22 -7l-14 -18v-8l-27 -10l2 -15q0 -8 -10 -12t-23 -8l-20 4 q-8 -16 -8 -27q6 -10 6 -18l-39 -33l-12 -2l4 8v8q-4 -4 -7 -6q-16 -16 -18 -22l6 -19q-8 -10 -18 0l-33 -30q-8 -8 -14 -17l-21 -6q-2 -4 -10 -12q-29 -27 -31 -29v-18q-8 -6 -27.5 -31t-17.5 -29l-37 -24l-8 -19l-18 6l-9 -14l-18 10l-12 -6l-10 -16h-23l-12 -21l-11 6 l-16 -20q-2 4 -3 7t-17 3q-16 -23 -33 -20l-37 61q4 33 23 72q10 20 20 43z" />
<glyph unicode="x" horiz-adv-x="911" d="M406 772q0 53 -31 76q-49 -14 -99 -55q-59 -55 -86 -80q-6 4 -16 -2t-12 -6q18 61 174 163.5t221 102.5l31 -6q31 -37 30 -95q0 -23 -8 -71.5t-14 -59.5l2 -6q186 129 294.5 196.5t156.5 67.5q10 0 28.5 -7t22.5 -13l-15 -29l-6 2q-20 -6 -131 -80q-68 -45 -135 -90 q-47 -29 -111 -78q-53 -43 -106 -84q-10 -31 -10 -77l-13 -17l15 -45l-19 -10l19 -25l-13 -32l-8 2l-6 -23l2 -16l8 -2v10q-4 4 -6 9t6 7h17q0 -2 -6 -14l10 -25l-12 -14l10 -27l-23 7l6 -17l-8 -18q8 -10 14.5 -5t12.5 11l10 -4q-6 -35 -10 -68q0 -8 6 -14l10 -10q2 2 5 4 t5 6q-4 -10 4.5 -26.5t14.5 -24.5l25 -4q23 0 122 63q20 12 109 72l12 -2l-20 -23v8l-17 -6l-10 -26l-8 2l-19 -21q-4 2 -8 -6l-12 -10h-14l-4 -19q-6 0 -35 -21.5t-60 -47.5h-8q-20 -23 -91 -67t-105 -54q2 12 -23 14t-31 4l2 13l-14 6l-2 16l-8 2l-10 37q0 33 -16.5 106.5 t-16.5 112.5v125l-13 4q-10 -18 -36.5 -39.5t-32.5 -27.5h-8l-2 -19l-17 -6q-12 -23 -44 -64.5t-58 -78.5l6 -19l-14 -10l4 -18q-20 -39 -88 -115q-78 -86 -109 -86q-14 0 -31.5 19.5t-17.5 31.5q0 70 92 187q61 70 80 94q113 104 227 211q93 104 93 274z" />
<glyph unicode="y" horiz-adv-x="911" d="M53 6l-43 -51h-8q-61 -72 -84 -111q-39 -68 -39 -135q0 -16 10.5 -41.5t20.5 -42.5h10l23 -14l4 -8q16 -6 37 -6q186 0 335 360q53 139 109 279q-10 -2 -18.5 -12.5t-14.5 -20.5l-8 4q-6 0 -10 -8q-10 -18 -23 -19q-6 0 -18 -12t-19 -12l-6 -4l-10 -19q-23 -6 -41 -14 q-33 -18 -65 -35q-10 -10 -21 -18l-4 4l-37 -11q-12 4 -20 9q-16 10 -22.5 14t-10.5 8q-16 23 -23.5 41.5t-11.5 40.5l4 -4l2 10l-8 4v21l18 -2l-15 18t-13 19q0 8 7 13t13 1l-10 27l2 16q0 25 -2 29l12 36q4 2 8 7q0 12 -10 16l13 35l16 -4l-2 12l-6 18q45 102 127 224 q63 92 155 204q4 2 7.5 5.5t6.5 9.5t18 16t29.5 19.5t42 25t52.5 25.5q-2 4 3 8t9 -6l39 10l2 -10q0 -10 -14 -38l-25 -50q-8 -8 -14 -15q-12 -20 -24.5 -40.5t-18.5 -36.5q-6 -6 -7 -10.5t-1 -10.5l-27 -39l-8 -14l-23 -25l5 -10l-13 -18l-33 -66l-8 2q-12 -47 -24 -86 q-25 -80 -31 -86q2 -6 -3 -47t-9 -72q0 -12 13 -40.5t7 -45.5q47 14 78 31q16 8 72 45q63 129 104 211q74 143 133 240q74 121 129 174q6 -2 18.5 5t12.5 11q29 10 55.5 20.5t55.5 28.5l8 -6l14 17q6 -2 19.5 3t15.5 5l14 -8l-14 -31h8q-8 -31 -19.5 -54.5t-33 -56.5 t-41.5 -63l-8 -21l-23 -10q-8 -16 -2 -29q-12 -18 -24.5 -35.5t-18.5 -17.5l-10 -33l-8 -20l-31 -68h-8q-10 -23 -17.5 -42t-5.5 -27l-16 -27l8 -16l-14 -23l-23 -22l-8 -2l10 -17q-14 -8 -26 -14l8 -23l-21 -30l4 -19l-6 8l-2 -28l-14 -2q-4 -8 -13.5 -25.5t-23.5 -52.5 l6 -10h-8l-14 -33h-9q-4 -12 -15 -25.5t-15 -15.5l4 -17l-12 -30l-13 -2q0 -25 -18 -54q-8 -12 -23 -28l-71 -105h-9q-14 -27 -36 -39l-7 -22l-8 -8l-20 -9q-39 -92 -244 -235t-309 -143q-66 0 -110 55t-44 123q0 104 138.5 256.5t236.5 171.5z" />
<glyph unicode="z" horiz-adv-x="866" d="M588 776l-35 2q-55 0 -129 -12q-172 -29 -213 -29q-47 0 -66 35q10 41 43 78q23 27 68 63q-2 6 5 9.5t13 7.5l17 -21h8v15q117 10 233 22q14 0 32 -2t26 -2l8 4l31 -2v8h100l33 4l14 -8q8 4 17 10l22 -12l6 -4l-2 10l15 4v-8h45q14 -18 33.5 -50t19.5 -46 q0 -27 -64.5 -77t-89.5 -54q-18 -27 -26.5 -36t-14.5 -13l-6 4l-35 -14l4 -19l-18 -8q-4 -2 -8 10l-21 -18q4 0 17 -11h-8q-12 -10 -23 -18q-6 8 -10 16l-17 -16q-6 -8 -2 -9t11 -1q-2 -8 -6.5 -14.5t-10.5 -6.5q-2 18 -6 19l-16 -8v-21h-11v-22l-8 -5l-6 2v21l-14 -10 l6 -17l-8 2l-13 -10l-10 12l-6 -4l12 -20q-14 -6 -28 -10l-7 -13l5 -20q-6 0 -9 12h-8l-20 -12l-4 -21l-11 2l-22 -8v-35l-21 -12l-6 -20q-2 -4 -2 -7l-14 7q-6 0 -18.5 -8.5t-14.5 -10.5l-8 -39h-10l2 13l4 4l-6 4l-23 -15v-16l19 -4l2 -6l-25 -8l-2 16q-2 0 -13.5 -15.5 t-19.5 -13.5q2 -6 8.5 -19t6.5 -20l-9 -12l-8 8q-8 8 -24 9l-7 -5l9 -20l-7 -6h25q37 0 74 6q4 -6 10 -10l4 16h21q4 8 10 7t6 -3q25 10 49 4l12 15l7 -7h24q-2 4 10 9v8l19 -4l28 -4v16l21 -2l22 -6l11 6l18 -4l2 20q4 2 8 -6l19 4l6 -10l10 8l33 -2l6 17q23 10 39 0l10 10 l6 -4l-4 -27l4 -4l15 -2q-6 -31 -31 -59h-8q-16 -27 -41 -37l-4 -23h-21q-4 -10 -16 -20q-4 -4 -23 -15l-16 -8q-6 -6 -12 -10q-12 -2 -25 -2q-217 -29 -432 -57q-20 -10 -38.5 -17.5t-29.5 -7.5l-34 2q-6 4 -35 25q-20 12 -31 32q-18 29 -18 45q0 8 12 35t22 41 q70 113 199 242q41 39 412 354z" />
<glyph unicode="{" d="M360 590q-18 41 -57 41t-77 -12.5t-52 -16.5l-4 10q18 61 127 95q131 41 158 67q90 86 143 240q88 246 94 260q74 150 221 256q66 49 88 61q41 25 58 25q47 0 99 -32t79 -75q-2 -8 -9 -7t-14 3l-8 -10l-6 6l6 -8l-8 -8q-4 -4 -6 -8q14 -18 -12 -27l-15 10q0 -8 2 -16 q0 -10 -16 -14.5t-16 -14.5l-15 -12l-10 4q-6 31 -27 59q-27 35 -53 35q-31 0 -56.5 -19.5t-25.5 -43.5q0 -12 -20 -19q0 -33 -14.5 -39t-14.5 -14q0 -10 4 -14l6 -6h-24l-15 -17q0 -4 14.5 -4t14.5 -6t-12.5 -9t-14.5 -5q-4 -4 0.5 -13.5t10.5 -19.5q-20 -16 -21 -31v-16 q-4 -2 -22 -2q0 -8 1 -14.5t7 -18.5q0 -20 -10.5 -19.5t-16.5 0.5q6 -14 13 -26q0 -10 -11.5 -24.5t-11.5 -26.5q-6 0 -12 2q6 -10 8 -19q-6 -6 -12 -10v-25q-14 -4 -13.5 -10t4.5 -16l-6 -23l-12 -10l-8 21q-2 -6 3 -27t5 -25l-14 -6q6 -14 4 -20l-8 -2l-27 -31l4 -16 q-29 -33 -43 -48q-45 -49 -51 -53l-15 2l-14 -14l-4 6l-18 -18l-2 8q-20 -16 -32.5 -23.5t-35.5 -15.5l51 -39q10 -29 14.5 -45t4.5 -37q-10 -27 -21 -51q-18 -4 -18 -27l-27 -12l6 -25q0 -20 -37 -20l4 -29q0 -8 -18 -8l8 -14l-20 -21l-15 6q2 -10 5 -20q0 -6 -4.5 -14.5 t-0.5 -14.5l-20 -18l-25 22l-4 -6q6 -18 13 -35l-21 -16q-6 -2 -6 8t-4 10v-22t6 -17l-12 -14q-8 8 -17 19q-2 -6 1 -16.5t1 -16.5l-20 -17l6 -14l-16 -27l-17 -6v15l2 -25q0 -8 -16 -8q2 -8 6 -16q-14 -27 -39 -27q-10 0 -13 -9.5t5 -15.5l-10 -26q-14 6 -17.5 -1.5 t-3.5 -25.5q-18 -2 -35 -2l-14 -20q10 2 21 4q4 -6 10 -11l-19 -32l-22 16l2 8q-10 0 -9 -6t13 -25v-12q-25 -16 -27 -37l-22 -10l6 -20q0 -8 -11.5 -23.5t-11.5 -24.5q-6 -8 -10 -9t-10 -3l2 12q-14 0 -8 -12q0 -4 8 -14l-12 -6l-11 8l-2 -10q6 -12 7 -23q0 -25 -11 -43 q-8 -4 -14 -8q0 -16 5 -31.5t18 -36.5q14 -4 31.5 -7t27.5 -3l154 31l10 -10l-2 -11l-27 -8l4 -18l-20 -17l-19 2l2 -20q0 -10 -9 -11t-15 -1l-56 -27l-10 -8l-14 26q-8 0 -10 -18q0 -4 -12.5 -8t-24.5 -8h-72l-33 12q-14 -20 -43 12q-59 70 -59 137q0 61 65 187 q43 82 109 180q92 129 170 248q131 201 147 256z" />
<glyph unicode="|" d="M440 1575l21 10l6 -2l6 -10l10 20l-2 6l11 -12v12l6 -4l4 21q2 -2 16 -4q27 -18 55.5 -97t8.5 -104q6 -20 8 -35.5t-2 -23.5l-19 10l11 -23q20 -45 18 -53l-10 -8l-13 16l7 -37l-11 5l-4 -2l11 -27q6 6 12 18l-2 -49l2 -12l-8 12l14 -49l-21 8l-4 -10l27 -27l-4 -6l6 -45 l-10 6l-2 -53l-8 6h-9l13 -26l8 4l8 -33l-4 4l-10 18v-16q-4 2 -8 2q-2 -4 4 -18q8 -31 24 -33l-12 -27l6 -8q-8 20 -31 45q10 -43 39 -74q-10 8 -16 9l-2 -7l-15 25v-18l11 -21l10 -27v-16q-16 18 -21 16q4 -10 13.5 -27.5t19.5 -27.5l-2 -10l-16 22l-12 5l6 -35l26 -25 l-20 15l10 -15q-10 -2 -14 -8l10 -27l-12 2l4 -12l-15 10l25 -34l8 -11l-35 6q6 -23 13.5 -36t19.5 -23l-20 4l6 -16l-10 2l18 -31l-27 8q-6 0 -8 -2l41 -59l-14 6q6 -4 0 -16l-21 18l19 -45l-15 10l35 -51q0 -6 -2 -8l-8 8l-12 2l-13 -33l45 -45l-10 -20q-16 8 -37 24 l-10 -8q-2 -8 3 -10t14 -4q18 -6 18 -19l-8 -26l6 2l8 -21q0 -2 -1 6.5t-9 6.5h-17q20 -45 37 -60l-59 31l10 -43l2 18l8 -36l27 -9q0 -23 2 -30l-16 22l16 -33l-2 -10l-12 8h-17l23 -30l-10 2l-23 -4l-6 6l20 -33l21 -19q-4 -14 -29 -6q-6 2 -10 2l14 -20q14 2 17.5 -10.5 t-6.5 -14.5l10 -28q-12 14 -18.5 0.5t-8.5 -19.5q-6 8 -14 10l10 -20l4 6l41 -26l-18 2l6 -23l-8 -4l22 -64l-4 -2q-8 12 -14 15l-12 10l28 -51q-2 -16 0 -21v-2l-10 15l-4 -2l12 -31l-10 4l-6 -12l-10 8q18 -25 28 -58l-22 37l4 -28q-16 -6 -23 -2q16 -47 43 -78 q0 -6 -6 -6q4 -12 0 -13l-14 23l-13 4l5 -18h-7q12 -43 35 -72l-35 24q0 8 -4 17.5t-14 28.5l4 -31l-10 18q-10 -16 -33 -6l-2 -10l12 -12l9 -23l-15 4v-18l-22 10v-19l-33 31l2 -10l-10 -4l-31 6l-23 20q-18 59 -12 197q4 104 10 211q-16 94 -7 406.5t20 619.5 q10 365 -8 535q10 6 14 8q14 6 20 4z" />
<glyph unicode="}" horiz-adv-x="1202" d="M-57 -213q23 -20 27.5 -44t90.5 -62q76 25 170 243q174 399 179 408q117 227 241 270l29 12q-53 27 -53 82q0 66 102 222q35 55 209 292q127 176 158 244q2 0 4 2t2 4l-39 45q-27 10 -42 15.5t-36 5.5q-8 0 -65 -21q-35 -12 -48 -12l-8 16q0 43 81 75t132 32 q68 0 99.5 -10.5t74.5 -53.5q10 -27 17.5 -53t7.5 -49q0 -20 -21 -20q6 -6 9.5 -11.5t1.5 -9.5q-12 -8 -23 -16l8 -13q0 -14 -17 -35.5t-17 -31.5l-13 -21l10 2l-2 -6l-2 -10l-24 -12q-2 -2 -2 -4q10 -18 10 -23q0 -6 -13.5 -11t-15.5 -9l9 -5q0 -2 -25 -10q2 -2 4 -2l10 -8 l-14 -6l-14 -29q-6 0 -9.5 4t-5.5 11v-19q0 -41 -45 -41l2 -6l10 -14q-8 -14 -16 -29l-24 -18l-11 8q12 -8 13 -17q0 -8 -6.5 -16t-14.5 0l-24 -31l-11 -2l11 -12q-25 -18 -28 -21.5t-5 -5.5q6 -6 6 -22q-4 -6 -21 -6q-8 -2 -12 -2q-2 -10 -2 -35q0 -8 -18 -13q-6 0 -6 -16 q0 -6 -29 -14q6 -2 12 -2l2 -13q0 -6 -20 -8q-18 -10 -26.5 -37.5t-14.5 -52.5q12 -23 29.5 -39t37.5 -22q59 -10 97 -17.5t38 -15.5q0 -29 -13 -37t-38 -8q-35 0 -35 -8q-4 -2 -16 0t-12 10q0 12 -27 12l-2 -12l-14 -14l-35 18l-14 -2l6 -19l-33 11l2 -11l-8 5l-14 4 q2 -8 4 -15q-18 -8 -21.5 -12t-29 -20.5t-25.5 -28.5h-10q-18 0 -19 -6q8 -12 8 -19q0 -35 -24 -34l2 -13l-12 -6q8 -8 8 -16t-15 -19q-4 -2 -16 -10l16 -25q-16 -14 -32.5 -31.5t4.5 -27.5l-21 -20h-10l2 -23l-29 -25q0 -16 4 -16q-4 -18 -6 -35q-4 -8 -26 -8l2 -10l10 -14 l-18 -33q-8 6 -17 12q-14 0 -13 -6t13 -23l-4 -22q0 8 -12 8l12 -14q0 -8 -11 -22.5t-11 -33.5q0 -6 -9 -18q-14 -23 -28 -45q0 -12 -7.5 -16.5t-17.5 -4.5l4 -12q-6 -6 -7 -9t1 -7l4 4l-8 -19l-31 -41q-8 2 -7 -5t7 -7l-10 -24q-14 -2 -14 -13q0 -25 -42 -60.5t-63 -35.5 l-14 -14q-33 -33 -113 -74t-114 -57q-68 6 -109 34q-31 20 -78 84q14 10 39 39q33 37 66 72z" />
<glyph unicode="~" horiz-adv-x="1366" d="M164 1219q84 145 141 204q78 80 178 80q74 0 219.5 -68.5t198.5 -68.5t103 47q35 35 69 94l14 25q25 -8 56 -31q39 -31 39 -82q-49 -113 -105 -170q-78 -80 -180 -80q-72 0 -213 70t-207 70q-55 0 -102 -47q-31 -31 -74 -99l-31 -55q-35 12 -65 35q-39 31 -41 76z" />
<glyph unicode="&#xa1;" horiz-adv-x="724" d="M-45 -401q0 12 18 51q31 66 58 104q8 10 18 28.5t11 24t2 6.5t6 3q2 16 9 30.5t15 24.5q2 2 23 49q6 14 20 45l10 2l-4 19q12 20 27 43l8 12q10 8 23.5 39t13.5 33q4 -2 17.5 21.5t29.5 53.5q70 160 139 322l-6 4q0 12 9.5 23.5t19.5 23.5q18 8 41.5 16.5t36.5 4.5l4 6 h18l10 10l23 -2l6 8q10 4 18.5 5t12.5 1h14l31 -14q10 -23 16 -37t6 -27l-2 -12h-10l-4 -12h12q2 -6 -12 -11t-20 -8l12 -14q2 -4 6 -8l-16 -4l-13 -19h-18v-24l29 14l-15 -24l-10 -7l-18 -4l-2 -20l8 -2l10 8l-14 -29l-13 -4l-4 -4h8l-2 -16q-20 -25 -32.5 -34t-15.5 -12 t-1 -5l10 4q-6 -18 -18 -31l-6 4l-29 -10q0 -8 3 -6t7 6l7 -4h34q-29 -6 -43 -25l7 -10h20l-12 -4l-10 -8l-17 4l-8 -8q8 0 12 -2.5t-2 -6.5l-22 -6l8 -12h-21l-6 -4l6 -2l13 2l10 -17l2 13l15 -7.5t5 -7.5l-14 -2l-12 -32l6 -9l-14 -4v15l-4 4l-21 -29l21 -6l-15 -12h-26 l-15 -5l13 -18l-9 -16h-14q6 -2 3 -7.5t-7 -1.5l16 -4l6 11l21 4v-8l-14 -5l-5 -12h-24l-4 -24l-10 -9h14q6 -4 14 -8q0 -10 -16 -10q-12 -8 -17 -6l-4 -15l9 5h18l-18 -11l-19 -16l4 -10l-10 -6l-8 16q4 -10 1 -19.5t-11 -21.5q2 0 3 1t3 5h12l10 -4q-8 -16 -26 -31l8 -16 l-25 -12l-6 8h-14l-4 -4l24 -25q-12 -18 -35 -29q-4 -12 11 -16l-37 -14l14 -2l6 -25l-8 10h-8l-17 -4l-8 -10l4 -8l19 -6l2 -8q-10 -4 -18.5 -6.5t-4.5 -8.5h-18l-2 -14h24v-8q-20 -10 -26 -11l-12 2l-39 13l-4 -10l-13 6l-28 -23q0 -2 -2.5 -7t-2.5 -7l-34 -2l-15 6 q-6 -8 -6 -14q4 -4 10.5 -6.5t8.5 1.5q4 8 8 7v-17h-15h-28l-6 8l-13 -20l-12 4l-16 -6l-31 18v13zM520 758v8l19 4q6 31 22 53l-2 13l16 14q2 10 16.5 30.5t31.5 47.5q10 14 69 39q35 12 39 12q10 0 21 -2l16 16h8l4 -12l6 4q16 25 31 25q23 0 23 -31q0 -14 -11 -25l5 -16 l-23 -4q4 -8 4 -21q0 -2 -4 -18l12 -2v-12l-8 -11l-6 7l-23 -21l7 -4l2 -8q6 10 18 12q-4 -25 -14 -35h-15l11 -6l6 -4l-35 -18l-4 -15l6 -4l10 6l2 -14l-14 -6l-12 -21l4 -6l-4 -6l2 -6l-19 -8v-15l-12 -4q-16 6 -18 11q-33 -14 -70 -19l-16 -24q-8 6 -27 10l2 -13 q-31 2 -59 5q-8 -8 -23 -9q-29 0 -29 21q0 12 17.5 42t27.5 34z" />
<glyph unicode="&#xa2;" horiz-adv-x="860" d="M735 1169q4 6 10 13q12 27 45 84t41 73l21 31l27 6l10 -18l-35 -76h-8l-2 -20q-14 -18 -29.5 -46t-28.5 -53q29 -12 60 -22l33 -37q2 -4 -3.5 -10.5t-1.5 -12.5l21 -2l-8 -18q-4 -6 2 -10t12 0l2 -29q-4 4 -12 -2t-6 -14l20 4v-13h-8l-8 -8l-6 2l-11 -8l29 -2l-24 -23 l22 -14q-4 -14 -6 -18h-21l-12 -23l-10 2q-6 0 -24.5 -22.5t-20.5 -30.5l-74 -53l-2 -19l-18 -10l-4 -12q-27 -6 -45 -23q-25 27 -25 64q0 23 6 47l-6 10l-154 -307q-20 -31 -45.5 -84t-48.5 -98q98 0 242 108q45 35 119 103l6 -9l-17 -12l9 -4q-63 -78 -197 -195 q-150 -131 -225 -161q-39 -61 -62 -103q-45 -76 -47 -102l-12 -12l-21 -5l13 -20h-13l-26 -23v-8q-14 0 -11 15l-20 -7l-14 17q20 43 61 110q51 86 64 111q-76 0 -114 57.5t-38 137.5q0 53 16 116q4 12 35 113q53 129 267 338.5t331 236.5zM625 950l-9 15l-16 8 q-31 -6 -59.5 -38t-53.5 -61l-12 -6l14 -14l-16 -2l-10 -27l6 -2v-8l-20 -6l-7 -16l-14 -25l-2 -16l-20 -13l-9 -4l-6 -45l-8 -2q-4 -33 -16 -45l2 -14l-21 -25l2 -33q0 -10 -9 -33.5t-9 -31.5l8 -23l-4 -26q0 -10 4 -26.5t8 -27.5q25 25 148 277q104 213 129 270z" />
<glyph unicode="&#xa3;" horiz-adv-x="1107" d="M-125 20v21q10 6 22.5 31.5t16.5 33.5q31 27 59 54v24l29 13q6 10 5 13t-1 7l125 4q57 66 98 144q29 57 68 163q-115 0 -213 -61q-8 4 -16 10q35 68 129 152q111 100 165 84l68 231l6 8l8 29q2 12 6.5 22.5t18.5 28.5l6 2q33 94 94 174q4 8 9 6q10 12 14 19q12 14 16 10 l15 14l-2 13l34 8q6 14 13.5 23.5t17.5 3.5l16 14h21l2 12q68 29 111 41q63 18 116 19q63 0 111 -37v10q10 -6 24 -21q6 -6 23 -24l14 -39l29 2l2 -6q-8 -8 -13 -23.5t-9 -33.5q-6 -16 14 -17v10l18 7q6 6 11 4v-23h-21q4 -6 9 -12t5 -10h-24l14 -35h-8l-10 -17l18 -12h-35 l-6 4l-12 -12l31 -23l12 -4l6 4q0 -12 -14 -12q-16 2 -33 4l-14 -12v-19h12q2 10 12 11l-6 -13l-27 -4l5 -4v-8l-21 -4q0 -6 5 -7t13 -1l19 -6q-10 -4 -15.5 -13.5t-9.5 -19.5l-18 6v12l-21 -16l23 -4l2 -19l-6 11q-12 -4 -18.5 -5.5t-8.5 -1.5v-8l-2 -6l-33 6v-10l-24 -25 l-35 -24l-22 -6q-12 -6 -23 -11l-125 -77l-10 10q82 84 114 137q47 78 48 170q0 53 -35 96t-86 43l-29 -2q-12 -27 -24 -63q-18 -53 -23 -66l-10 6q2 -12 6 -24q0 -4 -14.5 -20.5t-18.5 -20.5q8 -6 17 -10l-19 -37q-2 -6 -2 -12l-12 -19l10 -18l-18 -9q-2 -6 0 -10t8 -10 l-19 -41v-14q-10 -2 -18 -2l-8 -7l10 -10l8 4v-8q2 -8 0 -10l-20 -14h10l10 -15l-16 -4q-12 -4 -22.5 -8t-8.5 -10l35 -13l-27 -22l6 -8q-6 -12 -6 -33q0 -6 4 -18q57 -10 117 -19l25 -4v-12q6 -10 8 -15q10 -16 16 -12l-6 19h41q14 16 47 23t45 15l6 -4q4 0 15 9 q27 20 32 16q14 16 25.5 26.5t30.5 10.5l6 -17l-2 -10h-23l-6 -16q-14 -18 -26 -27q-20 -16 -35 -16l-4 -15q-61 -45 -121 -90q-88 -59 -127 -59q-14 -4 -38 -7t-48 -3h-51q-10 -10 -24.5 -18.5t-29.5 -6.5l-10 -18h-16l24 -17l13 -4l10 4l-27 -30l-28 6l8 -19l28 -2 q-4 -10 -19 -14t-26 -6q2 -6 21 -2l4 -21h-10l-17 -8l-12 16q-23 0 -23 -14q6 -16 7 -20h18l12 12l2 -8l-16 -15v-10l-31 -10l2 14l-45 12q4 -10 -4 -18t-10 -12h20q2 4 7 4q0 -4 2 -6l14 14l18 -20l-4 -5l-12 7l-16 -2l2 -9l-43 -14l-13 10l-6 -8h10q-29 -18 -49 -18 l78 -13v9l35 -9q4 0 8 2q8 -8 12 2q37 -10 84 -10q12 0 37 -6t39 -6q4 -10 4 -29l17 -2l2 13q2 6 8 8t10 4q6 -4 41 -10.5t43 -10.5q12 6 19 6q6 0 8 -5t-2 -17l43 4q-8 6 -15 12q111 16 191 82l-10 -28l-160 -160l14 4l-33 -33v-8q-49 -18 -65 -25q-43 -18 -62 -34 q-16 -2 -24 0l-37 -2q-16 6 -44 8t-40 0l-25 14q-2 -2 -22 -2q-27 0 -56.5 2t-54.5 4l-4 4l-6 -4l-45 6l-8 -8l-19 8q-12 -4 -29.5 -4t-37.5 -2l-4 4l-82 -12l-10 8l-39 -16q-8 2 -25 2q-12 0 -38.5 -4t-41.5 -4q-33 0 -51 20v10z" />
<glyph unicode="&#xa4;" horiz-adv-x="1071" d="M831 494l11 4q2 -6 4 -11.5t8 -3.5l8 -28l10 6q20 -29 22.5 -32t8.5 -23l-14 -15l-92 -24l2 -11l-8 4l-21 2q-8 8 -15 15.5t-36 25.5l-4 -4q-6 14 -28.5 33t-43.5 35l-18 -6l12 -15q-6 -2 -37 -10t-35 -8q-51 0 -105 5t-89 16l8 -13q-6 -2 -22.5 -13t-30.5 -30l4 -10 q-14 -6 -15 -10l-28 -8l6 -11q-23 -23 -53 -32l-17 14l-24 92h-11l7 8l2 19l39 53l-3 2q16 4 25 22l-14 7q0 25 -17.5 70.5t-17.5 68.5q0 29 17.5 77t37.5 64l-65 64q-12 10 -23.5 25.5t-19.5 31.5q4 12 -2 21l20 10l-2 6l12 -2l11 16h10q14 6 27.5 17.5t25.5 21.5l2 6h10 q4 -14 21 -39l2 -18h20l4 12h13l10 -12l-4 -4l6 -12h8l-2 -9q4 -6 8 -10l11 8l8 -14l6 2q-4 -6 -4 -10q27 10 45 16t37 4l10 11l49 4q31 0 72 -6.5t55 -8.5q14 18 33.5 40t33 35t29 24.5t31.5 21.5l10 -2l13 2l8 -18l4 -13l16 -10l2 -10l39 -53l4 -2v-9q-6 -4 -28.5 -14 t-28.5 -8v-23l12 -4v-10l-12 -10l-4 4l-12 -6v-11l-9 3l15 -29l-8 -17q33 -10 43 -43h10l2 -20l-6 -6h-13l13 -14l4 -31h-8l-7 -15q-8 -8 -6 -10q18 -23 19 -45l-13 -10l-14 4l-4 -4l2 -10q18 -4 31 -23q-12 -20 -29 -22l4 -15l-10 -24l-12 -4q2 -14 16 -31q4 -4 16 -14z M330 629q10 -20 30 -29l-2 -8q25 -45 77 -56.5t104 -19.5l4 4q27 -4 66.5 15.5t64.5 39.5h8l8 9l-2 14q8 14 23 25q4 2 10 32.5t12 49.5q0 14 -11 42.5t-11 43.5l-9 4l-10 24l-22 6q-14 20 -58.5 27.5t-91.5 7.5h-18q-10 0 -17.5 -1t-23.5 -7l6 -8q-14 -8 -23 -8q-4 0 -20 4 l-8 -15l-21 2q-16 -6 -20 -18l-13 -4l3 -14h-9l-4 -5l-12 -16l2 -8h-8q-4 -8 -6 -10t-2 -4q8 -12 18 -15v-8h-12l-6 -4q0 -18 14 -33l-8 -4l-6 -8v-19l10 -10h-8l-4 -4l2 -10z" />
<glyph unicode="&#xa5;" horiz-adv-x="1001" d="M240 348l-9 17q-8 -2 -16 -3l-14 -18l-6 6l-13 -16v8l-8 6v10q-4 4 -12 -6t-25 -10l-4 6h-33q-8 -4 -18 -4t-15.5 8t-7.5 8l-6 -14q-31 0 -49 21q10 20 43 53q25 25 49 51l-4 4q0 6 36 15.5t52 9.5h23l141 6q2 8 2 24q-2 27 -2 39l-2 33l6 55l-10 5q-6 0 -14.5 -13.5 t-16.5 -13.5q-4 0 -8 12t-8 10l-12 -18h-21l-4 8q-10 2 -31 2q-37 -2 -53 -2q-29 0 -59 10v9q0 10 59 67l37 37l-4 4l12 4l82 19h22q12 0 24.5 1t12.5 21l-10 21q14 20 14 53q0 20 -6 43l6 4v25q0 25 6.5 73.5t6.5 73.5q0 98 84 166q70 57 176 82q6 -25 6 -51v-19 q-4 -8 -4 -10l8 -18l-4 -31l-23 10q-23 0 -22 -22l18 -2l19 8l8 -23q-8 -4 -12 -1t-6 5q-31 0 -31 -12l4 -4h22q-4 -14 -4 -23l21 -8l4 -16l-10 -4v-23l-23 -4l23 -4v-57h-25l4 -11l23 -2v-14q-6 -6 -10.5 -13t6.5 -10l-8.5 -42.5t-4.5 -40.5q0 -10 4 -31l-14 -17h14l-4 -18 l-14 -10l4 -31q14 0 14 -12q0 -14 -16 -19q18 -25 8 -45l-12 -45h8q6 8 12 19q31 23 60 54.5t55 67.5q12 10 21 19q18 16 16 20q25 39 82 103q27 29 53 59l41 43q-6 4 0 9.5t12 -1.5q6 14 33 43q16 16 19 15l6 22q4 2 10 4v7q4 4 57 86q29 45 76 63l19 6l22 19l4 -9l64 37 l10 -2l31 12l14 -4l4 4l14 -2l-12 -12l4 -6h21q-6 -31 -23 -51q-31 -35 -61 -70l-21 -4q6 -4 6 -12h-10l-16 -15q10 -8 18 -6l-26 -18l-9 -31q-10 -2 -15 9.5t-7 11.5q-12 0 -11 -8.5t-1 -12.5l-13 -2l-8 -24l35 6v-11q-10 -4 -30.5 -4t-20.5 -20l8 -4q14 -4 20 -4 q-16 -6 -18 -13l-27 7l-4 -23q-8 10 -23.5 0t-15.5 -25q14 6 19 7q12 0 28 10l7 -6l-19 -11q-4 4 -8 2t-2 -8l-31 -16l17 -4q-12 -2 -23 -2v-8q-27 0 -33 -10.5t-4 -32.5l-33 -15l31 2q-2 -2 -14 -12q-23 -20 -19 -27l-12 -18l-25 4l-10 -25h-8l-27 -26q8 4 13 4l-29 -27 h-12l-4 -6q0 -6 18 -4q8 -2 16 -2h37t39 2q43 0 74 -10q2 -8 6 -15l-14 -22q-6 -14 -10 -29q-8 -6 -35 -48t-37 -42l-4 10l-27 -2l-8 19q-25 -14 -33 -35q-14 -2 -31 4q-12 12 -10 14l-8 -18q-10 10 -18 -2l2 10l-15 8q-20 0 -26 -16l2 -8q-10 0 -9 5t1 9l-37 -4l-6 12 l-15 -6l6 -8l-6 -10l-6 2l-12 -4l-4 12q-6 0 -7.5 -6t-1.5 -15l-2 -6l-4 4l-34 -14q0 -4 -2.5 -9t-6.5 -11l-43 -70l21 4h47t24 -4l82 4q27 0 46.5 -2t41.5 -10l-2 -12h9l-17 -31q-6 2 -8 -6.5t-4 -16.5q-14 -12 -27.5 -33.5t-21.5 -44.5l-4 -10h-11l-2 8h-28q-2 18 -6 19 q-16 -37 -33 -37q-8 0 -20.5 9t-14.5 9q-14 -10 -23 -12l-4 -4l2 8q-4 4 -8 10q-14 -16 -28 -30q-2 8 -3 16l-32 -4l-6 14l-21 -18l-14 4l-2 -10q-10 0 -11 10l-6 2h-14l-8 8l-6 -10l-13 -16l-14 -9q8 -2 18 -2l5 -12h-25l-16 -20l-11 -2l-12 -37l-22 -21l20 -2q6 6 11 15.5 t10 17.5l-7 -21l9 -2l-33 -43l-21 -6l4 -8q0 -4 -14 -4l-10 -10q2 -6 6 -10q12 6 18 4q-14 -16 -16 -35l-20 -10l-15 4l-8 -33l-63 -37l-17 2l-6 -16h-23l-6 4l-18 -23q-10 10 -31 10q-8 -6 -16 -10l-23 -24l-30 4l-23 8l-14 -8l-4 18l-7 -8v-18l-14 30l6 29q29 55 58 111h8 q16 45 43 86zM1077 991q-12 -20 -26 -22v10h-11l2 12h35z" />
<glyph unicode="&#xa6;" d="M422 1393l14 2h6l4 -2l9 2v4l8 -4v4l4 -2l4 6q2 0 12 -2q23 -4 47.5 -29.5t6.5 -32.5q8 -6 8 -11t-2 -9l-17 6l9 -8q20 -14 18 -17l-8 -2l-10 5l4 -11l-7 2h-4l7 -8q8 0 12 4l-2 -16l4 -2l-10 2l16 -14l-20 6v-6l22 -9h-2l2 -14l-8 4v-18l-6 2l-11 2l13 -10l8 2l6 -13 l-2 2l-10 6v-6q-4 2 -6 2q0 -2 4 -4q8 -10 18 -10l-6 -8l4 -4q-8 6 -29 16q12 -16 35 -24q-8 2 -12 2l-2 -2l-10 8v-6l8 -7l8 -8v-6q-12 6 -16 6q4 -2 10 -8t14 -10h-2l-12 6h-10l8 -10l18 -8l-14 4l6 -4q-6 0 -10 -3l8 -8l-8 2l4 -4l-14 2l20 -10l6 -2h-26q6 -6 12 -10 t14 -6h-14l4 -4h-6l12 -9l-20 2q-4 0 -8 -2l32 -18l-10 4q4 -2 0 -6l-16 6l16 -14l-12 2l28 -15q0 -2 -2 -2l-6 2h-10l-6 -10l35 -14q-8 -4 -11 -6q-12 4 -26 8l-8 -2q-2 -2 2 -3t10 -1q14 -2 14 -6l-6 -9h6l6 -6q0 -2 -1 2t-7 2h-12q16 -14 29 -16l-48 8l9 -14l2 6l6 -10 l20 -4q2 -4 2 -9l-12 9l12 -11v-2l-10 2h-12l16 -8h-8l-14 -2l-6 2l16 -10l16 -6q-4 -4 -22 0h-8l12 -6q10 0 13 -4.5t-5 -4.5l8 -10q-10 6 -14 2l-6 -6q-4 2 -10 2l10 -6l2 2l31 -8l-15 2l4 -8h-8l21 -19l-2 -2q-8 4 -13 4l-10 4l25 -16q0 -6 -7 -4h-6l13 -10l-11 2l-4 -2 h-8q16 -6 25 -17l-21 13l6 -11q-14 -2 -18 0q12 -14 35 -22q0 -2 -6 -4q4 -2 0 -2l-11 6l-8 2v-6h-4q10 -12 31 -21l-29 6q0 4 -4 6.5t-12 6.5l4 -8l-8 6q-8 -6 -27 0l-2 -4l12 -5l4 -6h-10v-4l-18 2v-6l-27 10l2 -2l-6 -2l-27 2l-18 9q-14 16 -10 59q0 31 6 65 q-18 27 -16.5 122.5t6.5 189.5q4 111 -13 162q6 2 11 2q12 2 16 2zM408 563l14 4h4l6 -4l10 4l-4 4l8 -4v2l7 -2l2 8q2 0 14 -2q23 -6 45.5 -30.5t5.5 -28.5q6 -10 8 -14t-2 -8l-14 6l8 -9q18 -14 17 -16l-9 -4l-10 8l8 -14l-10 4h-2l6 -8q6 0 12 2l-4 -15l4 -4l-8 4l13 -14 l-19 4l-2 -4l25 -10h-4l6 -14l-8 2v-19l-9 4l-8 2l12 -10l7 2l6 -10v2l-11 2v-2l-8 4q0 -2 6 -8q6 -10 19 -10l-8 -9l2 -2q-6 6 -25 15q10 -14 31 -23h-10h-2l-13 8v-8l8 -6l9 -8v-4q-10 6 -15 4q4 -2 10.5 -7t14.5 -10l-2 -2l-10 9h-11l7 -11l20 -8l-14 4l6 -4q-6 0 -10 -2 l6 -8l-8 2l6 -6l-15 4l21 -10l6 -4l-27 2l10.5 -10.5t14.5 -8.5h-14l2 -2h-7l15 -10l-21 2q-6 2 -6 0l33 -18l-12 2q6 -2 0 -5l-15 5l15 -13l-11 2l27 -16q0 -2 -2 -2l-6 2l-10 2l-7 -12l35 -13q-6 -6 -8 -6q-14 2 -29 8h-8q-4 -4 1 -6t12 -2q14 0 14 -6l-6 -6h4l6 -6 q0 -2 0 1t-8 1h-10q16 -12 30 -16l-47 10l8 -15l2 5l7 -11l18 -2q2 -6 6 -10l-14 8l14 -12h-4h-10h-10l16 -8h-8l-15 -2l-8 4l17 -13l16 -4q-4 -4 -23 -2h-8l13 -4q8 0 12 -3t-4 -3l8 -10q-10 4 -14.5 0t-6.5 -6q-4 4 -12 6l10 -8l4 2l31 -9h-14l4 -8h-6l20 -18h-4 q-4 2 -12 2l-8 6l22 -16q0 -6 2 -6v-3l-6 5h-4l8 -11l-6 2l-8 -4l-8 2q16 -6 24 -16l-20 12l4 -10q-12 -2 -19 0q14 -16 37 -25l-4 -2q4 -2 0 -4l-10 6l-12 2l4 -4h-6q14 -14 30 -22l-28 8q0 2 -4 5t-11 7l4 -10l-8 6q-10 -2 -28 2v-6l10 -2l8 -6h-12v-4h-19v-4l-26 10l2 -4 l-8 -2l-23 4l-20 8q-14 16 -11 60q0 31 2 63q-14 27 -12 122t8 187q2 113 -14 166h8q13 2 19 2z" />
<glyph unicode="&#xa7;" horiz-adv-x="942" d="M170 379q10 0 20.5 21.5t20.5 21.5l8 -2l4 -23q-12 -23 -20 -32q-16 -35 -17 -82q0 -25 14.5 -53.5t35.5 -51.5l8 2l2 -8q2 -2 16 -8t21 -14q37 -4 55 -3q2 -4 4 -6q4 0 14 11q0 2 2 4h19l8 -11l18 13l7 14l34 -8q2 2 -1 3t-5 3l13 16l6 -6l39 29l18 59q-10 49 -52 79 t-100 48l-2 8q-68 43 -92 64q-45 37 -69 88l10 4q0 6 -15.5 10t-17.5 6l-6 29l4 4q-14 29 -14 54q0 109 123 186q59 37 120 76q2 2 4.5 5t6.5 5l-21 4q-4 10 -12 45t-8 45q0 100 123 195q76 59 213 120l77 43l5 5q23 4 48 10t48 6q49 0 73.5 -14.5t57.5 -57.5q16 -25 19 -39 t3 -51l-6 -35l-10 2l-2 -14l2 -6q-37 -55 -49 -74q-6 -4 -12 -6q-25 -33 -61 -66.5t-71 -64.5h-10l23 53l-4 4q2 10 2 21.5v15.5q0 29 -8 68q-35 76 -69 105.5t-71 29.5q-14 0 -29.5 -12.5t-19.5 -18.5q-8 4 -12 -12q0 -16 -8 -45q-18 -68 -19 -88q0 -4 7.5 -22.5 t15.5 -14.5l6 -33q8 -4 14 -4q16 -37 43 -49q-6 -14 15 -21h14l22 -4v-18l2 -6h21q6 -12 17.5 -16.5t9.5 -14.5h32q0 -14 7.5 -12t13.5 4l26 -14v-13l27 -41q8 -4 14 6l7 -6q-6 -10 -10.5 -18t-4.5 -14h8q4 6 11 14v-8l6 -15q0 -6 -12 -24l6 -19q0 -2 -1 -6t-5 -2l-5 -26 l7 -5q-12 -6 -21.5 -17t-19.5 -32l-7 6v-10l-10 -14h-18l6 -15l-25 -6l-47 -47q-53 -35 -96 -86q6 -16 25 -30l4 4q0 -6 2 -11q-4 -10 6 -10q0 -18 8 -20q-4 -12 -20 -39q-2 -4 -11 -15l2 -12q-4 -4 -13 -20.5t-21 -32.5l-9 6q-8 0 -14 -9t-2 -16q-47 -29 -82 -57.5 t-70 -71.5q-10 -14 -29.5 -29.5t-37.5 -27.5l6 -4l-10 -25q-8 6 -17 13l-4 -13q-4 -14 -8 -16l-8 2l-14 -16l2 -13q-4 2 -9 7h-12l-4 -9q-6 -4 -9 -3t-7 -9t-23.5 -12t-40.5 -2q-16 -10 -16 -15v-10l-8 2l-9 17q-4 0 -8 -10.5t-6 -10.5l-6 23h-8v-25q-12 2 -37 2h-23l-8 6 l-18 -2l-4 8v9q-6 -10 -11 -9l-24 13l4 14q-6 -2 -10 -6q-72 49 -72 139q0 72 55 143q23 29 111 115q-2 -6 1 -9t5 -3zM408 668l18 -29l10 2q12 -27 39 -43l10 8l4 -6l9 6l-6 -8l4 -12h10l4 -8h8l23 4l-2 -19l4 -6h18l4 -16l19 4l4 -19l14 -20l12 29l9 -19l14 -4l6 4l2 -6 q27 29 50.5 66.5t23.5 62.5q0 10 -8.5 26.5t-14.5 30.5l-32 29q-43 20 -66 31.5t-37 25.5q-20 4 -44.5 23.5t-47.5 38.5l4 10l-8 16l-4 -18l-33 35q-66 -45 -66 -123q0 -55 35 -96h11z" />
<glyph unicode="&#xa8;" d="M666 1268q10 25 24 55q23 45 35 55l61 21q29 16 58 18q12 -12 24 -12l9 -16q-8 -23 -9 -43q-8 -6 -12 -19l4 -8q-23 -6 -22 -49l-4 6l-11 2l-8 -23h-10q-8 -8 -8 -18l2 -8h8l-14 -6v-9l4 -4l8 -4l-17 -6q-6 -49 -43 -49q-14 0 -22 2l-10 -12l-6 6q-10 -10 -25 -10 q-12 -16 -41 -25l-6 -6l-8 4l-2 10h-9q4 29 10.5 47.5t39.5 100.5zM838 1126q33 84 49 125q53 127 80 135v13q14 6 34.5 11t34.5 5q10 18 33 19q12 0 24.5 -5.5t16.5 -5.5q-6 -31 -10 -32l4 -15q-8 -12 -12.5 -19t-4.5 -18l-10 -6l2 -10q0 -8 -18 -14q0 -16 -14 -39l4 -19 l-7 -8q-14 -4 -20 -14l6 -6q-8 -23 -14 -33q-14 -8 -27 -31q-29 -6 -57 -12l-23 -10l-16 16q-8 -37 -35 -37l-20 2v8z" />
<glyph unicode="&#xa9;" horiz-adv-x="1515" d="M94 369l19 16l-17 18q12 31 13 68q0 16 -3 23q61 119 95 180q100 186 118 209q33 39 115 106.5t119 104.5q102 102 366.5 208.5t409.5 106.5q39 0 96.5 -21.5t83.5 -46.5q4 -2 11 -4q12 -16 23 -37.5t13 -39.5q23 -10 19 -25l-12 -18q8 -8 16 -17q0 -12 -15.5 -12 t-15.5 -10q0 -4 9.5 -13.5t19.5 -3.5l4 -20l-4 4l-25 -25q12 -25 9 -28l8 -23l-4 -16h-9q10 -27 11 -37l4 -27l-12 -16l12 -27l-19 -12l13 -4l-21 -8l8 -9q0 -33 -4 -49t-20 -16l8 -14l-14 -17q-2 -8 -4 -17t-13 -12l-4 -34l-6 -11q0 -25 -29.5 -91t-44.5 -89h-8 q2 -20 -31 -82q-25 -45 -26 -51l-21 -16q4 -16 -8 -26.5t-8 -16.5q-78 -74 -154 -146q-2 2 -6 -1t-2 -5q-45 -14 -120.5 -68.5t-116.5 -68.5l-13 -19l-51 -24v-8l-37 -4v-11l-14 2q-12 0 -66 -16q-33 -10 -65 -20l-21 -15q-31 0 -60.5 -2t-57.5 -4q-84 0 -174.5 33 t-153.5 88q-18 16 -37 43q-25 37 -49 74q-4 6 8 14l8 12l-28 11q2 10 -11 51l23 37h-23zM348 209q31 -18 49 -49l107 -39l8 10l12 -25q23 0 71 -4t50 -4q180 0 325.5 91.5t243.5 248.5q18 25 27 37q16 25 16 41q16 16 26.5 30.5t14.5 33.5q25 66 30 80t18 65l2 20 q0 47 20 111q51 158 51 201q0 111 -49 168t-156 57h-75q-117 -4 -351.5 -133t-252.5 -211q-31 -29 -87.5 -118t-111.5 -179q-18 -68 -35 -133q-16 -39 -16 -78q0 -45 8 -86t18 -82q25 -16 33 -49zM535 500q-10 31 -7 43l-2 16q31 143 140 266q86 98 237 193q14 8 62 31 q109 49 129 49q51 0 82 -47l28 -80l-6 -13l6 -10l-18 -49l8 -4l-18 -27l4 -8l-15 -6l6 -4l-20 -14l2 -13q-20 -41 -45 -61.5t-53 -42.5l-8 2l-23 -8l-2 -8l-21 -3q-14 -14 -31.5 -23t-39.5 -20l-6 15q49 78 71 114q41 68 41 132q0 25 -12 54.5t-35 18.5q-6 -12 -18.5 -23.5 t-28.5 -23.5l-10 -2l-4 -14q-8 -6 -21.5 -17.5t-23.5 -15.5l-15 -20q-16 -14 -22 -21q-23 -20 -27 -31q-4 4 -10 -2t-2 -10q-6 -10 -57 -84q-37 -51 -48 -90l-8 -4l4 -12q0 -6 -7 -35t-7 -43q0 -59 26.5 -92t86.5 -33q37 0 53 6l37 18q23 6 88 58q45 35 92 71 q-4 -25 -47 -71.5t-68 -61.5v-8l-14 -8l-8 2l-19 -27l-4 4l-12 -22l-8 6q-14 -25 -43 -33l-10 -14l-11 4l-2 -12q-6 -6 -10 -4l-6 4l-2 -15h-12l-9 5l-2 -11l-35 -18q-80 0 -152.5 52t-72.5 122q0 16 2 25z" />
<glyph unicode="&#xaa;" horiz-adv-x="579" d="M164 752q35 113 121 204q68 74 188 152q23 16 47.5 31.5t54.5 15.5q53 0 76 -22q25 -35 47 -60l-6 -29l10 -16h27q-8 -25 -72 -147q-49 -94 -49 -164q0 -31 13 -45q16 6 92 71q41 35 57 48v-13h10q-14 -33 -80 -92q-86 -78 -92 -86q-27 -25 -54.5 -38t-59.5 -13l-25 2 q-14 23 -19.5 51.5t-5.5 65.5q-25 -25 -58.5 -54.5t-59 -47t-52 -29t-49.5 -11.5q-25 0 -46 23.5t-13 48.5q-12 12 -14 20l6 23l-2 8l-9 8q9 48 17 95zM459 727l22 76q31 63 41 84.5t10 70.5q0 66 -59 91q-51 -43 -84 -101.5t-51 -132.5q-14 -29 -10 -55l-9 -6q4 -6 5 -21 q0 -23 3 -41t19 -41q18 6 63.5 35t49.5 41z" />
<glyph unicode="&#xab;" horiz-adv-x="1007" d="M735 920l-84 -84q-88 -90 -104 -115l-21 -6q-8 -20 -29.5 -32.5t-27.5 -23.5l35 11l-4 -6l-31 -13v-10h14l-8 -6q-4 -18 -22 -31l-9 6l-12 -20v-21q-20 -16 -39 -18q-2 -10 -10 -22.5t-14 -20.5h-25l12 -12l-4 -17h-10l-6 -4l-14 4v-10l14 -8l-2 -8l-25 -7v-10l10 2l7 -6 v-16q-33 -4 -50 -25v-14l5 -4l14 18l6 -2l-16 -22v-9h8l16 -18q-16 -14 -26 -33l12 6l6 -6q-4 -20 -39 -33l2 -12l27 12l6 -8l-16 -12l4 -8l-6 -10v-15l-7 -4v-24l-10 -7q-2 -6 0 -16t6 -20l-14 -5v17l-8 2v-17l6 -22l10 4q-8 -18 -4 -31l-8 -8l10 -67h-20q-23 57 -56 249 q-16 98 -32 150q-12 29 -21 47q-16 37 -14 51q10 8 162 109q125 84 282.5 184.5t173.5 106.5zM717 692q160 119 321 238l9 -4q-4 -14 -31 -42t-35 -30v-16q-6 -10 -31 -31q-51 -43 -65 -39v-25l-11 -4q-14 -18 -20 -34l-20 -5l-13 -24l-8 -4l-6 -27q-10 -8 -17.5 -13 t-3.5 -11l-14 6v-29l-4 -6v-14l-27 12h-8v-35l-10 -4v-16l-27 8v-17h-18q-8 -18 -15.5 -35.5t-5.5 -23.5l-20 -4v-12q4 -2 18 -5l-8 -8q-4 -18 -26 -22l6 -15q-14 -18 -35 -8l-4 -4l6 -6l33 -6l-4 -19q-6 -4 -20.5 0t-20.5 7l2 -15h28l9 -12l-13 -8l6 -21l-10 -12l-8 -53 q-14 2 -25 2l-4 -17l19 2l8 -8l-4 -8l-21 -10q-4 2 -6 -7.5t-2 -17.5q0 -4 12.5 -8t8.5 -10h-21l14 -10l-14 -19q2 -4 4 -6t6 -2l-16 -19q-2 -4 3 -8t7 -4l-6 -10l-22 -8l4 -29l-9 -33l-4 4q-6 16 -32.5 162t-55.5 305l-4 19q55 45 137 98q99 61 144 90z" />
<glyph unicode="&#xac;" d="M109 563l14 4q6 8 34.5 13.5t39.5 9.5q4 -2 10 -4h20q20 0 90 6t103 6t53 -6q12 4 37 4h39l6 6l170 2h74l4 -4q10 2 22 4l-12 2v8l37 -10h41q53 0 100 -10v-12l10 -4l-10 -13l4 -4l6 -170l-2 -74l-4 -4q6 -43 6 -88q2 -53 -10 -102h-12l-4 -8l-29 16l-22 10 q-12 18 -37 31.5t-41 22.5l-8 4l-2 8l8 6v23v22l16 8l-16 17l-8 2q-14 14 -11 24l13 8l-9 11q6 -2 10.5 1t4.5 11l-10 2l-9 6l4 14l-6 5l11 -2l8 8l-11 8l-6 14l2 6l-12 2l2 13q2 -2 4 -6l8 4l-2 22q-12 -10 -20 -6l-8 10l-11 -6q2 4 -1 8t-11 4l-2 -8l-6 -8l-14 4l-4 -8 l2 12l-9 6l-8 -8l-14 -6l-6 2l-2 -12h-13q2 2 7 4l-5 10l-34 -4l-6 12l-21 -18l-18 4l-13 -8l-4 12l-31 -12l9 18l-6 4l-9 -8l-20 -16l2 10l-14 14q-6 -2 -7.5 -3t-1.5 -3l-8 10l-10 -26h-8l6 18l-8 -4l-23 17l-18 -29q-4 6 -29 0l10 8l-4 4l-8 -2v8l8 6l4 11l-18 2l-10 -17 h-9l3 15h-15l-10 -13q-6 4 -10 -1t2 -11l-8 -8l-5 31h-14l-8 -25l-8 4l-19 -8l-4 12l-14 11l-8 -13l-9 2v13l-16 -5l-10 7l-8 -17l-9 2l-14 -18v10l-8 6l-2 10l-16 -16l-23 -4l-8 12h-33l-8 -8h-8l-19 2l-10 12q-4 -6 -8 -8h-13q-2 0 -32 4l-11 15q14 25 43 53l54 53z" />
<glyph unicode="&#xad;" horiz-adv-x="741" d="M57 555l9 6h8q8 10 36.5 14.5t45.5 6.5h6l8 4l8 2l4 -4q57 0 185.5 8t164.5 8l101 6l6 -2q43 0 57 -12v-10l9 -7v-8l-27 -39v-8l-10 -4q-12 -14 -19.5 -25.5t-13.5 -23.5q0 -18 -6 -27.5t-13 -19.5l-12 -2l-2 10l-29 -2l-28 6l-6 10l-17 -12q0 -14 -14 -22l-16 2l-7 10 l-12 -10l-4 12l-12 -12l-11 -4l-18 -7h-12q-4 6 -1 8.5t5 2.5l-6 36l-19 -22l-8 2l6 16h-12q-16 -12 -27 -14v-18l-4 -4h-8l-4 30h-8l-11 -22h-12l-8 -6q-4 -2 -8 -5l-17 21l-10 2l-6 -10l-12 4l4 12h-8l-9 -6l-14 6l-10 -18l-10 2l-17 -17v13l-12 10l-2 6l-6 -2l-8 -20h-23 l-8 12l-31 -6l-4 4l-10 -4l-8 -6h-17l-20 16l-6 -10h-19q-10 -2 -27.5 1t-17.5 19q14 25 37 49l70 74h-13z" />
<glyph unicode="&#xae;" horiz-adv-x="1650" d="M94 369l19 16l-17 18q12 31 13 68q0 16 -3 23q61 119 95 180q100 186 118 209q33 39 115 106.5t119 104.5q102 102 366.5 208.5t409.5 106.5q39 0 96.5 -21.5t83.5 -46.5q4 -2 11 -4q12 -16 23 -37.5t13 -39.5q23 -10 19 -25l-12 -18q8 -8 16 -17q0 -12 -15.5 -12 t-15.5 -10q0 -4 9.5 -13.5t19.5 -3.5l4 -20l-4 4l-25 -25q12 -25 9 -28l8 -23l-4 -16h-9q10 -27 11 -37l4 -27l-12 -16l12 -27l-19 -12l13 -4l-21 -8l8 -9q0 -33 -4 -49t-20 -16l8 -14l-14 -17q-2 -8 -4 -17t-13 -12l-4 -34l-6 -11q0 -25 -29.5 -91t-44.5 -89h-8 q2 -20 -31 -82q-25 -45 -26 -51l-21 -16q4 -16 -8 -26.5t-8 -16.5q-78 -74 -154 -146q-2 2 -6 -1t-2 -5q-45 -14 -120.5 -68.5t-116.5 -68.5l-13 -19l-51 -24v-8l-37 -4v-11l-14 2q-12 0 -66 -16q-33 -10 -65 -20l-21 -15q-31 0 -60.5 -2t-57.5 -4q-84 0 -174.5 33 t-153.5 88q-18 16 -37 43q-25 37 -49 74q-4 6 8 14l8 12l-28 11q2 10 -11 51l23 37h-23zM348 209q31 -18 49 -49l107 -39l8 10l12 -25q23 0 71 -4t50 -4q180 0 325.5 91.5t243.5 248.5q18 25 27 37q16 25 16 41q16 16 26.5 30.5t14.5 33.5q25 66 30 80t18 65l2 20 q0 47 20 111q51 158 51 201q0 111 -49 168t-156 57h-75q-117 -4 -351.5 -133t-252.5 -211q-31 -29 -87.5 -118t-111.5 -179q-18 -68 -35 -133q-16 -39 -16 -78q0 -45 8 -86t18 -82q25 -16 33 -49zM817 958q-12 -4 -27.5 -9t-23.5 -5l-21 6v8q51 76 119 110t164 34 q33 0 48.5 -4t23.5 -6l12 -13l16 2q8 -2 5 -8t-3 -8h11.5t15.5 6l10 -8q2 2 13 -8l-2 -15l12 11l4 -7l4 -18l12 4l-4 -16h11l20 -41l-8 -25l8 -4q-4 -27 -19.5 -62.5t-19.5 -45.5l-31 -25q-4 -10 -10 -6l-10 -8q2 -2 -1 -6.5t-5 -2.5l-11 -20l-8 -6q-39 -6 -65 -39h-13 l-73 -43l-31 -10l-10 -11l-6 -4l-33 -4l12 -8v-22l12 4v-21l15 -6l-8 -8q14 -14 16 -12l-4 -13l8 -4l2 -33h12q6 -16 12.5 -31.5t6.5 -31.5l12 -4l4 -6q2 -16 7.5 -31.5t15.5 -22.5q-14 -29 -15 -41q-2 2 -8 -2t-4 -10q-51 -33 -100 -63l-29 12v18q0 27 -17.5 71t-19.5 67 l-67 145l-15 -6l-12 -53q-10 -12 -18 -25v-8l-11 -17q-4 -2 -6 -2q-2 -8 -4 -8l-2 -12q-10 -4 -10 -8l12 -2q-4 -10 -8 -19l-10 -4l8 -12l-19 -10l-2 -23l-12 -10l-8 -17l-12 3q-2 -6 -2 -13q-37 -23 -58.5 -35t-25.5 -16l-52 -12l-20 20q18 111 100 252q70 117 140 236 q12 25 69 100q27 36 41 61zM864 709l37 18q70 27 119 66q66 53 65 110q0 49 -38 66q-6 2 -80 14l-9 -6v-14q-18 -10 -18 -31l-12 -21l-10 -14l-5 -14l-18 -21l-4 -18l-14 -10l-11 -5l-4 -8l8 -2l-8 -14l6 -6l-10 -8l-8 -7v-10l-10 -2v-10l-15 -6h-6l4 -6l6 -5l-18 -20 l-10 -37z" />
<glyph unicode="&#xaf;" horiz-adv-x="1232" d="M162 1305l16 6q6 8 38 13t44 11q4 -2 10 -4h23q23 0 100.5 6t114.5 6q35 0 57 -6q14 4 43 4h43l6 7l189 4l82 -2l4 -4q49 6 98 6q59 0 113 -13v-14l10 -4l-18 -33l-11 -24q-20 -14 -35.5 -42t-23.5 -44l-4 -11l-10 -2l-7 11h-26q-16 0 -25 2l-8 16l-18 -16l-2 -11 q-16 -16 -29 -10l-8 12l-13 -8q4 6 0 10.5t-12 4.5l-2 -11l-8 -8l-14 4l-7 -8l2 12l-8 9l-8 -11l-16 -6l-6 2l-5 -14l-12 2q2 2 6 4l-4 10l-39 -4l-6 14l-24 -20l-19 4l-14 -10l-4 14l-35 -14l8 20l-6 6l-8 -10l-23 -18l2 12l-16 16q-6 -2 -8 -4t-2 -4l-9 13l-12 -31h-8 l6 22l-8 -6l-25 19l-20 -31q-6 6 -33 0l12 8l-4 4l-10 -2v10l10 7l4 12l-20 2l-12 -19h-9l3 17h-17l-12 -14q-6 4 -10 -1.5t2 -13.5l-9 -8l-6 33h-14l-10 -27l-8 4l-21 -8l-4 12l-16 13l-11 -15l-8 2v15l-18 -4l-13 6l-8 -19l-10 2l-14 -20v12l-11 6l-2 13l-18 -19l-25 -4 l-8 12l-37 2l-10 -10h-8l-21 2l-12 15q-4 -6 -8 -11h-14q-2 0 -35 6l-13 15q16 29 47 59.5t60 59.5z" />
<glyph unicode="&#xb0;" horiz-adv-x="1071" d="M522 1237l-6 27q23 6 88 53q53 39 94 35l11 8q33 6 49 6t53 -6t55 -6q35 0 96.5 -37t77.5 -70l-8 -14q33 -14 43 -43h10l2 -21l-6 -8h-12l14 -14l2 -31h-10l-4 -12l-6 -6q18 -25 18 -49l-14 -11l-12 2l-4 -4l4 -10q10 -6 19 -11t9 -11q0 -14 -26 -21l4 -14l-10 -25h-11 l-6 -6h-12l4 -20l-18 -7q-23 -35 -64 -24l-18 -23l-33 8q-6 0 -14.5 -3t-16.5 -9l13 -12q-6 -4 -33 -11.5t-39 -7.5q-37 0 -68.5 3.5t-140.5 19.5l-8 10l-4 -4l-17 10q-8 23 -43 27l-14 33l-27 10q0 27 -17 73t-17 66q0 25 20 89.5t43 56.5zM569 1030q8 -18 29 -29v-8 q27 -51 102.5 -63t77.5 -12l4 4q31 -6 66 10t65 45h9l10 6l-4 14q8 16 17 22.5t15.5 36t12.5 50.5q0 18 -8 41q-14 37 -15 43l-10 4l-8 25l-23 6q-12 16 -55 26.5t-113 10.5q-12 0 -24 -5.5t-17 -5.5l7 -8q-16 -6 -23 -6q-12 0 -20 2l-11 -14l-18 2q-16 -6 -21 -19l-12 -4 l2 -12h-8l-4 -4l-12 -19l2 -8h-9l-10 -12q8 -10 21 -14v-9h-13l-6 -6q0 -18 15 -33l-9 -2l-6 -10v-18l10 -8h-8l-4 -5v-12z" />
<glyph unicode="&#xb1;" horiz-adv-x="1071" d="M-6 299l-8 6l4 4h10l14 13l70 6h31q33 0 57 2q125 10 135 10q33 0 45 -6q14 8 42 10t77 2h127q43 0 57 2q12 -6 31 -6q16 0 32.5 2t33.5 4q25 0 49 -1t51 -13v-12q-2 -12 -10 -27.5t-13 -30.5q-16 -16 -31.5 -42.5t-27.5 -49.5h-10l-6 10l-29 -2v15l-4 4q-12 -8 -21 -27 q-16 -8 -24 -8l-8 12l-11 -8l-2 12l-8 2l-10 -18l-19 6l3 -6l-13 16l-4 -10l-22 -4l-2 -12l-7 14l-34 -2l-9 12l-20 -18l-12 2l-9 -8h-10v12q-20 -4 -30 -14l8 26l-15 -2l-6 -8l-10 -14l-4 10l-16 12q-4 -4 -9 -6l-12 12l-6 -28v20l-10 -6l-19 14l-20 -24q-23 -2 -31 -2 l10 8l-10 2v14l10 4v11h-16l-12 -17l-2 15h-17l-8 -13l-12 -2l2 -10l-11 -10l-4 30h-10l-10 -26l-6 8l-15 -10l-6 2l-2 10l-14 10l-10 -12l-6 16q-6 2 -8.5 0t-4.5 -4l-12 4l-14 -18l-5 4l-16 -16v10l-8 4v10l-6 2l-13 -18h-22l-4 8h-41l-8 -10l-2 8l-21 -4l-8 14l-8 -10h-8 q-27 0 -47 14q16 29 47 62q20 22 53 53zM279 866l14 4l10 7l72 14h24q47 0 131 5t99 5q68 123 137 246l33 8l10 8l14 8l11 7h18h14q2 4 12.5 14t12.5 8l2 -6l4 10q4 0 18.5 10.5t22.5 10.5q12 -10 16 -6l9 -25q-2 -10 -33 -80t-31 -80l-12 -10l-15 8l7 -20l-7 -4v-23 l-16 -20q-8 6 -4 12l-10 -25h-13l-12 -22q8 8 14 6l15 12l-27 -41l8 -6q55 6 113 6q33 0 66.5 -1t66.5 -1h41q18 -6 29 -8v-16l6 -2l-16 -31l-11 -4l-2 -21h-8q-12 -16 -24.5 -38.5t-20.5 -41.5l-6 -12h-8l-6 10h-29l-4 17q-20 -14 -31 -33h-16l-9 10l-12 -8q2 4 0 9t-8 5 q-6 -16 -10 -18l-15 6l-4 -8l2 10l-10 8l-4 -10l-14 -4l-9 2l-4 -14q-6 2 -10 6q2 2 4 6l-4 4l-33 -4l-4 12l-18 -6l-2 -10l-17 2q-10 -12 -14 -10l-4 12h-14l-13 -12q-2 4 -3 8t5 16q-20 -18 -32 -24l2 14l-6 6l-7 -6l-2 -16l17 -6l-19 -27l-8 22h-8l-2 -30l12 -17l-6 4 l-8 -2l-4 -12l-13 -20l-22 -15l-10 4l18 -16l-4 -16l-10 2l-4 18l-9 -25q-20 -8 -24 -6l-4 -20l10 -19l6 -2l-2 -12h-10l-2 -12q-6 6 -9 13t-12 1l-4 -12t-8 -4l-4 -15l8 -20l8 -4l-4 -8l-32 6l10 28l-2 11l-8 -27l-7 12l-10 -6l-8 2l-14 -16l-9 4l5 -12v-13l-19 -6l-12 -12 q-6 0 -21 -2l-6 -12l-22 16v-8l-37 -12v8l-25 6q4 35 68 137q37 57 76 117q10 8 19 24.5t9 24.5l-2 23h-10l-8 -23l-13 2l-14 -6l-20 20l-6 -12l-11 2l2 12l-4 5l-10 -7l-12 4l-8 -14h-13l-12 -16v12q-10 12 -8 14l-19 -18h-18l-10 8h-35q-8 -8 -15 -2l-20 -4l-10 14l-6 -10 q-35 0 -56 21q0 8 60 69l41 41z" />
<glyph unicode="&#xb2;" horiz-adv-x="675" d="M516 1200l-4 -47l-6 -8v-19q-16 4 -33 -8v-16q-41 -14 -80 -27l-26 8l-11 21q0 59 157 153.5t228 94.5q70 0 119 -41q14 -12 19.5 -27.5t5.5 -40.5q0 -33 -6.5 -53.5t-30.5 -26.5l4 -6q-16 -29 -24.5 -42t-16.5 -21l-20 -7l4 -14l-19 -6l-10 -20q-12 -4 -23 -9 q-8 -10 -36 -32q-16 -14 -25 -21l4 -18h-12v-9l-23 3l-8 -9l43 -6q-18 -4 -36.5 -6t-37.5 -10l21 -12l-51 -13h22q-12 -25 -39 -28l-6 4l-2 -23q-16 2 -35 -4q-12 -14 -39.5 -29.5t-40.5 -21.5l23 -2l-14 -19h-27l14 -2l-26 -20l-2 -12q-27 0 -37 -21l-23 -6q-2 -2 2 -6 t6 -2l-20 -23h-25l13 -4q35 0 101.5 13.5t96.5 15.5q45 10 84 10h25q16 -4 22 -4l4 4q31 0 48.5 -7t17.5 -20q0 -4 -12 -34l-13 2l7 -17l-25 8l-12 -8l-23 -37q-39 -16 -53 -20t-39 -4h-53q-6 0 -24.5 -4t-28.5 -4q-6 -6 -12.5 -7.5t-4.5 -7.5l-29 8q-12 0 -28.5 -6 t-22.5 -8l-6 6l-27 -10l-18 2l10 -20l-32 4q-16 -10 -37 -2q-10 -14 -49 -15q-10 10 -15 11l-6 -13q-35 6 -55 19q-31 18 -31 47q0 76 156 200q143 106 288 213q158 121 158 187q0 27 -20.5 42t-49.5 15q-31 0 -51 -8t-53 -31z" />
<glyph unicode="&#xb3;" horiz-adv-x="675" d="M416 936q-41 -66 -61.5 -105.5t-20.5 -54.5q0 -37 24.5 -77t61.5 -40q61 0 106 74q39 63 39 131q0 63 -33.5 103.5t-99.5 40.5l12 26q37 18 76 39q45 29 45 68q0 33 -22.5 51t-55.5 18q-25 0 -72.5 -25.5t-62.5 -29.5q-12 12 -14 23q41 45 144.5 95t162.5 50 q41 0 72 -18.5t31 -57.5q0 -51 -33 -97t-82 -69q39 -16 63 -49q27 -27 31 -51l10 -6q0 -29 -8 -29l8 -8q8 -20 -6 -45l10 -6l-18 -66q2 -12 -7 -22.5t-18 -18.5l-12 -4v-10l-12 -12l-15 -4l7 -17l-29 -6l-10 -16h-9l-4 -15q-117 -72 -186.5 -110.5t-95.5 -38.5 q-59 0 -106.5 41t-47.5 98q0 63 47 125q59 78 187 143z" />
<glyph unicode="&#xb4;" d="M672 1182v18q35 47 55 74q41 53 59.5 65.5t34.5 26.5l-2 12q10 6 10 19q18 0 25 4l6 10l-6 2l-4 6q14 10 36.5 16.5t43.5 6.5q6 0 28.5 -12.5t40 -14.5t27.5 -8l23 2q18 0 31.5 -11.5t13.5 -27.5q0 -18 -43 -61q-88 -90 -115 -86l-8 -9q0 -10 -10.5 -18t-16.5 -12 q-20 0 -33 -13l2 -8q-29 -23 -43 -33q-43 -31 -84 -30l5 16l-5 4l-16 -6l-12 4l-4 12l-6 5h-9l-28 8v16l-13 15z" />
<glyph unicode="&#xb5;" horiz-adv-x="1036" d="M-133 -25q0 16 15.5 37t29.5 41l-2 13l37 79l18 13q4 14 13.5 33.5t19.5 46.5q0 12 -1 19t-5 15q20 6 24 13l-8 30q18 23 27 31l-4 19l18 4l10 28l-10 -2v21q6 2 14 6q6 23 13 45l18 -4q14 0 14.5 7t-14.5 9l23 23l-4 16q10 18 10 29l18 8l-4 12l19 31l22 10l10 29h11 q6 10 11 20.5t3 12.5q35 33 70 67v23l100 106q8 8 18 19q20 18 35 14q20 20 51 33q8 4 105 26l20 -24q0 -18 -16 -19q-4 -20 -36 -69t-48 -51v-11l-23 -16l7 -16l-50 -62q-8 -6 -4 -10l-22 -4l6 -19l-20 -34q-8 2 -27 -11l10 -12q0 -16 -10 -35.5t-21 -11.5 q-4 -10 -10 -20.5t-24 -34.5q-2 -6 2 -12.5t2 -8.5l-31 -18l-4 -43l-19 4q-2 -23 -2 -31q0 -4 -4 -13t2 -11l-4 -33l-24 -23l10 -30q-16 -25 -16 -31q0 -27 9 -43.5t34 -16.5q39 0 138 61.5t118 92.5l-3 8l25 25l4 33q6 10 12.5 10t6.5 12q0 10 8 24.5t13 27t22 40.5 q10 20 53 86l12 35l6 19l140 198q6 18 22 34.5t37 27.5l16 -7l-4 13q0 8 66.5 28.5t91.5 20.5l-6 -68l-4 -14q-8 -8 -11 -10q-10 -12 2 -17l-24 -16v-16l-27 -23q12 -18 13 -25q0 -8 -8.5 -9t-16.5 -1v-8l-4 -6l-19 4v-16q2 -2 9.5 -2t7.5 -11q-12 -4 -17 -4q-6 -27 -22 -49 q-2 2 -14 4l6 -10q-6 -4 -13 -8q0 -4 3 -8l-17 -21l10 -14q0 -8 -10 -9.5t-24 -1.5q-2 -10 -2.5 -17t6.5 -19q0 -12 -14.5 -26.5t-32.5 -20.5l24 -21l-6 -6q-23 -4 -21 -19l-26 -14l-8 2l-17 -8q0 -10 6.5 -10t16.5 2l8 -4h16q0 -12 -15 -19.5t-15 -34.5l-6 -18l-19 -16 q4 -14 -5 -18.5t-9 -8.5l4 -23q-4 4 -8 -2t-4 -8l4 -22h-13l-4 -31q0 -8 8.5 -27.5t10.5 -23.5l20 -8q33 12 168 86q45 25 133 73q-43 -29 -97 -70.5t-93 -78.5l-21 -2q-53 -49 -55 -51q-14 -12 -41 -27l-6 -4q-61 -41 -131 -76l-4 4l-21 -8q-4 10 -9 8t-1 -8l-43 -4 q-18 0 -35.5 27.5t-25.5 56.5l2 8l6 4q-4 10 -7 19.5t-3 15.5l10 18l-4 37q4 2 4 11.5t2 11.5h8v22l8 15l-96 -84q-29 -25 -45 -39q-31 -27 -37 -39l-23 -10l-12 -21l-8 -6q-25 -12 -49 -39l-10 2q-12 -8 -17 -10v-8l-49 -23q-25 -4 -49 -8l-23 -33q4 0 11 -16l-15 4 l-10 -35q-4 -2 -12 -11t-4 -15l-19 -15q2 -6 2 -16v-15l-22 -32h-8l-15 -39q-10 4 -11 -5.5t-1 -33.5q-4 -10 -24.5 -30.5t-20.5 -39.5l-19 -6l-12 -49q-8 -6 -16 -14q-16 -25 -45 -25q-4 0 -11.5 -8t-15.5 6l-12 -18q-4 2 -23 -3q-4 0 -10 -20l-8 12l-6 -4l4 -18l-4 4l-8 2 q-2 6 -7 12q-14 0 -14 -31l-6 -8q-6 0 -6 12.5t-4 12.5q-20 -29 -31 -37q-6 6 -12 10l-6 -28q-16 -10 -23 -2l-12 28q45 84 108 228q53 121 105 239q4 0 6 5t2 7z" />
<glyph unicode="&#xb6;" horiz-adv-x="1265" d="M137 635q0 35 23 35q0 8 -1 9t11 50l-6 10q119 244 317 439q238 236 451 235q68 0 156 -19.5t153 -50.5q23 0 99.5 -39.5t91.5 -46.5l30 -16q6 -6 15 -12l10 -10h10q10 -14 12 -15.5t4 0.5l27 -16l-8 -19q-6 -16 -15.5 -34.5t-21.5 -34.5q-4 2 -14 -15q-2 -4 -11 -18 q0 -14 -20 -14q-6 0 -27 14q-6 4 -20 16q-6 0 -46 -44t-48 -54h-9q-6 -18 -10 -35l-8 2q-10 0 -8 -8t4 -14l-21 -15l-8 -24q-29 -41 -49 -74t-41 -78l-12 -10q0 -14 -21.5 -50t-40.5 -65l5 -16l-27 -14l-12 -31q-4 0 -6.5 -6t-2.5 -8q0 -8 -15 -32t-21 -24l-7 -6v-26l-16 -7 q-2 -4 -14.5 -34.5t-28.5 -44.5q8 -12 4 -21l-22 -12l-11 -25q4 0 9 -16l-33 -25l8 -8q-12 -14 -18 -22q-20 -29 -21 -48l-18 -16v-22l-21 -21l-4 -31q-6 6 -14 -2t0 -12l-17 -18v-23q-2 -6 -14 -20q-18 -25 -10 -33l-21 -15q6 -16 8 -22q0 -2 -10 -12q2 -6 4 -13l-18 -32 q-18 0 -35.5 -9.5t-34.5 -25.5q-8 4 -16 -6q0 -2 -2 -9h-21l-2 -10q-20 -16 -50 -24.5t-58 -8.5l-10 29l16 68q88 236 230.5 504t287.5 466q31 39 109 146q94 127 96 135l-29 41l-24 6l-27 -27q-33 -51 -92 -118q-29 -33 -62 -68l-2 -14q0 -6 -6 -10.5t-14 -6.5 q-8 0 -10 -10t4 -14l-19 -15l-8 -24q-29 -41 -49.5 -74t-40.5 -78l-14 -10q-10 -27 -23.5 -54.5t-36.5 -66.5l2 -8q-14 -16 -28.5 -33.5t-14.5 -34.5q0 -16 -12 -32.5t-27 -16.5l-6 -6v-26l-14 -7q-16 -35 -23.5 -51t-19.5 -28q6 -12 4 -21l-25 -12l-10 -25q4 0 8 -16 l-20 -4l-12 -25l8 -2q0 -8 -6.5 -10t-6.5 -12q0 -2 -14 -18.5t-12 -31.5l-19 -16v-22l-20 -21l-2 -31h-19v-28q-10 -4 -14 -4v-23q-16 -23 -31 -43l7 -10l-21 -15q6 -14 8 -20q-6 -8 -11 -15.5t5 -11.5l-18 -32q-18 0 -36 -9.5t-34 -25.5q-8 4 -16 -6q0 -2 -2 -9h-21l-2 -10 q-20 -16 -50 -24.5t-58 -8.5l-13 31l19 66q43 113 98 227q66 133 197 362q-59 -45 -109 -73q-82 -49 -113 -49q-35 0 -75.5 31.5t-40.5 64.5q0 6 4 18l-19 17v8l9 10l18 10l-25 15v24q0 14 9 15q-2 4 -4 30q-4 8 -7 19l-6 -11v17z" />
<glyph unicode="&#xb7;" horiz-adv-x="518" d="M92 367l4 28q4 18 76 116.5t88 109.5q4 2 40 14t38 12l4 -4q31 23 53 23l13 -2q10 -14 24 -25q0 -16 -12 -51v-17l-4 -6l-21 -4v-8l-8 -4v-43l-8 2l-19 -14h-12q-4 -25 -10 -35l4 -19q0 -10 -27 -10l-8 -27l-12 -16l4 -8h-10l-4 -10l-11 2l-6 -6l2 -7l-16 4l-6 -2l-37 7 l-16 -13l-9 4l-10 -14l-8 -6l-8 12v-10h-10q-14 -10 -29 -10q-27 0 -41 24z" />
<glyph unicode="&#xb8;" d="M27 -455l-4 13q10 0 43.5 15t60.5 28q35 39 39 43q20 27 20 53q0 27 -29.5 43t-62.5 16h-39l-6 6q33 39 67 73t70 67q47 51 95 100l32 -4q-2 -23 -24 -53q-31 -43 -35 -54q100 -14 113 -118l-11 -4q-2 -25 -18 -43h-8l-6 -5v-20h-19l-14 -10l6 -10v-9h-14l-4 -14l-19 -12 v-15h-14l-4 -6h-9l-2 -8q-35 -20 -114.5 -54t-108.5 -32z" />
<glyph unicode="&#xb9;" horiz-adv-x="675" d="M606 1169l-6 7l-4 -9q-25 -6 -53 -16q-45 -18 -88 -37l-13 35q23 45 171.5 125t201.5 80l31 -15l8 -16q-12 -33 -33 -68q-33 -57 -37 -65h-10l-4 -12l-2 -4l-12 4v-9l20 -4q-12 -2 -26 -16l4 -4l-9 -10l-24 2l4 -7q8 0 16.5 -4t12.5 -6l-15 -12l-8 2v-8l-6 -6 q-8 -6 -14 -11.5t-11 -9.5l11 -20l-21 -4l6 -11l-2 -10l-12 -16h-20l-5 4q6 -4 13.5 -8t11.5 -13l-2 -10l-12 -10l-41 -6v-8l2 6l8 2l20 -10q-10 -25 -36 -39l-11 2l-12 -11h16l4 -10l-10 -16l-2 6l-16 -41q-27 -16 -35 -33l6 -16l-14 2q2 -4 -4 -14.5t-4 -14.5l-25 -33 l2 -6l-6 -14q-4 4 -7 0t1 -8l-10 -8l-5 -17q-10 -2 -22 -28q-4 -8 -16 -41l-17 -11l2 -20l-18 -29q-10 20 -27 31q-25 -16 -49 -33v-8l-12 2q-27 -10 -42.5 -14t-33.5 -4l-27 10l-8 16q14 55 51 119q12 23 72 111q20 29 102 139q113 153 162 239z" />
<glyph unicode="&#xba;" horiz-adv-x="481" d="M657 1348l17 -9l10 15l12 -17l19 2q29 0 55 -14l21 -12q4 -31 24 -39q8 -45 12 -76t4 -61q0 -41 -10 -70t-65 -160l-27 -18l8 -8q-14 -23 -55 -70q-25 -29 -33 -43l-12 -2l-2 -14h-14q-33 -49 -147 -131t-183 -82q-70 0 -101.5 62.5t-31.5 139.5q0 127 94 260 q119 170 371 334q11 3 34 13zM369 803l10 -29l-23 -2l4 -8l17 4l14 -35l-14 -4l24 -10q14 -39 37 -39q78 0 142 133q55 115 55 203q0 100 -72 166l-12 -27l-4 16q-6 -4 -10.5 -16t-8.5 -20l-12 6l-4 8v-33l-18 -4v-10l-33 -8l2 -13l10 6l-10 -32h-25l8 -6l-8 -37h-14l10 -11 q-16 -14 -20 -45l-31 9l25 -17l-21 -18l8 -8l-18 -78l-8 -2l8 -13l-6 -16h-17z" />
<glyph unicode="&#xbb;" horiz-adv-x="1007" d="M-41 135l12 6q27 35 49.5 66t59.5 72q68 72 135 145q57 72 84 283q14 90 31 182q0 23 -2 35l14 2l8 -4l-8 -7l4 -4l6 -32q20 -6 21 -23v-8l-15 -8v-13h15l2 -26v-17v-10l14 2l6 -8q0 -6 -10 -10h14l4 -19l-12 -6q2 -12 2 -18q6 -8 13 -17v-12q-2 -12 5 -36.5t7 -31.5 l14 -20l-6 -16h14l9 -4l-13 -9l6 -18l7 2l12 -10l-10 -6l2 -13l10 -6l-12 -35l10 -6l2 -10v-6l6 -31l-10 -8l-17 -12l-32 -4l12 -13l-8 -10l4 -4l-23 4v-12l-8 -9v-8l-27 -22l-4 4l-22 -17l-15 15l-8 -4l-4 -15l-14 -2l-2 -18l-4 -4l-11 2l-14 6q-2 -4 -7 -9t-7 -3l-8 -31 q-4 -4 -8.5 0t-4.5 6l-2 -6q-25 -12 -26 -12l-9 -17q-20 0 -36 -28h-17l-4 -6l-22 -21l-17 -2l-6 -23q-18 0 -40.5 -8t-43.5 -16l-14 -19l-21 -8l-2 -10l-20 -6l-4 -14q-31 -18 -48.5 -27.5t-41.5 -9.5q57 49 106 106zM197 39l36 45l48 51h8q33 53 112 133l76 76 q20 23 43 48.5t35 43.5l8 13q27 39 57.5 228t30.5 247l11 6l24 -19l-6 -6l12 -39l-2 -6l4 -10l-12 -10v-13h14q0 -8 -8 -24l4 -4l15 4l-7 -15v-14l13 2l8 -6l-21 -8l5 -8h20l14 -31q-6 2 -10 4l-8 -22q2 -4 6 -7q0 -10 10 -53q4 -16 4 -33l15 -14l-6 -12l20 -6l-10 -11 l6 -18h10l6 -8l-8 -8v-11l12 -8l-12 -12q2 -4 0 -12.5t-6 -12.5h23l2 -12l-9 -4l4 -17h11l18 -8l-4 -12l-22 4l-5 -4v-16l-8 6l-49 -15l14 -8l-6 -12l-16 2l-4 -4l-2 -21q-23 -10 -35 -30l-14 4l-9 -13l-16 15l-12 -17l-13 -4l-6 -32l-12 4l-16 16l-7 -14l-12 -29l-12 6 l-4 -10q-12 -4 -15.5 -5t-9.5 -5l-12 -23h-10l-23 -22h-20l-23 -27l-14 -2l-6 -20q-20 0 -56 -15.5t-45 -30.5l-18 -4l-2 -14l-25 -8l-4 -12q-14 -8 -39 -13q-18 -25 -49 -24z" />
<glyph unicode="&#xbc;" horiz-adv-x="1650" d="M549 1169l-6 7l-4 -9q-25 -6 -54 -16q-45 -18 -88 -37l-12 35q23 45 171.5 125t201.5 80l30 -15l9 -16q-12 -33 -33 -68q-33 -57 -37 -65h-10l-4 -12l-2 -4l-13 4v-9l21 -4q-12 -2 -27 -16l-4 -14l-24 2l4 -7q8 0 16 -4l12 -6l-14 -12l-8 2v-8l-6 -6q-8 -6 -14.5 -11.5 t-10.5 -9.5l10 -20l-20 -4l6 -11l-2 -10l-12 -16h-21l-4 4q6 -4 13.5 -8t11.5 -13l-2 -10l-13 -10l-41 -6v-8l2 6l9 2l20 -10q-10 -25 -37 -39l-10 2l-12 -11h16l4 -10l-10 -16l-2 6l-17 -41q-27 -16 -34 -33l6 -16l-15 2q2 -4 -4 -14.5t-4 -14.5l-24 -33l2 -6l-6 -14 q-4 4 -7.5 0t0.5 -8l-10 -8l-4 -17q-10 -2 -22 -28q-4 -8 -17 -41l-16 -11l2 -20l-19 -29q-10 20 -26 31q-25 -16 -49 -33v-8l-13 2q-27 -10 -42 -14t-33 -4l-27 10l-8 16q14 55 51 119q12 23 72 111q20 29 102 139q113 153 162 239zM326 260h8q106 129 287 303 q152 145 303 291q6 6 168 190q182 209 323 261l10 -7l2 11l54 14q8 -6 12 -8q12 -10 12 -17q0 -20 -26 -55q-16 -20 -43 -45q10 -18 -7.5 -23.5t-33.5 -5.5l-2 -10l6 -8l-8 -23l-7 5l-22 -19v12l-14 -22h-13l-20 -17q6 -2 15 2.5t22 10.5l-35 -33h-8q-10 0 -10.5 -9t1.5 -20 q-8 2 -16 2l-18 -4l18 -14l-8 -6l-27 -31l-4 4q-20 -12 -37 -35l-10 4q-6 0 -12 -6q-2 -12 10 -8q8 -4 16 -6l-8 -4l-6 -8q0 10 -14 10q-8 -4 -17 -8l-14 -23l18 -8l-26 -16q2 16 -19 16l-6 -14q0 -8 6.5 -16.5t8.5 -10.5q-4 12 -25 12l-4 -10h-8q2 -12 10 -8l-10 -19 q-8 6 -9.5 0t-1.5 -12q-6 8 -10 8l-10 -26l8 -2l-10 -11q-10 8 -18 17l-9 -21q6 -2 21 -16q-4 -2 -12.5 2t-10.5 4l2 -8h-14l-6 -4q-2 -12 -2 -14q-6 -2 -19 -3l-16 -18l4 -8q10 6 14 6l7 -4l-45 -2q-18 -10 -9 -27l11 -2q0 -8 -9.5 -8h-13.5q-4 -8 -6 -10q-8 -12 -6 -17 l-29 2l-16 -4l12 -2q8 -10 8 -28q-6 2 -14 2q-23 0 -29 -4v-23q-2 -4 -2 -11t2 -18h-16q-16 -6 -28.5 -10t-18.5 -12l32 -15l-14 -6q-8 -6 -13 -8t-9 -4q-8 6 -25 6l-4 -4l-21 -4l19 -6l12 -10l-22 -13q8 -10 8 -12h-8l-4 4q-10 -2 -19.5 -6t-9.5 -10q0 -12 6 -13.5t16 -1.5 q-10 -2 -18 -2l-39 7l-22 -23q4 -2 12 4t10 6l-14 -22h22q6 -16 -8 -21l-14 13q-4 -12 -2 -15q8 0 8 -4t-8.5 -4t-14.5 2l-18 -2l6 -21l-8 3q-35 -6 -51 -9q0 -16 10 -16q4 0 14 8q8 -4 11.5 -6t-1.5 -6l-57 -8l-4 -9l29 -6q-12 -14 -23 -28l-49 -17l-16 4l-4 -12q6 4 22 4 q20 0 35 -10h-21l-6 -12l-24 -21l4 -20q-4 -4 -7 -1t-3 5h-29q-8 -8 0 -19q2 -2 10 -8q0 -8 -7 -7t-11 1q-10 -25 -43 -25l-4 -8l24 -8l-18 -12q0 4 -11 18l-8 -20q-6 -2 -15 -4t-11 0l-13 -17l17 -18l4 -4q0 -10 -13.5 -10.5t-13.5 6.5h-18q-6 0 -13.5 -11.5t-9.5 -13.5 l17 -22h-41l14 20v8l-20 -18v12q-12 -2 -25 -2l-14 -12q-8 2 -16.5 2t-6.5 -8q2 -4 12 -5l-2 -10q-23 4 -41 -14l-20 2q-2 -12 -14.5 -6t-22.5 10l-33 -16l-24 10q39 63 118 137q124 113 136 127zM1454 803q37 0 49.5 -18.5t12.5 -57.5q-10 -33 -19 -65h-10l-19 -54l-2 -14 q-27 -10 -30 -49l-15 -8l4 -5l-8 -24l-18 6l14 -22l-24 -13l8 2q-4 -16 -13 -22l2 -13l150 13l35 -19l2 -6l-14 -33q-57 -39 -82 -53q-41 -25 -88 -24h-25l-10 -9l-29 9l-27 -43l-6 -17l-16 -8l2 -10l-16 -8l2 -13q-4 -6 -15.5 -19t-23.5 -28q2 -4 4 -6t6 -2l-10 -25l-13 9 l-2 -7l11 -6l-2 -10l-9 4v-8v-16h-12l4 -13l-20 -2l10 -8v-16h-12q-12 -27 -43 -39l-7 -27q-27 0 -81 -26q-25 -12 -35 -13q-6 0 -19.5 4t-19.5 6q14 72 63 160q43 76 88 154l-73 -23v8l-4 -10l-21 -6v10l-6 -10q-14 4 -43 4h-39l-35 12q-6 4 -18.5 21.5t-12.5 24.5 q0 45 222.5 243.5t279.5 210.5q27 27 78 27zM1204 424q45 74 72 123q53 94 53 115l-2 12q-33 -25 -63 -47l-27.5 -27.5t-22.5 -13.5q-70 -66 -117.5 -110t-47.5 -66q33 0 71.5 3t83.5 11z" />
<glyph unicode="&#xbd;" horiz-adv-x="1644" d="M543 1169l-6 7l-5 -9q-25 -6 -53 -16q-45 -18 -88 -37l-12 35q23 45 171 125t202 80l30 -15l9 -16q-12 -33 -33 -68q-33 -57 -37 -65h-10l-4 -12l-2 -4l-13 4v-9l21 -4q-12 -2 -27 -16l-4 -14l-25 2l5 -7q8 0 16 -4l12 -6l-14 -12l-8 2v-8l-6 -6q-8 -6 -14.5 -11.5 t-10.5 -9.5l10 -20l-20 -4l6 -11l-2 -10l-13 -16h-20l-4 4q6 -4 13 -8t11 -13l-2 -10l-12 -10l-41 -6v-8l2 6l8 2l21 -10q-10 -25 -37 -39l-10 2l-12 -11h16l4 -10l-10 -16l-2 6l-17 -41q-27 -16 -34 -33l6 -16l-15 2q2 -4 -4 -14.5t-4 -14.5l-24 -33l2 -6l-7 -14q-4 4 -7 0 t1 -8l-10 -8l-4 -17q-10 -2 -23 -28q-4 -8 -16 -41l-16 -11l2 -20l-19 -29q-10 20 -26 31q-25 -16 -49 -33v-8l-13 2q-27 -10 -42 -14t-34 -4l-26 10l-8 16q14 55 51 119q12 23 72 111q20 29 102 139q113 153 162 239zM319 260h9q106 129 286 303q152 145 304 291 q6 6 167 190q182 209 324 261l10 -7l2 11l54 14q8 -6 12 -8q12 -10 12 -17q0 -20 -26 -55q-16 -20 -43 -45q10 -18 -7.5 -23.5t-33.5 -5.5l-3 -10l7 -8l-9 -23l-6 5l-22 -19v12l-15 -22h-12l-20 -17q6 -2 15 2.5t22 10.5l-35 -33h-8q-10 0 -10.5 -9t1.5 -20q-8 2 -16 2 l-18 -4l18 -14l-8 -6l-27 -31l-4 4q-20 -12 -37 -35l-10 4q-6 0 -12 -6q-2 -12 10 -8q8 -4 16 -6l-8 -4l-6 -8q0 10 -14 10q-8 -4 -17 -8l-14 -23l18 -8l-26 -16q2 16 -19 16l-6 -14q0 -8 6 -16.5t8 -10.5q-4 12 -24 12l-4 -10h-8q2 -12 10 -8l-10 -19q-8 6 -9.5 0t-1.5 -12 q-6 8 -10 8l-10 -26l8 -2l-10 -11q-10 8 -19 17l-8 -21q6 -2 21 -16q-4 -2 -12.5 2t-10.5 4l2 -8h-14l-6 -4q-2 -12 -2 -14q-6 -2 -19 -3l-16 -18l4 -8q10 6 14 6l6 -4l-45 -2q-18 -10 -8 -27l10 -2q0 -8 -9 -8h-13q-4 -8 -6 -10q-8 -12 -6 -17l-29 2l-16 -4l12 -2 q8 -10 8 -28q-6 2 -14 2q-23 0 -29 -4v-23q-2 -4 -2 -11t2 -18h-16q-16 -6 -28.5 -10t-18.5 -12l32 -15l-14 -6q-8 -6 -13 -8l-10 -4q-8 6 -24 6l-4 -4l-21 -4l19 -6l12 -10l-23 -13q8 -10 9 -12h-9l-4 4q-10 -2 -19 -6t-9 -10q0 -12 6 -13.5t16 -1.5q-10 -2 -18 -2l-39 7 l-23 -23q4 -2 12.5 4t10.5 6l-14 -22h22q6 -16 -8 -21l-14 13q-4 -12 -2 -15q8 0 8 -4t-8.5 -4t-14.5 2l-18 -2l6 -21l-8 3q-35 -6 -52 -9q0 -16 11 -16q4 0 14 8q8 -4 11 -6t-1 -6l-57 -8l-4 -9l29 -6q-12 -14 -23 -28l-49 -17l-17 4l-4 -12q6 4 23 4q20 0 35 -10h-21 l-6 -12l-24 -21l4 -20q-4 -4 -7.5 -1t-3.5 5h-28q-8 -8 0 -19q2 -2 10 -8q0 -8 -7 -7t-11 1q-10 -25 -43 -25l-5 -8l25 -8l-18 -12q0 4 -11 18l-8 -20q-6 -2 -15 -4t-12 0l-12 -17l17 -18l4 -4q0 -10 -13.5 -10.5t-13.5 6.5h-18q-6 0 -13.5 -11.5t-9.5 -13.5l16 -22h-40 l14 20v8l-21 -18v12q-12 -2 -24 -2l-15 -12q-8 2 -16 2t-6 -8q2 -4 12 -5l-2 -10q-23 4 -41 -14l-20 2q-2 -12 -14.5 -6t-22.5 10l-33 -16l-24 10q39 63 118 137q123 113 135 127zM1202 649l-4 -41l-10 -12l2 -16h-23l-8 -7v-18h-20q-10 -10 -32 -19.5t-36 -5.5l-6 7h-12 l-11 18q31 80 168.5 166t223.5 86q29 0 55.5 -10.5t54.5 -28.5q25 -37 25 -74t-21 -73l-16 -5l4 -6q-23 -33 -43 -65l-18 -2l2 -17l-15 -4l-14 -22q-10 -4 -21 -6q-10 -16 -26 -31q-8 -6 -33 -23l2 -20h-12v-8l-21 4l-8 -8l35 -7q-29 -6 -39 -8t-27 -10l19 -10 q-6 -2 -19.5 -5t-27.5 -6l20 -4l-8 -16l-33 -14l-6 4v-19l-37 -4l-10 -14q-6 -2 -25.5 -13.5t-29.5 -15.5l-11 -10l21 -2l-16 -18l-25 2l-4 -7l18 2l-28 -20l4 -4q0 -6 -18.5 -11t-24.5 -16v-8h-21q-4 -2 1 -6t7 0l-22 -25h-23l11 -4q33 0 108.5 14.5t107 17.5t79.5 7l34 -4 l4 4q29 0 40.5 -3t27.5 -17q-4 -25 -12 -39h-13l5 -15l-27 7q-16 -12 -29 -41q-57 -23 -72.5 -26t-74.5 -3q-12 0 -36 -5t-32 -5l-4 -11l-22 7q-18 0 -34 -4.5t-24 -6.5q-4 4 -7 2t-16.5 -7t-25.5 -1l10 -18l-41 4l-10 -8l-18 4q-20 -10 -33 -10q-12 0 -23 2l-8 4l-8 -13 q-37 10 -53 21q-31 20 -31 47q0 72 156 199q143 109 289 217q156 121 155 182q0 27 -21.5 43t-47.5 16q-27 0 -54.5 -12t-50.5 -29z" />
<glyph unicode="&#xbe;" horiz-adv-x="1640" d="M348 936q-41 -66 -61.5 -104.5t-20.5 -55.5q0 -37 24.5 -77t61.5 -40q61 0 107 74q39 63 39 131q0 66 -33 105t-98 39l10 26q37 18 76 39q45 29 45 68q0 33 -22.5 51t-55.5 18q-25 0 -73 -25.5t-62 -29.5q-12 12 -15 23q18 39 137 92t173 53q39 0 69.5 -19.5t30.5 -56.5 q0 -51 -33 -97t-82 -69q39 -16 64 -49q27 -27 30 -51l11 -6q0 -29 -8 -29l8 -8q8 -20 -6 -45l10 -6l-19 -66q2 -12 -7 -22.5t-17 -18.5l-13 -4v-10l-12 -12l-14 -4l6 -17l-29 -6l-10 -16h-8l-4 -15q-117 -72 -186.5 -110.5t-96.5 -38.5q-59 0 -106 41t-47 98q0 63 47 125 q59 78 186 143zM315 260h9q106 129 286 303q152 145 303 291q6 6 168 190q182 209 324 261l10 -7l2 11l53 14q8 -6 13 -8q12 -10 12 -17q0 -20 -27 -55q-16 -20 -43 -45q10 -18 -7 -23.5t-34 -5.5l-2 -10l7 -8l-9 -23l-6 5l-22 -19v12l-15 -22h-12l-20 -17q6 -2 15 2.5 l21 10.5l-34 -33h-9q-10 0 -10 -9t2 -20q-8 2 -16 2l-19 -4l19 -14l-8 -6l-27 -31l-4 4q-20 -12 -37 -35l-10 4q-6 0 -12 -6q-2 -12 10 -8q8 -4 16 -6l-8 -4l-6 -8q0 10 -14 10q-8 -4 -17 -8l-14 -23l18 -8l-26 -16q2 16 -19 16l-6 -14q0 -8 6 -16.5t8 -10.5q-4 12 -24 12 l-4 -10h-9q2 -12 11 -8l-11 -19q-8 6 -9 0t-1 -12q-6 8 -10 8l-10 -26l8 -2l-10 -11q-10 8 -19 17l-8 -21q6 -2 21 -16q-4 -2 -12.5 2t-10.5 4l2 -8h-14l-6 -4q-2 -12 -2 -14q-6 -2 -19 -3l-16 -18l4 -8q10 6 14 6l6 -4l-45 -2q-18 -10 -8 -27l10 -2q0 -8 -9 -8h-13 q-4 -8 -6 -10q-8 -12 -6 -17l-29 2l-17 -4l13 -2q8 -10 8 -28q-6 2 -14 2q-23 0 -29 -4v-23q-2 -4 -2 -11t2 -18h-16q-16 -6 -28.5 -10t-19.5 -12l33 -15l-14 -6q-8 -6 -13.5 -8t-9.5 -4q-8 6 -24 6l-4 -4l-21 -4l19 -6l12 -10l-23 -13q8 -10 9 -12h-9l-4 4q-10 -2 -19 -6 t-9 -10q0 -12 6 -13.5t16 -1.5q-10 -2 -18 -2l-39 7l-23 -23q4 -2 12.5 4t10.5 6l-15 -22h23q6 -16 -8 -21l-15 13q-4 -12 -2 -15q8 0 9 -4q0 -4 -8.5 -4t-14.5 2l-18 -2l6 -21l-8 3q-35 -6 -52 -9q0 -16 11 -16q4 0 14 8q8 -4 11 -6t-1 -6l-57 -8l-4 -9l28 -6 q-12 -14 -22 -28l-49 -17l-17 4l-4 -12q6 4 23 4q20 0 35 -10h-21l-6 -12l-25 -21l5 -20q-4 -4 -7.5 -1t-3.5 5h-28q-8 -8 0 -19q2 -2 10 -8q0 -8 -7 -7t-12 1q-10 -25 -43 -25l-4 -8l25 -8l-19 -12q0 4 -10 18l-8 -20q-6 -2 -15.5 -4t-11.5 0l-12 -17l16 -18l5 -4 q0 -10 -13.5 -10.5t-13.5 6.5h-18q-6 0 -13.5 -11.5t-9.5 -13.5l16 -22h-41l15 20v8l-21 -18v12q-12 -2 -24 -2l-15 -12q-8 2 -16 2t-6 -8q2 -4 12 -5l-2 -10q-23 4 -41 -14l-20 2q-2 -12 -14.5 -6t-22.5 10l-33 -16l-25 10q39 63 119 137q123 113 135 127zM1444 803 q37 0 49 -18.5t12 -57.5q-10 -33 -18 -65h-10l-19 -54l-2 -14q-27 -10 -31 -49l-14 -8l4 -5l-8 -24l-18 6l14 -22l-25 -13l8 2q-4 -16 -12 -22l2 -13l150 13l35 -19l2 -6l-15 -33q-57 -39 -82 -53q-41 -25 -88 -24h-24l-11 -9l-28 9l-27 -43l-6 -17l-16 -8l2 -10l-17 -8 l2 -13q-4 -6 -15 -19t-24 -28q2 -4 4.5 -6t6.5 -2l-11 -25l-12 9l-2 -7l10 -6l-2 -10l-8 4v-8v-16h-12l4 -13l-21 -2l11 -8v-16h-13q-12 -27 -43 -39l-6 -27q-27 0 -82 -26q-25 -12 -34 -13q-6 0 -19.5 4t-19.5 6q14 72 63 160q43 76 88 154l-74 -23v8l-4 -10l-20 -6v10 l-6 -10q-14 4 -43 4h-39l-35 12q-6 4 -18.5 21.5t-12.5 24.5q0 45 222.5 243.5t279.5 210.5q27 27 78 27zM1194 424q45 74 72 123q53 94 53 115l-2 12q-33 -25 -64 -47q-18 -18 -27 -27.5t-22 -13.5q-70 -66 -118 -110t-48 -66q33 0 72 3t84 11z" />
</font>
</defs>
</svg>
